<svg width="39" height="39" viewBox="0 0 39 39" fill="none" xmlns="http://www.w3.org/2000/svg">
<path d="M8.81691 1.44615C7.37553 0.649471 5.68317 0.667891 4.25099 1.45766L21.0365 16.9422L26.6754 11.3033L8.81691 1.44615ZM2.57244 3.0418C2.16259 3.71184 1.92773 4.47858 1.92773 5.29138V33.258C1.92773 34.0454 2.14187 34.796 2.5287 35.4523L19.4086 18.5724L2.57244 3.0418ZM34.1517 15.4294L28.773 12.4615L22.7288 18.5033L30.1361 25.3349L34.154 23.1176C35.6 22.3163 36.4657 20.8795 36.4657 19.2724C36.4634 17.6652 35.6 16.2284 34.1517 15.4294ZM21.1009 20.1335L4.17501 37.0594C4.90952 37.4785 5.7154 37.6995 6.52589 37.6995C7.30875 37.6995 8.09622 37.5015 8.81691 37.1032L28.0131 26.5092L21.1009 20.1335Z" fill="#783113"/>
</svg>
