<svg width="24" height="24" viewBox="0 0 24 24" fill="none" xmlns="http://www.w3.org/2000/svg">
<path d="M13.3875 23.1C13.575 23.2425 13.8075 23.31 14.04 23.31C14.2125 23.31 14.3925 23.2725 14.55 23.19C14.925 22.995 15.165 22.605 15.165 22.185V1.815C15.165 1.395 14.925 1.005 14.55 0.809999C14.1825 0.622499 13.725 0.652499 13.3875 0.899999L5.4675 6.5475H1.5C0.8775 6.5475 0.375 7.0575 0.375 7.6725V16.3275C0.375 16.9425 0.8775 17.4525 1.5 17.4525H5.4675L13.3875 23.1ZM23.295 9.04275C23.0841 8.83207 22.7981 8.71374 22.5 8.71374C22.2019 8.71374 21.9159 8.83207 21.705 9.04275L20.3385 10.4092L18.972 9.04275C18.8682 8.9353 18.7441 8.8496 18.6068 8.79064C18.4696 8.73168 18.322 8.70064 18.1726 8.69934C18.0232 8.69804 17.8751 8.72651 17.7368 8.78308C17.5985 8.83964 17.4729 8.92317 17.3673 9.0288C17.2617 9.13443 17.1781 9.26004 17.1216 9.3983C17.065 9.53656 17.0365 9.6847 17.0378 9.83407C17.0391 9.98345 17.0702 10.1311 17.1291 10.2683C17.1881 10.4056 17.2738 10.5297 17.3812 10.6335L18.7477 12L17.3812 13.3657C17.272 13.4691 17.1845 13.5932 17.1241 13.7309C17.0636 13.8686 17.0314 14.017 17.0292 14.1673C17.0271 14.3177 17.0551 14.4669 17.1117 14.6063C17.1682 14.7456 17.2521 14.8722 17.3584 14.9785C17.4647 15.0849 17.5913 15.1689 17.7306 15.2255C17.8699 15.2821 18.0191 15.3102 18.1695 15.3081C18.3199 15.3061 18.4683 15.2739 18.606 15.2135C18.7437 15.1531 18.8679 15.0657 18.9713 14.9565L20.3385 13.5907L21.7043 14.9565C21.924 15.1762 22.212 15.2865 22.5 15.2865C22.788 15.2865 23.076 15.1762 23.295 14.9565C23.5057 14.7456 23.624 14.4596 23.624 14.1615C23.624 13.8634 23.5057 13.5774 23.295 13.3665L21.93 12L23.2965 10.6335C23.5072 10.4226 23.6255 10.1366 23.6255 9.8385C23.6255 9.54037 23.5072 9.25444 23.2965 9.0435L23.295 9.04275Z" fill="#8C4F28"/>
</svg>
