<svg width="64" height="64" viewBox="0 0 64 64" fill="none" xmlns="http://www.w3.org/2000/svg">
<path d="M32.01 64C30.7842 64 29.5426 63.9855 28.3169 63.9582C27.9979 63.9523 27.6851 63.8765 27.4049 63.7373C27.1248 63.598 26.8854 63.3994 26.7071 63.1581C26.4424 62.7871 26.2487 62.3779 26.1341 61.9479L21.9813 63.4937C21.7381 63.5841 21.4779 63.6303 21.2152 63.6298H21.062C15.4644 63.2456 9.89605 62.5641 4.38542 61.5886H4.36154C3.03815 61.3299 1.86613 60.6346 1.0704 59.6363C0.256196 58.6696 -0.116036 57.453 0.0317141 56.2415C0.332176 53.1933 0.578912 50.0925 0.767944 47.0225C0.766047 46.9983 0.766047 46.974 0.767944 46.9499C0.772311 46.903 0.779619 46.8563 0.789832 46.8102C0.837708 46.5891 0.931595 46.3785 1.06642 46.1896C0.920622 45.9251 0.852089 45.6308 0.867435 45.3351C1.28331 37.6365 1.33703 29.8236 1.02861 22.1105C1.02762 22.096 1.02762 22.0815 1.02861 22.067V22.0452C0.978864 20.6572 2.20459 19.6756 3.41638 18.8826C2.64832 18.4055 1.87627 17.7432 1.55193 16.7525C1.27933 15.936 0.827639 13.5428 0.218756 9.63456C0.218756 9.60009 0.218756 9.56561 0.204828 9.53295C0.145133 8.86888 0.0894186 8.28826 0.0376835 7.75845C-0.10912 6.55072 0.260812 5.33792 1.0704 4.37275C1.86613 3.37441 3.03815 2.67917 4.36154 2.42043H4.38542C13.4869 0.810286 22.7368 -0.000235235 32.008 5.12111e-08H32.5512C33.0095 0.00110861 33.4537 0.144448 33.8107 0.40643C34.1642 0.669357 34.5542 0.888391 34.9708 1.05781C35.1592 1.13142 35.3628 1.16731 35.5678 1.16304C36.3975 1.16304 37.3188 0.694922 37.6133 0.508037C37.6933 0.453913 37.7785 0.406542 37.868 0.366512L37.9137 0.346554C38.1971 0.214641 38.5109 0.146222 38.8291 0.146968H38.9266C45.8693 0.448354 52.7792 1.20511 59.6027 2.41136C60.2819 2.52136 60.9299 2.75472 61.5083 3.09758C62.0867 3.44044 62.5836 3.88581 62.9694 4.40722C63.7166 5.37322 64.0751 6.54481 63.9843 7.72398C63.9644 7.90542 63.9464 8.10682 63.9285 8.29915L63.9047 8.54047C63.8816 8.7725 63.8082 8.99804 63.6886 9.20394C63.569 9.40985 63.4057 9.592 63.2082 9.7398C63.2401 9.77427 63.2699 9.81056 63.3017 9.84866C63.5799 10.1858 63.7136 10.6038 63.6778 11.0244C62.7103 22.3991 62.5302 33.8181 63.1386 45.2135C63.1509 45.4478 63.1111 45.6819 63.0215 45.9017C62.9319 46.1216 62.7944 46.3226 62.6173 46.4927C62.7207 46.7049 62.8162 46.9336 62.9058 47.1767C63.0864 47.6684 63.2294 48.171 63.3336 48.6808C63.3491 48.7546 63.3597 48.8291 63.3654 48.904C63.5346 51.3625 63.7415 53.8429 63.9823 56.2724C64.074 57.4528 63.7155 58.6258 62.9675 59.5927C62.5816 60.1142 62.0847 60.5595 61.5063 60.9024C60.928 61.2453 60.2799 61.4786 59.6007 61.5886C50.5093 63.1938 41.2702 64.0012 32.01 64Z" fill="url(#paint0_linear_3687_74982)"/>
<path d="M63.4005 49.3704L58.1952 49.1763V48.3888L63.3687 48.9204C63.3787 49.0692 63.3906 49.2198 63.4005 49.3704ZM62.6842 46.6325C62.6643 46.5853 62.6424 46.5381 62.6205 46.4928C62.7977 46.3227 62.9352 46.1217 63.0248 45.9018C63.1144 45.682 63.1542 45.4479 63.1419 45.2136C62.5472 34.0868 62.7054 22.9373 63.6154 11.8283L58.6409 12.1476L57.7375 42.2597L59.4985 45.0031L62.6842 46.6325ZM58.6847 57.2341C59.1583 57.2758 61.8823 58.5641 63.2374 59.2173C63.3708 59.0073 63.4878 58.789 63.5876 58.5641L59.9781 56.4793C59.9781 56.4793 58.0499 57.176 58.6847 57.2341ZM63.9855 56.2797C63.7866 54.1804 63.5876 52.0467 63.4403 49.9184L59.3294 50.1488L59.9761 55.7535L63.9557 57.2377C64.0014 56.9202 64.0114 56.5991 63.9855 56.2797ZM59.8189 11.7938L63.6513 11.3983L63.6811 11.0245C63.6931 10.8877 63.6871 10.75 63.6632 10.6144L59.5443 10.8812L59.8189 11.7938ZM57.1406 8.49157C57.2341 8.88893 58.04 9.76166 58.04 9.76166L60.3243 10.1971L63.2314 9.75622L63.2175 9.73989C63.4135 9.59145 63.5753 9.40901 63.6935 9.20314C63.8117 8.99727 63.8839 8.77206 63.906 8.54056L63.9278 8.30287C63.9457 8.11054 63.9637 7.91822 63.9836 7.7277C64.0257 7.25887 63.9922 6.78693 63.8841 6.32697L59.9044 7.15616C59.9044 7.15616 57.0411 8.09603 57.1406 8.49157ZM40.6908 0.235968L40.2531 2.07579L56.9675 4.30571L60.2566 2.55479C60.0423 2.49338 59.8236 2.44549 59.602 2.41146C53.3575 1.30867 47.0401 0.581934 40.6908 0.235968ZM60.9988 2.82514L58.1355 4.16237L58.625 4.62323L61.5938 3.1463C61.4037 3.02708 61.2049 2.91978 60.9988 2.82514ZM38.2374 0.929076L38.6115 0.157948C38.3698 0.179286 38.1344 0.24078 37.917 0.33939L37.8713 0.359349C37.7818 0.399378 37.6966 0.446749 37.6166 0.500873C37.3221 0.682315 36.4008 1.15588 35.571 1.15588C35.3661 1.16015 35.1625 1.12426 34.9741 1.05064L34.8547 1.01072L34.3712 3.13359L40.1814 4.05169L38.2374 0.929076ZM21.2165 63.6299C21.4792 63.6304 21.7394 63.5842 21.9826 63.4938V58.4244L7.65598 55.1729L2.68145 60.9791C3.19802 61.2645 3.76381 61.4681 4.35488 61.5814H4.37876C9.88938 62.5569 15.4577 63.2385 21.0554 63.6227L21.2165 63.6299ZM3.33411 18.8319L3.40972 18.8791C2.71925 19.3345 2.01685 19.8535 1.56317 20.474C2.67946 20.7371 4.33498 21.1072 4.33498 21.1072L6.25515 18.8319H3.33411ZM33.6608 0.310359C33.528 0.225787 33.3843 0.156325 33.233 0.103516L32.4968 1.2974L32.5923 1.82177L33.6608 0.310359ZM62.1569 60.4402L56.1736 57.9145L34.1145 58.3209L27.0427 57.9145L26.1493 62.0169C26.2635 62.4222 26.4497 62.8077 26.7005 63.1582C26.8788 63.3995 27.1181 63.5981 27.3983 63.7374C27.6784 63.8766 27.9912 63.9524 28.3102 63.9583C29.5359 63.9856 30.7776 64.0001 32.0033 64.0001C41.2636 64.0013 50.5026 63.1939 59.594 61.5887C60.5552 61.4418 61.4485 61.0427 62.1649 60.4402H62.1569ZM1.0697 4.37466C0.852327 4.64172 0.663746 4.92731 0.506584 5.22743L3.95692 6.47031L6.00244 4.05169L3.63656 2.60016C2.60852 2.94735 1.71611 3.56413 1.07169 4.37284L1.0697 4.37466ZM3.70222 53.7268L0.0747954 55.8733L0.0389787 56.2362C0.00852104 56.4631 -0.00212473 56.6918 0.00714173 56.9202C1.99695 55.6501 5.0732 53.7159 5.0732 53.7159L3.70222 53.7268ZM3.95692 21.2487L1.28261 20.9222C1.19701 21.086 1.13032 21.2574 1.08363 21.4338L4.53595 21.7804L3.95692 21.2487ZM3.55896 6.91484L0.166327 6.0911C0.102869 6.31384 0.0582981 6.54071 0.0330093 6.76969C1.792 7.19063 3.97483 7.74222 3.97483 7.74222L3.55896 6.91484Z" fill="url(#paint1_linear_3687_74982)"/>
<path d="M31.9492 61.9607C30.8189 61.9607 29.6748 61.9462 28.5466 61.919C28.2496 61.9116 27.9591 61.8381 27.7004 61.705C27.4417 61.5719 27.2226 61.3831 27.0622 61.1551C26.8179 60.7983 26.6397 60.4072 26.5349 59.9975L22.7144 61.4744C22.491 61.5608 22.2507 61.6052 22.0081 61.6051C21.9603 61.6051 21.9145 61.6051 21.8668 61.6051C16.7052 61.2354 11.5728 60.5822 6.49748 59.6491H6.47559C5.25018 59.378 4.17313 58.713 3.44211 57.7761C2.71109 56.8392 2.37516 55.6933 2.49596 54.5488C2.77454 51.6349 3.00138 48.6701 3.17449 45.7362V45.6672C3.17449 45.6219 3.18643 45.5765 3.19439 45.533C3.23351 45.3165 3.31651 45.1085 3.43913 44.9197C3.30609 44.6652 3.2439 44.3848 3.25806 44.1032C3.6421 36.7548 3.69184 29.2849 3.41327 21.9183V21.8548C3.3675 20.5303 4.49771 19.5904 5.60206 18.8338C4.89568 18.3766 4.18332 17.7452 3.88485 16.7962C3.64011 16.0196 3.2302 13.7317 2.66311 9.99577L2.6452 9.90142C2.58949 9.26637 2.53974 8.71116 2.49 8.20494C2.35478 7.05597 2.69466 5.90233 3.44311 4.96983C4.16205 4.02333 5.24412 3.35712 6.47559 3.1028H6.49748C14.8756 1.56379 23.4007 0.788241 31.9472 0.787598H32.4486C32.8722 0.789357 33.2819 0.926062 33.6067 1.17407C33.9308 1.42497 34.291 1.63435 34.6772 1.79641C34.8483 1.8671 35.0346 1.90183 35.2224 1.89802C35.9885 1.89802 36.8361 1.44986 37.1087 1.27205C37.1821 1.22143 37.26 1.17652 37.3415 1.13778L37.3853 1.11782C37.6462 0.99581 37.9358 0.933537 38.229 0.93638H38.3166C44.7183 1.22328 51.0875 1.94622 57.371 3.09917C58.0031 3.2073 58.6044 3.43186 59.1382 3.75912C59.6719 4.08638 60.1268 4.50946 60.4751 5.00249C61.1651 5.9353 61.4936 7.0516 61.4083 8.17409C61.3904 8.35554 61.3745 8.53698 61.3566 8.71842L61.3367 8.94704C61.2959 9.39047 61.0658 9.80158 60.696 10.0919L60.7815 10.1954C61.0385 10.5216 61.1617 10.9197 61.1297 11.3203C60.2378 22.1936 60.0716 33.1063 60.6323 43.998C60.6557 44.4477 60.4825 44.8875 60.1508 45.2209C60.2463 45.4241 60.3338 45.6418 60.4174 45.8741C60.5853 46.345 60.7182 46.8257 60.8154 47.3129C60.8297 47.3831 60.839 47.454 60.8432 47.5252C60.9984 49.8839 61.1914 52.2427 61.4123 54.5688C61.4976 55.6913 61.1691 56.8076 60.4791 57.7404C60.1302 58.2328 59.6751 58.6553 59.1415 58.9822C58.6078 59.3091 58.0068 59.5336 57.375 59.6419C49.0063 61.176 40.4912 61.9485 31.9551 61.948L31.9492 61.9607Z" fill="url(#paint2_linear_3687_74982)"/>
<path d="M58.9321 45.3224C58.2257 44.9976 59.344 44.8906 60.2036 44.5477C59.6085 33.1698 59.7839 21.7693 60.7289 10.4112C60.4712 10.1125 60.1488 9.86545 59.7817 9.68545C58.7033 9.08125 57.8616 8.6222 58.751 8.38088C59.3161 8.22847 60.2394 8.2321 60.9398 7.93998C60.9657 7.66963 60.9896 7.39565 61.0154 7.12712C61.1507 5.65018 60.0205 3.98092 58.3431 3.73053C51.8274 2.54626 45.2243 1.80455 38.5883 1.5115L38.5505 1.52964C38.5505 1.52964 36.1627 3.14084 34.0555 2.25541C33.5004 2.02354 32.9818 1.72515 32.5134 1.36816C23.4953 1.33352 14.4961 2.12372 5.65091 3.7269C4.02524 4.04079 2.76768 5.60664 2.98059 7.12349C3.03829 7.72406 3.09202 8.32645 3.14574 8.92702C3.45615 10.9447 4.06504 14.7767 4.37147 15.7402C4.80922 17.0592 7.197 17.5219 7.38006 18.1697C7.56312 18.8174 3.9158 20.2236 3.95958 21.4175C3.9607 21.4374 3.9607 21.4574 3.95958 21.4773C4.2607 29.2031 4.21228 36.9307 3.81432 44.6602C3.81432 44.6602 11.9725 45.4603 11.6522 45.7597C11.3318 46.0591 3.73871 46.05 3.7208 46.3512C3.53774 49.4321 3.29829 52.5105 3.00248 55.5866C2.78957 57.1034 4.04713 58.6711 5.6728 58.9832C10.9305 59.9376 16.2462 60.6041 21.5913 60.979L28.1219 58.486C28.1219 58.486 27.8493 60.3785 28.5198 61.3038C38.5399 61.5447 48.5582 60.7657 58.3889 58.9814C60.0742 58.731 61.1965 57.0617 61.0612 55.5848C60.8237 53.1341 60.6248 50.6816 60.4643 48.2273C60.4643 48.2273 59.9927 45.8069 58.9321 45.3224Z" fill="url(#paint3_linear_3687_74982)"/>
<path d="M58.9319 45.152C58.2255 44.8272 59.3438 44.7201 60.2034 44.3772C59.6083 32.9994 59.7837 21.5989 60.7287 10.2408C60.471 9.94205 60.1486 9.69499 59.7815 9.51499C58.703 8.90897 57.8614 8.45174 58.7508 8.21042C59.3159 8.05801 60.2392 8.06164 60.9396 7.76952C60.9655 7.49917 60.9893 7.22519 61.0152 6.95666C61.1505 5.47791 60.0203 3.80864 58.3429 3.56007C51.8272 2.3758 45.2241 1.63409 38.588 1.34104L38.5502 1.35918C38.5502 1.35918 36.1625 2.97038 34.0553 2.08495C33.5055 1.85026 32.9922 1.55008 32.5291 1.19225C23.511 1.15762 14.5118 1.94782 5.66661 3.551C4.04094 3.86489 2.78338 5.43073 2.99629 6.94759C3.05399 7.54816 3.10772 8.14873 3.16144 8.75112C3.47185 10.7688 4.08073 14.6008 4.38716 15.5624C4.809 16.8888 7.19678 17.3587 7.37984 17.9992C7.5629 18.6397 3.91558 20.0622 3.95935 21.247C3.96048 21.267 3.96048 21.2869 3.95935 21.3069C4.26048 29.0327 4.21206 36.7603 3.8141 44.4897C3.8141 44.4897 11.9723 45.2899 11.652 45.5893C11.3316 45.8886 3.72854 45.8777 3.71063 46.1898C3.52757 49.2707 3.28813 52.3486 2.99231 55.4234C2.7794 56.9421 4.03696 58.5079 5.66263 58.8218C10.9203 59.7763 16.236 60.4427 21.5811 60.8177L28.1117 58.3247C28.1117 58.3247 27.8391 60.2171 28.5096 61.1424C38.5297 61.3824 48.5479 60.6034 58.3787 58.82C60.0641 58.5696 61.1863 56.9003 61.051 55.4216C60.8136 52.9721 60.6146 50.5202 60.4541 48.0659C60.4541 48.0659 59.9924 45.6455 58.9319 45.152Z" fill="url(#paint4_linear_3687_74982)"/>
<path style="mix-blend-mode:multiply" opacity="0.19" d="M8.62355 3.0447C16.5161 1.78239 24.5161 1.16244 32.5291 1.19218C32.9976 1.54918 33.5162 1.84756 34.0712 2.07943C36.1785 2.96668 38.5662 1.35367 38.5662 1.35367L38.604 1.33552C41.2903 1.45648 43.9706 1.64881 46.6449 1.91251C46.0546 2.57389 45.3874 3.17495 44.6551 3.70515C39.4616 7.58619 32.557 9.38972 25.8553 8.99237C19.6411 8.62041 13.6339 6.42496 8.62355 3.0447ZM5.41796 22.3937L19.673 22.6259C22.2438 22.6676 24.8166 22.7094 27.3755 22.9471C30.8338 23.2682 34.515 23.9105 37.6449 22.5316C35.4283 21.8167 33.0206 21.8384 30.6707 21.8675L22.1722 21.9745C20.4729 21.9963 18.7517 22.0144 17.1041 21.6334C14.6666 21.0709 12.5773 19.6811 10.3388 18.6378C8.94641 17.9985 7.49567 17.4709 6.00296 17.0611C6.66159 17.4131 7.28042 17.6852 7.37394 17.9991C7.56099 18.6396 3.90968 20.0531 3.95346 21.2469C3.95458 21.2669 3.95458 21.2869 3.95346 21.3068C3.96739 21.6697 3.97933 22.0326 3.99326 22.3955C4.47479 22.381 4.95234 22.3864 5.41796 22.3937ZM33.6992 15.3265C27.1865 16.7925 20.1067 17.0702 13.9403 14.6642C10.5994 13.3597 7.67043 11.3312 4.55438 9.6256C4.11463 9.38428 3.65499 9.13752 3.17743 8.89983C3.35652 10.0647 3.62514 11.7575 3.87785 13.1746C8.86431 15.4898 13.3374 19.1368 18.8711 19.2475C22.0548 19.311 25.1469 18.1588 28.3346 18.0899C30.5871 18.0481 32.8037 18.558 34.9866 19.0624L57.937 24.3696C58.5977 24.522 59.2702 24.6762 59.9448 24.7705C60.0681 19.9248 60.3334 15.0816 60.7407 10.2407C60.483 9.94198 60.1606 9.69492 59.7935 9.51492C58.7151 8.9089 57.8734 8.45167 58.7628 8.21035C59.2463 8.07971 59.9945 8.06338 60.6452 7.87831C59.9104 7.76096 59.163 7.7238 58.4186 7.76763C56.4288 7.88376 54.5006 8.4934 52.6282 9.13389C46.3444 11.2785 40.2118 13.8586 33.6992 15.3265ZM60.8422 53.3676C58.6534 53.549 56.4447 54.1115 54.3693 54.7901C50.3121 56.1164 46.3663 57.9054 42.0842 58.3445C40.7371 58.4824 39.3701 58.4842 38.0449 58.7383C36.5545 59.0231 35.1577 59.6201 33.8126 60.2714C33.2116 60.5617 32.6187 60.8642 32.0337 61.1787C35.9297 61.1787 39.8205 61.025 43.7059 60.7178C45.835 59.8106 47.9562 58.9034 50.0733 57.9962C51.5239 57.3829 52.9764 56.7732 54.4807 56.2797C56.5926 55.6079 58.7652 55.107 60.9735 54.7828C60.9218 54.3165 60.884 53.8411 60.8422 53.3676ZM13.2598 59.9902C14.6169 59.1175 16.2147 58.555 17.6593 57.7875C18.6701 57.2432 19.6232 56.6027 20.7176 56.2235C22.3095 55.6792 24.0545 55.7336 25.7479 55.7989L34.9507 56.1618C40.5541 56.3795 46.5613 56.5047 51.2891 53.7541C52.4989 53.0482 53.5853 52.1737 54.8469 51.5495C56.6178 50.6714 58.5778 50.3502 60.5934 50.3248C60.5437 49.6843 60.4979 49.042 60.4542 48.4015C59.6052 48.71 58.7641 49.0372 57.9311 49.3831C56.1402 50.127 54.4051 50.9635 52.5586 51.5731C47.8576 53.1096 42.7197 53.1231 38.0091 51.6112C34.517 50.479 31.3452 48.5267 27.7237 47.801C25.0872 47.2766 22.3513 47.4381 19.661 47.6576C17.719 47.8155 15.7749 48.0042 13.8548 48.3253C10.1933 48.9418 6.6483 50.0356 3.32866 51.5731C3.22519 52.8553 3.11177 54.1363 2.9884 55.4161C2.77549 56.9347 4.03305 58.5006 5.65873 58.8145C8.18181 59.2753 10.7155 59.6672 13.2598 59.9902ZM6.64567 6.55016C5.7463 5.85376 5.00306 5.00538 4.45688 4.05171C4.00197 4.3489 3.6303 4.7397 3.37204 5.1924C3.11378 5.6451 2.97621 6.14695 2.97049 6.65721C5.40602 7.69687 7.99278 8.43897 10.5795 9.17562C12.0699 9.59657 13.5642 10.0175 15.0805 10.4094C14.3781 10.1699 13.6876 9.91409 12.9872 9.65644C10.7507 8.82544 8.4763 7.97811 6.64567 6.55016ZM51.7368 2.50582C51.4011 2.93548 51.0285 3.34016 50.6225 3.71604C49.9715 4.26452 49.2546 4.74415 48.4854 5.1458C40.7503 9.43304 31.8688 11.6931 22.8169 11.6777C21.9314 11.6777 21.042 11.6487 20.1625 11.5688C23.7123 12.2601 27.3079 12.623 30.9154 12.3182C33.4265 12.1095 35.8899 11.5924 38.3334 11.0064C43.2005 9.85421 48.1074 8.44986 52.1964 5.7881C53.3704 5.02242 54.4967 4.10614 55.3045 3.03019C54.1186 2.84028 52.9294 2.66549 51.7368 2.50582ZM18.9367 11.4182C19.3347 11.4836 19.7526 11.5326 20.1625 11.5707C18.4572 11.2422 16.7599 10.8449 15.0745 10.4022C16.325 10.8482 17.6179 11.1883 18.9367 11.4182ZM26.8801 44.0524C33.9141 44.2175 40.7013 46.3821 47.6816 47.204C51.7388 47.6812 56.0945 47.5977 59.9766 46.5218C59.7358 45.9375 59.3956 45.3624 58.9379 45.1519C58.2315 44.8271 59.3498 44.7201 60.2094 44.3771C59.9269 38.9762 59.8181 33.5711 59.8831 28.1617C57.742 27.7244 55.4936 27.5865 53.2968 27.5611C44.9993 27.4631 36.5147 28.6915 28.5157 26.6775C24.4644 25.6596 20.5724 23.8162 16.3778 23.7853C13.4265 23.7713 10.5547 24.6578 8.21961 26.3037C6.84068 27.2817 5.54133 28.5609 4.14448 29.5407C4.15642 31.3236 4.14912 33.1072 4.12259 34.8914C10.8064 33.8154 17.3966 31.9883 24.1321 31.1119C30.9273 30.2229 37.838 30.3009 44.6809 30.8071C47.5721 31.0212 50.5966 31.3514 52.9725 32.8755C54.3136 33.732 55.414 35.4593 54.429 36.6532C54.1034 37.0024 53.6952 37.2797 53.2351 37.4642C49.0446 39.3857 44.1337 39.2968 39.4477 39.1661L5.14735 38.2063L4.05693 38.1773C4.00121 40.1719 3.92229 42.1678 3.82014 44.1649C10.0383 42.9075 16.0933 40.8662 22.4269 40.2221C28.2132 39.6343 34.0872 40.233 39.7641 41.4142C42.0325 41.8878 44.3088 42.4629 46.3086 43.5443C47.9482 44.4298 49.6117 45.6872 51.3667 46.1117C48.2944 45.8595 45.3017 44.7582 42.321 43.9181C34.5763 41.7442 26.3783 41.2674 18.3935 42.5264C16.1013 42.8893 13.8388 43.3974 11.5525 43.7965C9.40753 44.1594 7.24461 44.4352 5.07372 44.6257C7.35405 44.8652 11.8868 45.3714 11.6401 45.5964C11.3118 45.894 3.72662 45.8849 3.70871 46.1879C3.66494 46.9222 3.61784 47.657 3.56744 48.3925C11.2083 46.2406 18.9129 43.8637 26.8821 44.0524H26.8801Z" fill="url(#paint5_linear_3687_74982)"/>
<g style="mix-blend-mode:screen">
<path style="mix-blend-mode:multiply" opacity="0.19" d="M4.05078 38.2932L5.11334 38.3223L39.4097 39.2803C44.0957 39.4109 49.0086 39.4998 53.1971 37.5784C53.6576 37.3943 54.0659 37.1169 54.391 36.7673C54.5555 36.57 54.6704 36.342 54.7273 36.0996C54.6632 36.2993 54.5601 36.4868 54.4229 36.653C54.0973 37.0022 53.6891 37.2795 53.229 37.4641C49.0384 39.3855 44.1276 39.2966 39.4416 39.166L5.14518 38.2061L4.05476 38.1771C4.05476 38.217 4.05277 38.2551 4.05078 38.2932Z" fill="url(#paint6_linear_3687_74982)"/>
<path style="mix-blend-mode:multiply" opacity="0.19" d="M4.41785 4.16582C4.96403 5.11949 5.70727 5.96788 6.60665 6.66428C8.44125 8.08678 10.7156 8.93956 12.9482 9.7633L13.6804 10.0318C14.1441 10.1588 14.6097 10.2822 15.0733 10.3947C14.3709 10.1552 13.6804 9.89938 12.98 9.64174C10.7474 8.82525 8.47309 7.97791 6.64246 6.54997C5.74309 5.85357 4.99985 5.00519 4.45367 4.05151C3.74915 4.51993 3.25046 5.20171 3.04688 5.9748C3.26759 5.2483 3.75063 4.61095 4.41785 4.16582Z" fill="url(#paint7_linear_3687_74982)"/>
<path style="mix-blend-mode:multiply" opacity="0.19" d="M30.6737 21.8765L22.1752 21.9836C20.4759 22.0053 18.7547 22.0235 17.1071 21.6424C14.6696 21.08 12.5803 19.6901 10.3418 18.6468C8.94783 18.0041 7.49507 17.4735 6 17.061L6.52929 17.3405C7.82816 17.722 9.09225 18.1958 10.3099 18.7575C12.5505 19.8008 14.6398 21.1907 17.0753 21.7531C18.7229 22.1341 20.446 22.116 22.1453 22.0942L30.6418 21.9872C32.944 21.9581 35.302 21.9382 37.4808 22.6077L37.648 22.5369C35.4253 21.8166 33.0177 21.8384 30.6737 21.8765Z" fill="url(#paint8_linear_3687_74982)"/>
<path style="mix-blend-mode:multiply" opacity="0.19" d="M3.96875 21.1072C4.36671 20.0058 7.33949 18.7829 7.35143 18.166C7.01913 18.8337 4.17171 20.0403 3.96875 21.1072Z" fill="url(#paint9_linear_3687_74982)"/>
<path style="mix-blend-mode:multiply" opacity="0.19" d="M42.0818 58.3463C40.7347 58.4842 39.3677 58.486 38.0425 58.74C36.5521 59.0249 35.1553 59.6218 33.8101 60.2732C33.2092 60.5635 32.6163 60.8659 32.0312 61.1804H32.2163C32.7317 60.9064 33.251 60.6361 33.7783 60.3857C35.1234 59.7325 36.5203 59.1373 38.0106 58.8525C39.3378 58.5985 40.7028 58.5967 42.0499 58.4588C46.332 58.0197 50.2798 56.2288 54.335 54.9043C56.4104 54.2257 58.6131 53.6705 60.8079 53.4818C60.8477 53.9197 60.8882 54.3582 60.9293 54.7973H60.9691C60.9253 54.3237 60.8815 53.8483 60.8397 53.3748C58.6509 53.5562 56.4423 54.1187 54.3669 54.7973C50.3097 56.1163 46.3639 57.9054 42.0818 58.3463Z" fill="url(#paint10_linear_3687_74982)"/>
<path style="mix-blend-mode:multiply" opacity="0.19" d="M58.9307 45.1518C58.8457 45.1217 58.7718 45.0701 58.7178 45.0031C58.6322 45.0774 58.6701 45.1591 58.8989 45.2661C59.3307 45.4639 59.661 45.9919 59.8938 46.5362L59.9654 46.5163C59.7366 45.9375 59.3963 45.3623 58.9307 45.1518Z" fill="url(#paint11_linear_3687_74982)"/>
<path style="mix-blend-mode:multiply" opacity="0.19" d="M60.4519 48.3978C59.6029 48.7062 58.7618 49.0334 57.9288 49.3794C56.1379 50.1233 54.4028 50.9597 52.5563 51.5694C47.8553 53.1059 42.7174 53.1193 38.0068 51.6075C34.5147 50.4753 31.3429 48.523 27.7214 47.7972C25.0849 47.2728 22.349 47.4343 19.6587 47.6539C17.7167 47.8117 15.7726 48.0004 13.8525 48.3216C10.191 48.9381 6.64599 50.0319 3.32636 51.5694C3.32636 51.6039 3.32636 51.6383 3.31641 51.6728C6.63028 50.1404 10.1685 49.0502 13.8226 48.4359C15.7408 48.1147 17.6848 47.926 19.6289 47.7682C22.3171 47.5486 25.0531 47.3872 27.6896 47.9097C31.3111 48.6355 34.4828 50.5823 37.9749 51.72C42.6856 53.2318 47.8234 53.2183 52.5244 51.6819C54.369 51.0722 56.1061 50.2303 57.8969 49.4919C58.7273 49.1459 59.5677 48.8187 60.418 48.5103C60.4598 49.1127 60.5036 49.7169 60.5494 50.3247H60.5891C60.5414 49.6806 60.4956 49.0383 60.4519 48.3978Z" fill="url(#paint12_linear_3687_74982)"/>
<path style="mix-blend-mode:multiply" opacity="0.19" d="M18.3582 42.6388C26.3429 41.3779 34.5414 41.8548 42.2857 44.0305C45.2704 44.8705 48.2551 45.9719 51.3314 46.2241C51.1291 46.1728 50.9299 46.1123 50.7344 46.0426C47.885 45.7033 45.0973 44.6945 42.3215 43.9125C34.5768 41.7386 26.3788 41.2618 18.394 42.5209C16.1018 42.8837 13.8393 43.3918 11.553 43.7909C9.40803 44.1538 7.2451 44.4296 5.07422 44.6201L5.63336 44.68C7.60725 44.4986 9.57318 44.2409 11.5232 43.9053C13.8055 43.5097 16.0659 43.0035 18.3582 42.6388Z" fill="url(#paint13_linear_3687_74982)"/>
<path style="mix-blend-mode:multiply" opacity="0.19" d="M32.4948 1.30286C32.9629 1.65984 33.4816 1.95767 34.037 2.1883C36.1442 3.07736 38.5319 1.46253 38.5319 1.46253L38.5717 1.44439C41.2368 1.56535 43.8951 1.75526 46.5469 2.01411L46.6424 1.90706C43.9694 1.64216 41.2892 1.44983 38.6016 1.33008L38.5638 1.34822C38.5638 1.34822 36.176 2.95943 34.0688 2.07399C33.5141 1.84381 32.9955 1.54727 32.5267 1.19218C24.5137 1.16244 16.5137 1.78239 8.62109 3.0447L8.75242 3.13361C16.5918 1.88585 24.537 1.27321 32.4948 1.30286Z" fill="url(#paint14_linear_3687_74982)"/>
<path style="mix-blend-mode:multiply" opacity="0.19" d="M22.7827 11.7919C31.8348 11.8082 40.7165 9.54806 48.4513 5.26004C49.2209 4.859 49.9379 4.37932 50.5884 3.83028C50.9958 3.45565 51.3685 3.05086 51.7027 2.62006C52.878 2.77973 54.0506 2.9521 55.2206 3.13717C55.2485 3.1027 55.2764 3.06822 55.3022 3.03194C54.1163 2.84203 52.927 2.66724 51.7345 2.50757C51.3988 2.93723 51.0262 3.3419 50.6202 3.71779C49.9692 4.26626 49.2523 4.74589 48.4831 5.14755C40.748 9.43479 31.8665 11.6949 22.8146 11.6795C21.9291 11.6795 21.0397 11.6504 20.1602 11.5706C20.4944 11.6341 20.8327 11.6958 21.169 11.752C21.7062 11.7811 22.2455 11.7901 22.7827 11.7919Z" fill="url(#paint15_linear_3687_74982)"/>
<path style="mix-blend-mode:multiply" opacity="0.19" d="M18.2141 11.2858C18.4549 11.3348 18.6957 11.3784 18.9364 11.4183C19.3344 11.4836 19.7523 11.5326 20.1622 11.5707C18.4569 11.2423 16.7596 10.8449 15.0742 10.4022C15.8244 10.6581 16.5805 10.8939 17.3486 11.0863C17.6371 11.1552 17.9256 11.2205 18.2141 11.2858Z" fill="url(#paint16_linear_3687_74982)"/>
<path style="mix-blend-mode:multiply" opacity="0.19" d="M59.788 9.50765C59.0478 9.09215 58.419 8.7456 58.3851 8.49158C58.1862 8.75285 58.9005 9.14114 59.7561 9.62015C60.1232 9.8001 60.4457 10.0472 60.7033 10.3459C60.3053 15.1457 60.044 19.9496 59.9193 24.7578H59.9471C60.0705 19.9121 60.3358 15.0688 60.7431 10.228C60.4825 9.93047 60.1573 9.68524 59.788 9.50765Z" fill="url(#paint17_linear_3687_74982)"/>
<path style="mix-blend-mode:multiply" opacity="0.19" d="M59.8831 28.1616C57.7421 27.7243 55.4936 27.5864 53.2969 27.561C44.9993 27.463 36.5148 28.6914 28.5157 26.6774C24.4645 25.6595 20.5724 23.816 16.3779 23.7852C13.4265 23.7711 10.5548 24.6576 8.21967 26.3036C6.84073 27.2816 5.54138 28.5607 4.14453 29.5405V29.6331C5.5374 28.6551 6.81884 27.3886 8.18982 26.4161C10.5249 24.7703 13.3968 23.8844 16.348 23.8995C20.5485 23.9304 24.4426 25.7738 28.4859 26.7917C36.4849 28.8057 44.9715 27.5773 53.269 27.6753C55.4578 27.7007 57.7122 27.8386 59.8533 28.2741C59.7896 33.6484 59.8971 39.0209 60.1756 44.3915L60.2114 44.377C59.9276 38.9761 59.8181 33.571 59.8831 28.1616Z" fill="url(#paint18_linear_3687_74982)"/>
<path style="mix-blend-mode:multiply" opacity="0.19" d="M33.6975 15.3266C27.1848 16.7926 20.1051 17.0702 13.9387 14.6643C10.5978 13.3597 7.66878 11.3312 4.55273 9.62565C4.11298 9.38433 3.65334 9.13757 3.17578 8.89988C3.17578 8.94524 3.18971 8.99242 3.19767 9.04141C3.65533 9.27728 4.09905 9.51497 4.52288 9.74722C7.63893 11.4528 10.5659 13.4813 13.9068 14.7859C20.0752 17.1918 27.153 16.9142 33.6657 15.4463C40.1783 13.9784 46.3109 11.3983 52.5908 9.24825C54.4652 8.60776 56.3833 7.99812 58.3811 7.88199C59.034 7.84332 59.6895 7.86642 60.3371 7.95094C60.4386 7.92917 60.5361 7.90558 60.6395 7.87836C59.9048 7.76101 59.1573 7.72385 58.4129 7.76769C56.4231 7.88381 54.495 8.49345 52.6226 9.13394C46.3427 11.2786 40.2102 13.8587 33.6975 15.3266Z" fill="url(#paint19_linear_3687_74982)"/>
<path style="mix-blend-mode:multiply" opacity="0.19" d="M3.70703 46.1897C3.70703 46.2169 3.70703 46.2442 3.70703 46.2714C4.18658 45.9974 11.2942 45.9974 11.6126 45.7071C11.6364 45.6853 11.6126 45.6599 11.5509 45.6345C10.6196 45.8867 3.72295 45.8922 3.70703 46.1897Z" fill="url(#paint20_linear_3687_74982)"/>
</g>
<g style="mix-blend-mode:screen">
<path style="mix-blend-mode:multiply" opacity="0.19" d="M4.05078 38.2932L5.11334 38.3223L39.4097 39.2803C44.0957 39.4109 49.0086 39.4998 53.1971 37.5784C53.6576 37.3943 54.0659 37.1169 54.391 36.7673C54.5555 36.57 54.6704 36.342 54.7273 36.0996C54.6632 36.2993 54.5601 36.4868 54.4229 36.653C54.0973 37.0022 53.6891 37.2795 53.229 37.4641C49.0384 39.3855 44.1276 39.2966 39.4416 39.166L5.14518 38.2061L4.05476 38.1771C4.05476 38.217 4.05277 38.2551 4.05078 38.2932Z" fill="url(#paint21_linear_3687_74982)"/>
<path style="mix-blend-mode:multiply" opacity="0.19" d="M4.41785 4.16582C4.96403 5.11949 5.70727 5.96788 6.60665 6.66428C8.44125 8.08678 10.7156 8.93956 12.9482 9.7633L13.6804 10.0318C14.1441 10.1588 14.6097 10.2822 15.0733 10.3947C14.3709 10.1552 13.6804 9.89938 12.98 9.64174C10.7474 8.82525 8.47309 7.97791 6.64246 6.54997C5.74309 5.85357 4.99985 5.00519 4.45367 4.05151C3.74915 4.51993 3.25046 5.20171 3.04688 5.9748C3.26759 5.2483 3.75063 4.61095 4.41785 4.16582Z" fill="url(#paint22_linear_3687_74982)"/>
<path style="mix-blend-mode:multiply" opacity="0.19" d="M30.6737 21.8765L22.1752 21.9836C20.4759 22.0053 18.7547 22.0235 17.1071 21.6424C14.6696 21.08 12.5803 19.6901 10.3418 18.6468C8.94783 18.0041 7.49507 17.4735 6 17.061L6.52929 17.3405C7.82816 17.722 9.09225 18.1958 10.3099 18.7575C12.5505 19.8008 14.6398 21.1907 17.0753 21.7531C18.7229 22.1341 20.446 22.116 22.1453 22.0942L30.6418 21.9872C32.944 21.9581 35.302 21.9382 37.4808 22.6077L37.648 22.5369C35.4253 21.8166 33.0177 21.8384 30.6737 21.8765Z" fill="url(#paint23_linear_3687_74982)"/>
<path style="mix-blend-mode:multiply" opacity="0.19" d="M3.96875 21.1072C4.36671 20.0058 7.33949 18.7829 7.35143 18.166C7.01913 18.8337 4.17171 20.0403 3.96875 21.1072Z" fill="url(#paint24_linear_3687_74982)"/>
<path style="mix-blend-mode:multiply" opacity="0.19" d="M42.0818 58.3463C40.7347 58.4842 39.3677 58.486 38.0425 58.74C36.5521 59.0249 35.1553 59.6218 33.8101 60.2732C33.2092 60.5635 32.6163 60.8659 32.0312 61.1804H32.2163C32.7317 60.9064 33.251 60.6361 33.7783 60.3857C35.1234 59.7325 36.5203 59.1373 38.0106 58.8525C39.3378 58.5985 40.7028 58.5967 42.0499 58.4588C46.332 58.0197 50.2798 56.2288 54.335 54.9043C56.4104 54.2257 58.6131 53.6705 60.8079 53.4818C60.8477 53.9197 60.8882 54.3582 60.9293 54.7973H60.9691C60.9253 54.3237 60.8815 53.8483 60.8397 53.3748C58.6509 53.5562 56.4423 54.1187 54.3669 54.7973C50.3097 56.1163 46.3639 57.9054 42.0818 58.3463Z" fill="url(#paint25_linear_3687_74982)"/>
<path style="mix-blend-mode:multiply" opacity="0.19" d="M58.9307 45.1518C58.8457 45.1217 58.7718 45.0701 58.7178 45.0031C58.6322 45.0774 58.6701 45.1591 58.8989 45.2661C59.3307 45.4639 59.661 45.9919 59.8938 46.5362L59.9654 46.5163C59.7366 45.9375 59.3963 45.3623 58.9307 45.1518Z" fill="url(#paint26_linear_3687_74982)"/>
<path style="mix-blend-mode:multiply" opacity="0.19" d="M60.4519 48.3978C59.6029 48.7062 58.7618 49.0334 57.9288 49.3794C56.1379 50.1233 54.4028 50.9597 52.5563 51.5694C47.8553 53.1059 42.7174 53.1193 38.0068 51.6075C34.5147 50.4753 31.3429 48.523 27.7214 47.7972C25.0849 47.2728 22.349 47.4343 19.6587 47.6539C17.7167 47.8117 15.7726 48.0004 13.8525 48.3216C10.191 48.9381 6.64599 50.0319 3.32636 51.5694C3.32636 51.6039 3.32636 51.6383 3.31641 51.6728C6.63028 50.1404 10.1685 49.0502 13.8226 48.4359C15.7408 48.1147 17.6848 47.926 19.6289 47.7682C22.3171 47.5486 25.0531 47.3872 27.6896 47.9097C31.3111 48.6355 34.4828 50.5823 37.9749 51.72C42.6856 53.2318 47.8234 53.2183 52.5244 51.6819C54.369 51.0722 56.1061 50.2303 57.8969 49.4919C58.7273 49.1459 59.5677 48.8187 60.418 48.5103C60.4598 49.1127 60.5036 49.7169 60.5494 50.3247H60.5891C60.5414 49.6806 60.4956 49.0383 60.4519 48.3978Z" fill="url(#paint27_linear_3687_74982)"/>
<path style="mix-blend-mode:multiply" opacity="0.19" d="M18.3582 42.6388C26.3429 41.3779 34.5414 41.8548 42.2857 44.0305C45.2704 44.8705 48.2551 45.9719 51.3314 46.2241C51.1291 46.1728 50.9299 46.1123 50.7344 46.0426C47.885 45.7033 45.0973 44.6945 42.3215 43.9125C34.5768 41.7386 26.3788 41.2618 18.394 42.5209C16.1018 42.8837 13.8393 43.3918 11.553 43.7909C9.40803 44.1538 7.2451 44.4296 5.07422 44.6201L5.63336 44.68C7.60725 44.4986 9.57318 44.2409 11.5232 43.9053C13.8055 43.5097 16.0659 43.0035 18.3582 42.6388Z" fill="url(#paint28_linear_3687_74982)"/>
<path style="mix-blend-mode:multiply" opacity="0.19" d="M32.4948 1.30286C32.9629 1.65984 33.4816 1.95767 34.037 2.1883C36.1442 3.07736 38.5319 1.46253 38.5319 1.46253L38.5717 1.44439C41.2368 1.56535 43.8951 1.75526 46.5469 2.01411L46.6424 1.90706C43.9694 1.64216 41.2892 1.44983 38.6016 1.33008L38.5638 1.34822C38.5638 1.34822 36.176 2.95943 34.0688 2.07399C33.5141 1.84381 32.9955 1.54727 32.5267 1.19218C24.5137 1.16244 16.5137 1.78239 8.62109 3.0447L8.75242 3.13361C16.5918 1.88585 24.537 1.27321 32.4948 1.30286Z" fill="url(#paint29_linear_3687_74982)"/>
<path style="mix-blend-mode:multiply" opacity="0.19" d="M22.7827 11.7919C31.8348 11.8082 40.7165 9.54806 48.4513 5.26004C49.2209 4.859 49.9379 4.37932 50.5884 3.83028C50.9958 3.45565 51.3685 3.05086 51.7027 2.62006C52.878 2.77973 54.0506 2.9521 55.2206 3.13717C55.2485 3.1027 55.2764 3.06822 55.3022 3.03194C54.1163 2.84203 52.927 2.66724 51.7345 2.50757C51.3988 2.93723 51.0262 3.3419 50.6202 3.71779C49.9692 4.26626 49.2523 4.74589 48.4831 5.14755C40.748 9.43479 31.8665 11.6949 22.8146 11.6795C21.9291 11.6795 21.0397 11.6504 20.1602 11.5706C20.4944 11.6341 20.8327 11.6958 21.169 11.752C21.7062 11.7811 22.2455 11.7901 22.7827 11.7919Z" fill="url(#paint30_linear_3687_74982)"/>
<path style="mix-blend-mode:multiply" opacity="0.19" d="M18.2141 11.2858C18.4549 11.3348 18.6957 11.3784 18.9364 11.4183C19.3344 11.4836 19.7523 11.5326 20.1622 11.5707C18.4569 11.2423 16.7596 10.8449 15.0742 10.4022C15.8244 10.6581 16.5805 10.8939 17.3486 11.0863C17.6371 11.1552 17.9256 11.2205 18.2141 11.2858Z" fill="url(#paint31_linear_3687_74982)"/>
<path style="mix-blend-mode:multiply" opacity="0.19" d="M59.788 9.50765C59.0478 9.09215 58.419 8.7456 58.3851 8.49158C58.1862 8.75285 58.9005 9.14114 59.7561 9.62015C60.1232 9.8001 60.4457 10.0472 60.7033 10.3459C60.3053 15.1457 60.044 19.9496 59.9193 24.7578H59.9471C60.0705 19.9121 60.3358 15.0688 60.7431 10.228C60.4825 9.93047 60.1573 9.68524 59.788 9.50765Z" fill="url(#paint32_linear_3687_74982)"/>
<path style="mix-blend-mode:multiply" opacity="0.19" d="M59.8831 28.1616C57.7421 27.7243 55.4936 27.5864 53.2969 27.561C44.9993 27.463 36.5148 28.6914 28.5157 26.6774C24.4645 25.6595 20.5724 23.816 16.3779 23.7852C13.4265 23.7711 10.5548 24.6576 8.21967 26.3036C6.84073 27.2816 5.54138 28.5607 4.14453 29.5405V29.6331C5.5374 28.6551 6.81884 27.3886 8.18982 26.4161C10.5249 24.7703 13.3968 23.8844 16.348 23.8995C20.5485 23.9304 24.4426 25.7738 28.4859 26.7917C36.4849 28.8057 44.9715 27.5773 53.269 27.6753C55.4578 27.7007 57.7122 27.8386 59.8533 28.2741C59.7896 33.6484 59.8971 39.0209 60.1756 44.3915L60.2114 44.377C59.9276 38.9761 59.8181 33.571 59.8831 28.1616Z" fill="url(#paint33_linear_3687_74982)"/>
<path style="mix-blend-mode:multiply" opacity="0.19" d="M33.6975 15.3266C27.1848 16.7926 20.1051 17.0702 13.9387 14.6643C10.5978 13.3597 7.66878 11.3312 4.55273 9.62565C4.11298 9.38433 3.65334 9.13757 3.17578 8.89988C3.17578 8.94524 3.18971 8.99242 3.19767 9.04141C3.65533 9.27728 4.09905 9.51497 4.52288 9.74722C7.63893 11.4528 10.5659 13.4813 13.9068 14.7859C20.0752 17.1918 27.153 16.9142 33.6657 15.4463C40.1783 13.9784 46.3109 11.3983 52.5908 9.24825C54.4652 8.60776 56.3833 7.99812 58.3811 7.88199C59.034 7.84332 59.6895 7.86642 60.3371 7.95094C60.4386 7.92917 60.5361 7.90558 60.6395 7.87836C59.9048 7.76101 59.1573 7.72385 58.4129 7.76769C56.4231 7.88381 54.495 8.49345 52.6226 9.13394C46.3427 11.2786 40.2102 13.8587 33.6975 15.3266Z" fill="url(#paint34_linear_3687_74982)"/>
<path style="mix-blend-mode:multiply" opacity="0.19" d="M3.70703 46.1897C3.70703 46.2169 3.70703 46.2442 3.70703 46.2714C4.18658 45.9974 11.2942 45.9974 11.6126 45.7071C11.6364 45.6853 11.6126 45.6599 11.5509 45.6345C10.6196 45.8867 3.72295 45.8922 3.70703 46.1897Z" fill="url(#paint35_linear_3687_74982)"/>
</g>
<path style="mix-blend-mode:screen" opacity="0.19" d="M39.2506 8.40275C42.3408 9.11582 45.7195 8.51162 48.6962 9.55309C53.3603 11.1843 55.4297 16.4624 54.6338 20.9694C53.8379 25.4764 50.893 29.3684 48.0674 33.126C45.2419 36.8837 42.3646 40.85 41.7558 45.3733C41.0812 50.3648 43.1009 56.0349 39.8495 60.0955C39.583 60.427 39.2876 60.7383 38.966 61.0263C45.4823 60.7222 51.9656 59.986 58.3647 58.8236C60.0501 58.5732 61.1723 56.904 61.037 55.4252C60.7996 52.9758 60.6006 50.5239 60.4401 48.0696C60.4401 48.0696 60.0023 45.6437 58.9497 45.1665C58.2433 44.8417 59.3616 44.7347 60.2212 44.3917C59.6261 33.0139 59.8016 21.6134 60.7465 10.2553C60.4888 9.95657 60.1664 9.70951 59.7994 9.52951C58.7209 8.92349 57.8792 8.46626 58.7686 8.22494C59.3337 8.07253 60.257 8.07616 60.9574 7.78404C60.9833 7.51369 61.0072 7.23971 61.033 6.97118C61.1684 5.49242 60.0381 3.82316 58.3607 3.57458C51.845 2.39032 45.242 1.6486 38.6059 1.35555L38.5681 1.37369C38.5681 1.37369 36.1803 2.9849 34.0731 2.09946C33.5161 1.86154 32.9968 1.5564 32.529 1.19225C23.5109 1.15762 14.5117 1.94782 5.66654 3.551C4.04086 3.86489 2.7833 5.43073 2.99621 6.94759C3.05392 7.54816 3.10764 8.14873 3.16137 8.75112C3.233 9.21198 3.32055 9.76901 3.41407 10.366C3.88231 10.181 4.37142 10.0434 4.87261 9.95589C6.22369 9.72002 7.6265 9.87243 8.98754 9.72002C11.4688 9.42971 13.6536 8.15236 15.8743 7.1C20.61 4.85738 26.2571 3.55281 31.2893 5.1749C34.0393 6.05308 36.431 7.75319 39.2506 8.40275Z" fill="url(#paint36_linear_3687_74982)"/>
<path style="mix-blend-mode:screen" opacity="0.19" d="M59.2961 24.5656C59.115 28.775 59.4434 32.9809 59.9368 37.1758C59.7246 28.1932 59.9899 19.2149 60.7328 10.2408C60.4751 9.94206 60.1527 9.69499 59.7856 9.51499C58.7071 8.90897 57.8654 8.45174 58.7549 8.21042C59.32 8.05801 60.2433 8.06164 60.9437 7.76952C60.9695 7.49917 60.9934 7.22519 61.0193 6.95666C61.1546 5.47791 60.0244 3.80864 58.347 3.56007C51.8313 2.3758 45.2282 1.63409 38.5921 1.34104L38.5543 1.35918C38.5543 1.35918 36.1665 2.97038 34.0593 2.08495C33.5081 1.85054 32.9936 1.55035 32.5292 1.19225C23.5111 1.15762 14.5119 1.94782 5.66671 3.551C4.22808 3.8286 3.07996 5.08599 2.98047 6.42322C4.00779 5.6642 5.21287 5.13092 6.50244 4.86464C8.15995 4.55074 9.88512 4.77936 11.5645 4.56344C13.2439 4.34753 14.7741 3.70885 16.3699 3.24255C20.451 2.04684 24.8127 1.99604 29.1047 1.95431C30.613 1.93979 32.1551 1.92891 33.5878 2.35711C34.3061 2.57121 34.9906 2.90144 35.7328 3.01756C36.8749 3.199 38.035 2.90688 39.1672 2.68008C43.6825 1.78525 48.3797 2.02735 52.7556 3.38044C53.4853 3.63099 54.2285 3.84779 54.9822 4.03C55.6408 4.1679 56.3134 4.22596 56.984 4.30398C57.8217 4.40014 58.6872 4.53441 59.3916 4.96261C60.096 5.39082 60.5955 6.19098 60.3746 6.93489C59.6854 7.08279 59.075 7.44661 58.6499 7.9629C58.2248 8.47919 58.012 9.11518 58.0485 9.75994C58.1002 10.3496 58.3649 10.903 58.5858 11.46C60.2154 15.6042 59.4871 20.1638 59.2961 24.5656Z" fill="url(#paint37_linear_3687_74982)"/>
<path style="mix-blend-mode:screen" opacity="0.33" d="M46.7656 17.4874C47.8766 17.4874 48.7773 16.6661 48.7773 15.653C48.7773 14.6399 47.8766 13.8186 46.7656 13.8186C45.6546 13.8186 44.7539 14.6399 44.7539 15.653C44.7539 16.6661 45.6546 17.4874 46.7656 17.4874Z" fill="url(#paint38_linear_3687_74982)"/>
<path d="M46.7656 17.7215C47.8766 17.7215 48.7773 16.9002 48.7773 15.8871C48.7773 14.874 47.8766 14.0527 46.7656 14.0527C45.6546 14.0527 44.7539 14.874 44.7539 15.8871C44.7539 16.9002 45.6546 17.7215 46.7656 17.7215Z" fill="#CA7C41"/>
<path style="mix-blend-mode:screen" opacity="0.33" d="M15.0742 54.5632C16.1852 54.5632 17.0859 53.7419 17.0859 52.7288C17.0859 51.7157 16.1852 50.8944 15.0742 50.8944C13.9632 50.8944 13.0625 51.7157 13.0625 52.7288C13.0625 53.7419 13.9632 54.5632 15.0742 54.5632Z" fill="url(#paint39_linear_3687_74982)"/>
<path d="M15.0742 54.7972C16.1852 54.7972 17.0859 53.9759 17.0859 52.9628C17.0859 51.9497 16.1852 51.1284 15.0742 51.1284C13.9632 51.1284 13.0625 51.9497 13.0625 52.9628C13.0625 53.9759 13.9632 54.7972 15.0742 54.7972Z" fill="#CA7C41"/>
<path style="mix-blend-mode:screen" opacity="0.33" d="M23.4408 49.0855C24.2431 49.0855 24.8934 48.4924 24.8934 47.7609C24.8934 47.0294 24.2431 46.4364 23.4408 46.4364C22.6386 46.4364 21.9883 47.0294 21.9883 47.7609C21.9883 48.4924 22.6386 49.0855 23.4408 49.0855Z" fill="url(#paint40_linear_3687_74982)"/>
<path d="M23.4408 49.256C24.2431 49.256 24.8934 48.663 24.8934 47.9315C24.8934 47.1999 24.2431 46.6069 23.4408 46.6069C22.6386 46.6069 21.9883 47.1999 21.9883 47.9315C21.9883 48.663 22.6386 49.256 23.4408 49.256Z" fill="#CA7C41"/>
<path style="mix-blend-mode:screen" opacity="0.33" d="M17.4179 31.139C18.529 31.139 19.4296 30.3177 19.4296 29.3046C19.4296 28.2915 18.529 27.4702 17.4179 27.4702C16.3069 27.4702 15.4062 28.2915 15.4062 29.3046C15.4062 30.3177 16.3069 31.139 17.4179 31.139Z" fill="url(#paint41_linear_3687_74982)"/>
<path d="M17.4179 31.3749C18.529 31.3749 19.4296 30.5537 19.4296 29.5406C19.4296 28.5275 18.529 27.7062 17.4179 27.7062C16.3069 27.7062 15.4062 28.5275 15.4062 29.5406C15.4062 30.5537 16.3069 31.3749 17.4179 31.3749Z" fill="#CA7C41"/>
<path style="mix-blend-mode:screen" opacity="0.33" d="M12.6422 26.4669C13.2752 26.4669 13.7884 25.999 13.7884 25.4218C13.7884 24.8446 13.2752 24.3767 12.6422 24.3767C12.0092 24.3767 11.4961 24.8446 11.4961 25.4218C11.4961 25.999 12.0092 26.4669 12.6422 26.4669Z" fill="url(#paint42_linear_3687_74982)"/>
<path d="M12.6422 26.6012C13.2752 26.6012 13.7884 26.1333 13.7884 25.5561C13.7884 24.9789 13.2752 24.511 12.6422 24.511C12.0092 24.511 11.4961 24.9789 11.4961 25.5561C11.4961 26.1333 12.0092 26.6012 12.6422 26.6012Z" fill="#CA7C41"/>
<path style="mix-blend-mode:screen" opacity="0.33" d="M47.2086 30.2827C47.8416 30.2827 48.3548 29.8148 48.3548 29.2376C48.3548 28.6604 47.8416 28.1925 47.2086 28.1925C46.5756 28.1925 46.0625 28.6604 46.0625 29.2376C46.0625 29.8148 46.5756 30.2827 47.2086 30.2827Z" fill="url(#paint43_linear_3687_74982)"/>
<path d="M47.2086 30.4169C47.8416 30.4169 48.3548 29.949 48.3548 29.3718C48.3548 28.7946 47.8416 28.3267 47.2086 28.3267C46.5756 28.3267 46.0625 28.7946 46.0625 29.3718C46.0625 29.949 46.5756 30.4169 47.2086 30.4169Z" fill="#CA7C41"/>
<path style="mix-blend-mode:screen" opacity="0.33" d="M25.2854 6.49191C25.7019 6.49191 26.0395 6.18403 26.0395 5.80424C26.0395 5.42445 25.7019 5.11658 25.2854 5.11658C24.8689 5.11658 24.5312 5.42445 24.5312 5.80424C24.5312 6.18403 24.8689 6.49191 25.2854 6.49191Z" fill="url(#paint44_linear_3687_74982)"/>
<path d="M25.2854 6.57906C25.7019 6.57906 26.0395 6.27119 26.0395 5.8914C26.0395 5.51161 25.7019 5.20374 25.2854 5.20374C24.8689 5.20374 24.5312 5.51161 24.5312 5.8914C24.5312 6.27119 24.8689 6.57906 25.2854 6.57906Z" fill="#CA7C41"/>
<g clip-path="url(#clip0_3687_74982)">
<path d="M35.4392 29.1729L48.8891 13.5385H45.7019L34.0234 27.1136L24.6958 13.5385H13.9375L28.0427 34.0665L13.9375 50.4615H17.1249L29.4577 36.1257L39.3083 50.4615H50.0666L35.4385 29.1729H35.4392ZM31.0737 34.2473L29.6446 32.2032L18.2733 15.9378H23.1689L32.3457 29.0645L33.7748 31.1086L45.7034 48.1712H40.8078L31.0737 34.2481V34.2473Z" fill="#783113"/>
</g>
<defs>
<linearGradient id="paint0_linear_3687_74982" x1="32.002" y1="0.531625" x2="32.002" y2="65.1902" gradientUnits="userSpaceOnUse">
<stop stop-color="#D37D42"/>
<stop offset="1" stop-color="#89340F"/>
</linearGradient>
<linearGradient id="paint1_linear_3687_74982" x1="32.0033" y1="0.640583" x2="32.0033" y2="65.1867" gradientUnits="userSpaceOnUse">
<stop stop-color="#E7A762"/>
<stop offset="1" stop-color="#B24E17"/>
</linearGradient>
<linearGradient id="paint2_linear_3687_74982" x1="31.9412" y1="1.29563" x2="31.9412" y2="63.0965" gradientUnits="userSpaceOnUse">
<stop stop-color="#E7A762"/>
<stop offset="1" stop-color="#B24E17"/>
</linearGradient>
<linearGradient id="paint3_linear_3687_74982" x1="32.004" y1="1.85623" x2="32.004" y2="62.4669" gradientUnits="userSpaceOnUse">
<stop stop-color="#E7B25B"/>
<stop offset="1" stop-color="#DB9A5B"/>
</linearGradient>
<linearGradient id="paint4_linear_3687_74982" x1="32.0038" y1="1.68577" x2="32.0038" y2="62.2964" gradientUnits="userSpaceOnUse">
<stop stop-color="#DE9D49"/>
<stop offset="1" stop-color="#CE8349"/>
</linearGradient>
<linearGradient id="paint5_linear_3687_74982" x1="31.97" y1="-3.82468" x2="31.97" y2="65.5042" gradientUnits="userSpaceOnUse">
<stop stop-color="#DE9D49"/>
<stop offset="1" stop-color="#CE8349"/>
</linearGradient>
<linearGradient id="paint6_linear_3687_74982" x1="29.393" y1="35.8274" x2="29.393" y2="39.5724" gradientUnits="userSpaceOnUse">
<stop stop-color="#DE9D49"/>
<stop offset="1" stop-color="#CE8349"/>
</linearGradient>
<linearGradient id="paint7_linear_3687_74982" x1="9.05809" y1="3.51989" x2="9.05809" y2="10.861" gradientUnits="userSpaceOnUse">
<stop stop-color="#DE9D49"/>
<stop offset="1" stop-color="#CE8349"/>
</linearGradient>
<linearGradient id="paint8_linear_3687_74982" x1="21.823" y1="16.5965" x2="21.823" y2="23.0014" gradientUnits="userSpaceOnUse">
<stop stop-color="#DE9D49"/>
<stop offset="1" stop-color="#CE8349"/>
</linearGradient>
<linearGradient id="paint9_linear_3687_74982" x1="5.66009" y1="17.9211" x2="5.66009" y2="21.3195" gradientUnits="userSpaceOnUse">
<stop stop-color="#DE9D49"/>
<stop offset="1" stop-color="#CE8349"/>
</linearGradient>
<linearGradient id="paint10_linear_3687_74982" x1="46.5012" y1="52.7143" x2="46.5012" y2="61.7429" gradientUnits="userSpaceOnUse">
<stop stop-color="#DE9D49"/>
<stop offset="1" stop-color="#CE8349"/>
</linearGradient>
<linearGradient id="paint11_linear_3687_74982" x1="59.3307" y1="44.8742" x2="59.3307" y2="46.6524" gradientUnits="userSpaceOnUse">
<stop stop-color="#DE9D49"/>
<stop offset="1" stop-color="#CE8349"/>
</linearGradient>
<linearGradient id="paint12_linear_3687_74982" x1="31.9538" y1="47.0007" x2="31.9538" y2="53.235" gradientUnits="userSpaceOnUse">
<stop stop-color="#DE9D49"/>
<stop offset="1" stop-color="#CE8349"/>
</linearGradient>
<linearGradient id="paint13_linear_3687_74982" x1="28.1998" y1="41.4703" x2="28.1998" y2="46.5398" gradientUnits="userSpaceOnUse">
<stop stop-color="#DE9D49"/>
<stop offset="1" stop-color="#CE8349"/>
</linearGradient>
<linearGradient id="paint14_linear_3687_74982" x1="27.6318" y1="1.02526" x2="27.6318" y2="3.27332" gradientUnits="userSpaceOnUse">
<stop stop-color="#DE9D49"/>
<stop offset="1" stop-color="#CE8349"/>
</linearGradient>
<linearGradient id="paint15_linear_3687_74982" x1="37.7302" y1="1.72918" x2="37.7302" y2="12.4615" gradientUnits="userSpaceOnUse">
<stop stop-color="#DE9D49"/>
<stop offset="1" stop-color="#CE8349"/>
</linearGradient>
<linearGradient id="paint16_linear_3687_74982" x1="17.6192" y1="10.3061" x2="17.6192" y2="11.6542" gradientUnits="userSpaceOnUse">
<stop stop-color="#DE9D49"/>
<stop offset="1" stop-color="#CE8349"/>
</linearGradient>
<linearGradient id="paint17_linear_3687_74982" x1="59.5432" y1="7.13258" x2="59.5432" y2="25.9445" gradientUnits="userSpaceOnUse">
<stop stop-color="#DE9D49"/>
<stop offset="1" stop-color="#CE8349"/>
</linearGradient>
<linearGradient id="paint18_linear_3687_74982" x1="32.177" y1="22.0633" x2="32.177" y2="45.8757" gradientUnits="userSpaceOnUse">
<stop stop-color="#DE9D49"/>
<stop offset="1" stop-color="#CE8349"/>
</linearGradient>
<linearGradient id="paint19_linear_3687_74982" x1="31.9067" y1="7.00563" x2="31.9067" y2="17.2008" gradientUnits="userSpaceOnUse">
<stop stop-color="#DE9D49"/>
<stop offset="1" stop-color="#CE8349"/>
</linearGradient>
<linearGradient id="paint20_linear_3687_74982" x1="7.6588" y1="45.5746" x2="7.6588" y2="46.3113" gradientUnits="userSpaceOnUse">
<stop stop-color="#DE9D49"/>
<stop offset="1" stop-color="#CE8349"/>
</linearGradient>
<linearGradient id="paint21_linear_3687_74982" x1="29.393" y1="35.8274" x2="29.393" y2="39.5724" gradientUnits="userSpaceOnUse">
<stop stop-color="#DE9D49"/>
<stop offset="1" stop-color="#CE8349"/>
</linearGradient>
<linearGradient id="paint22_linear_3687_74982" x1="9.05809" y1="3.51989" x2="9.05809" y2="10.861" gradientUnits="userSpaceOnUse">
<stop stop-color="#DE9D49"/>
<stop offset="1" stop-color="#CE8349"/>
</linearGradient>
<linearGradient id="paint23_linear_3687_74982" x1="21.823" y1="16.5965" x2="21.823" y2="23.0014" gradientUnits="userSpaceOnUse">
<stop stop-color="#DE9D49"/>
<stop offset="1" stop-color="#CE8349"/>
</linearGradient>
<linearGradient id="paint24_linear_3687_74982" x1="5.66009" y1="17.9211" x2="5.66009" y2="21.3195" gradientUnits="userSpaceOnUse">
<stop stop-color="#DE9D49"/>
<stop offset="1" stop-color="#CE8349"/>
</linearGradient>
<linearGradient id="paint25_linear_3687_74982" x1="46.5012" y1="52.7143" x2="46.5012" y2="61.7429" gradientUnits="userSpaceOnUse">
<stop stop-color="#DE9D49"/>
<stop offset="1" stop-color="#CE8349"/>
</linearGradient>
<linearGradient id="paint26_linear_3687_74982" x1="59.3307" y1="44.8742" x2="59.3307" y2="46.6524" gradientUnits="userSpaceOnUse">
<stop stop-color="#DE9D49"/>
<stop offset="1" stop-color="#CE8349"/>
</linearGradient>
<linearGradient id="paint27_linear_3687_74982" x1="31.9538" y1="47.0007" x2="31.9538" y2="53.235" gradientUnits="userSpaceOnUse">
<stop stop-color="#DE9D49"/>
<stop offset="1" stop-color="#CE8349"/>
</linearGradient>
<linearGradient id="paint28_linear_3687_74982" x1="28.1998" y1="41.4703" x2="28.1998" y2="46.5398" gradientUnits="userSpaceOnUse">
<stop stop-color="#DE9D49"/>
<stop offset="1" stop-color="#CE8349"/>
</linearGradient>
<linearGradient id="paint29_linear_3687_74982" x1="27.6318" y1="1.02526" x2="27.6318" y2="3.27332" gradientUnits="userSpaceOnUse">
<stop stop-color="#DE9D49"/>
<stop offset="1" stop-color="#CE8349"/>
</linearGradient>
<linearGradient id="paint30_linear_3687_74982" x1="37.7302" y1="1.72918" x2="37.7302" y2="12.4615" gradientUnits="userSpaceOnUse">
<stop stop-color="#DE9D49"/>
<stop offset="1" stop-color="#CE8349"/>
</linearGradient>
<linearGradient id="paint31_linear_3687_74982" x1="17.6192" y1="10.3061" x2="17.6192" y2="11.6542" gradientUnits="userSpaceOnUse">
<stop stop-color="#DE9D49"/>
<stop offset="1" stop-color="#CE8349"/>
</linearGradient>
<linearGradient id="paint32_linear_3687_74982" x1="59.5432" y1="7.13258" x2="59.5432" y2="25.9445" gradientUnits="userSpaceOnUse">
<stop stop-color="#DE9D49"/>
<stop offset="1" stop-color="#CE8349"/>
</linearGradient>
<linearGradient id="paint33_linear_3687_74982" x1="32.177" y1="22.0633" x2="32.177" y2="45.8757" gradientUnits="userSpaceOnUse">
<stop stop-color="#DE9D49"/>
<stop offset="1" stop-color="#CE8349"/>
</linearGradient>
<linearGradient id="paint34_linear_3687_74982" x1="31.9067" y1="7.00563" x2="31.9067" y2="17.2008" gradientUnits="userSpaceOnUse">
<stop stop-color="#DE9D49"/>
<stop offset="1" stop-color="#CE8349"/>
</linearGradient>
<linearGradient id="paint35_linear_3687_74982" x1="7.6588" y1="45.5746" x2="7.6588" y2="46.3113" gradientUnits="userSpaceOnUse">
<stop stop-color="#DE9D49"/>
<stop offset="1" stop-color="#CE8349"/>
</linearGradient>
<linearGradient id="paint36_linear_3687_74982" x1="32.0037" y1="-3.8101" x2="32.0037" y2="65.3301" gradientUnits="userSpaceOnUse">
<stop stop-color="#DE9D49"/>
<stop offset="1" stop-color="#CE8349"/>
</linearGradient>
<linearGradient id="paint37_linear_3687_74982" x1="32.0078" y1="-1.81787" x2="32.0078" y2="39.7686" gradientUnits="userSpaceOnUse">
<stop stop-color="#DE9D49"/>
<stop offset="1" stop-color="#CE8349"/>
</linearGradient>
<linearGradient id="paint38_linear_3687_74982" x1="46.7656" y1="13.7351" x2="46.7656" y2="17.9119" gradientUnits="userSpaceOnUse">
<stop stop-color="#DE9D49"/>
<stop offset="1" stop-color="#CE8349"/>
</linearGradient>
<linearGradient id="paint39_linear_3687_74982" x1="15.0742" y1="50.8109" x2="15.0742" y2="54.9877" gradientUnits="userSpaceOnUse">
<stop stop-color="#DE9D49"/>
<stop offset="1" stop-color="#CE8349"/>
</linearGradient>
<linearGradient id="paint40_linear_3687_74982" x1="23.4408" y1="46.3783" x2="23.4408" y2="49.3921" gradientUnits="userSpaceOnUse">
<stop stop-color="#DE9D49"/>
<stop offset="1" stop-color="#CE8349"/>
</linearGradient>
<linearGradient id="paint41_linear_3687_74982" x1="17.4179" y1="27.3886" x2="17.4179" y2="31.5635" gradientUnits="userSpaceOnUse">
<stop stop-color="#DE9D49"/>
<stop offset="1" stop-color="#CE8349"/>
</linearGradient>
<linearGradient id="paint42_linear_3687_74982" x1="12.6422" y1="24.3295" x2="12.6422" y2="26.7119" gradientUnits="userSpaceOnUse">
<stop stop-color="#DE9D49"/>
<stop offset="1" stop-color="#CE8349"/>
</linearGradient>
<linearGradient id="paint43_linear_3687_74982" x1="47.2086" y1="28.1453" x2="47.2086" y2="30.5277" gradientUnits="userSpaceOnUse">
<stop stop-color="#DE9D49"/>
<stop offset="1" stop-color="#CE8349"/>
</linearGradient>
<linearGradient id="paint44_linear_3687_74982" x1="25.2854" y1="5.08392" x2="25.2854" y2="6.65157" gradientUnits="userSpaceOnUse">
<stop stop-color="#DE9D49"/>
<stop offset="1" stop-color="#CE8349"/>
</linearGradient>
<clipPath id="clip0_3687_74982">
<rect width="36.9231" height="36.9231" fill="white" transform="translate(13.5391 13.5385)"/>
</clipPath>
</defs>
</svg>
