<svg width="24" height="24" viewBox="0 0 24 24" fill="none" xmlns="http://www.w3.org/2000/svg">
<path d="M13.9472 0.878849C13.6688 0.746049 13.3408 0.781249 13.1008 0.974849L5.3184 7.20045H1.6C0.7184 7.20045 0 7.91885 0 8.80045V15.2004C0 16.0836 0.7184 16.8004 1.6 16.8004H5.3184L13.0992 23.0261C13.2418 23.1389 13.4182 23.2003 13.6 23.2005C13.7184 23.2005 13.8368 23.1733 13.9472 23.1205C14.0829 23.0553 14.1973 22.9532 14.2775 22.8258C14.3576 22.6984 14.4001 22.5509 14.4 22.4004V1.60045C14.3999 1.44979 14.3573 1.30222 14.2773 1.17461C14.1972 1.04699 14.0828 0.944499 13.9472 0.878849ZM18.4496 6.34285C18.1344 6.03245 17.6288 6.03725 17.3184 6.34925C17.008 6.66445 17.0112 7.17005 17.3248 7.48205C18.5344 8.67565 19.2 10.2804 19.2 12.0005C19.2 13.7205 18.5344 15.3253 17.3248 16.5189C17.0112 16.8277 17.008 17.3349 17.3184 17.6501C17.3927 17.7252 17.4811 17.7848 17.5786 17.8255C17.6761 17.8661 17.7808 17.887 17.8864 17.8869C18.0896 17.8869 18.2928 17.81 18.4496 17.6549C19.9664 16.162 20.8 14.1525 20.8 12.0005C20.8 9.84845 19.9664 7.83885 18.4496 6.34285Z" fill="#8C4F28"/>
<path d="M20.7073 4.08845C20.3921 3.77645 19.8865 3.77965 19.5745 4.09325C19.2641 4.40685 19.2673 4.91405 19.5793 5.22445C21.3985 7.02765 22.4001 9.43405 22.4001 12.0004C22.4001 14.5668 21.3985 16.9716 19.5793 18.7748C19.2673 19.0868 19.2641 19.594 19.5745 19.9076C19.7329 20.0644 19.9377 20.1428 20.1425 20.1428C20.3457 20.1428 20.5505 20.066 20.7073 19.9108C22.8321 17.8068 24.0001 14.9972 24.0001 12.0004C24.0001 9.00365 22.8321 6.19405 20.7073 4.08845Z" fill="#8C4F28"/>
</svg>
