<svg width="114" height="34" viewBox="0 0 114 34" fill="none" xmlns="http://www.w3.org/2000/svg">
<path fill-rule="evenodd" clip-rule="evenodd" d="M100.28 28.7381L91.924 32.0643L109.039 26.9539C107.2 29.2073 105.136 31.268 102.88 33.1043H11.9327C11.9327 33.1043 1.29951 27.1601 0.734679 18.3738C0.690003 17.8129 0.690003 17.2492 0.734679 16.6883L0.931923 16.6076L6.58026 14.4648L2.32159 12.4117L2.0078 12.2593C3.55885 9.07646 6.63406 5.6516 11.9327 2.11914L12.901 2.2088C19.8673 2.86329 63.0457 6.44954 100.28 3.27571C100.28 3.27571 119.708 9.91923 110.824 24.4256L100.28 28.7381Z" fill="url(#paint0_linear_958_4051)"/>
<path fill-rule="evenodd" clip-rule="evenodd" d="M100.28 3.26697L97.7067 0.173828L45.2309 2.11937L15.4292 0.173828L11.9326 2.11937C11.9326 2.11937 61.638 7.62426 100.28 3.26697Z" fill="#FF8B3E"/>
<path fill-rule="evenodd" clip-rule="evenodd" d="M113.145 16.8499C113.145 16.8499 114.634 6.79046 97.7065 0.173828L100.28 3.26697C100.28 3.26697 112.572 7.89323 113.145 16.8499Z" fill="#EC7034"/>
<path fill-rule="evenodd" clip-rule="evenodd" d="M0.752433 16.6884L0.949676 16.6077C0.839397 17.2001 0.767522 17.7991 0.734501 18.4008C0.734501 18.5353 0.734501 18.6698 0.734501 18.8132C0.671833 18.1213 0.671833 17.4251 0.734501 16.7332L0.752433 16.6884Z" fill="#EC7034"/>
<path fill-rule="evenodd" clip-rule="evenodd" d="M15.4291 0.173828L12.9008 2.20902C12.9008 2.20902 5.63865 5.62493 2.32137 12.4119L2.00758 12.2595L1.68481 12.1071C3.17311 7.95599 6.78625 2.86351 15.4291 0.173828Z" fill="#EC7034"/>
<path fill-rule="evenodd" clip-rule="evenodd" d="M95.1694 3.89433H101.822L99.3205 2.11914L95.1694 3.89433Z" fill="#E06834"/>
<path fill-rule="evenodd" clip-rule="evenodd" d="M10.0676 3.89454L15.9042 2.55866L13.2146 1.4021L10.0676 3.89454Z" fill="#E06834"/>
<path fill-rule="evenodd" clip-rule="evenodd" d="M0.949707 16.6077L3.64836 13.0483L6.59805 14.4649L0.949707 16.6077Z" fill="#FF8B3E"/>
<path fill-rule="evenodd" clip-rule="evenodd" d="M109.039 26.9542L107.623 25.7349L91.9238 32.0646L109.039 26.9542Z" fill="#FF8B3E"/>
<g style="mix-blend-mode:multiply" opacity="0.2">
<path fill-rule="evenodd" clip-rule="evenodd" d="M11.9326 33.1044C11.9326 33.1044 22.7452 14.8324 56.7607 4.84473L64.5787 4.94335C64.5787 4.94335 31.3163 9.38133 15.9134 33.1044H11.9326Z" fill="url(#paint1_linear_958_4051)"/>
<path fill-rule="evenodd" clip-rule="evenodd" d="M18.3967 33.1041C18.3967 33.1041 39.9142 11.4342 70.7201 4.94312H80.5823C80.5823 4.94312 36.5342 12.0349 28.5906 33.1041H18.3967Z" fill="url(#paint2_linear_958_4051)"/>
<path fill-rule="evenodd" clip-rule="evenodd" d="M48.5752 23.9863C48.5752 23.9863 55.9091 13.891 66.5064 13.9717C66.5333 13.9717 63.0188 23.5739 48.5752 23.9863Z" fill="url(#paint3_linear_958_4051)"/>
<path fill-rule="evenodd" clip-rule="evenodd" d="M23.0858 3.00684C23.0858 3.00684 6.85803 13.4697 5.93457 28.4423L7.72769 30.092C7.72769 30.092 5.3787 14.7249 24.09 3.0696L23.0858 3.00684Z" fill="url(#paint4_linear_958_4051)"/>
<path fill-rule="evenodd" clip-rule="evenodd" d="M54.9767 33.104C54.9767 33.104 77.3459 21.8611 88.6874 4.27954L86.6522 4.39609C86.6522 4.39609 77.9466 22.9549 51.0049 33.0861L54.9767 33.104Z" fill="url(#paint5_linear_958_4051)"/>
<path fill-rule="evenodd" clip-rule="evenodd" d="M61.4856 33.1041C61.4856 33.1041 92.3542 12.2142 103.947 4.94312C106.101 6.35141 108.11 7.97018 109.945 9.77558C109.945 9.77558 82.3755 22.0764 74.5485 33.0862L61.4856 33.1041Z" fill="url(#paint6_linear_958_4051)"/>
<path fill-rule="evenodd" clip-rule="evenodd" d="M79.3273 30.9525C79.3273 30.9525 78.9955 26.407 93.9143 20.0234C93.9143 20.0234 84.7335 24.4256 79.3273 30.9525Z" fill="url(#paint7_linear_958_4051)"/>
<path fill-rule="evenodd" clip-rule="evenodd" d="M112.796 14.8323L82.2053 33.1042H85.5047L113.146 16.8495L112.796 14.8323Z" fill="url(#paint8_linear_958_4051)"/>
</g>
<path fill-rule="evenodd" clip-rule="evenodd" d="M30.6975 3.69727L43.079 5.70556L71.4373 4.94349L46.7549 3.89451L30.6975 3.69727Z" fill="#E06834"/>
<path fill-rule="evenodd" clip-rule="evenodd" d="M80.5823 4.94349L93.3762 4.28003L98.0025 4.94349L104.09 5.70556L111.056 11.1836L108.116 7.7318L101.822 3.89451L95.6266 3.69727L80.5823 4.94349Z" fill="#B64034"/>
<path fill-rule="evenodd" clip-rule="evenodd" d="M3.00293 11.1566L8.56161 5.32L12.9817 4.27999L21.6066 3.32964L31.2088 3.69723L15.9134 2.55859L10.0678 3.89447L6.59814 6.69174C6.59814 6.69174 3.90846 9.06764 3.00293 11.1566Z" fill="#B64034"/>
<path opacity="0.4" fill-rule="evenodd" clip-rule="evenodd" d="M58.1326 31.374C67.8301 26.1404 76.4993 19.1935 83.7205 10.8696C77.0224 19.7196 68.2295 26.7656 58.1326 31.374Z" fill="#D9772F"/>
<path opacity="0.4" fill-rule="evenodd" clip-rule="evenodd" d="M29.021 32.0645C29.021 32.0645 36.8928 15.1912 74.8891 6.06421C74.8891 6.08214 39.3853 12.7257 29.021 32.0645Z" fill="#D9772F"/>
<path opacity="0.4" fill-rule="evenodd" clip-rule="evenodd" d="M15.9133 33.1045C15.9133 33.1045 29.6756 12.5374 62.6152 5.18555C62.6152 5.18555 35.8439 7.50764 15.9133 33.1045Z" fill="#D9772F"/>
<path opacity="0.4" fill-rule="evenodd" clip-rule="evenodd" d="M7.74561 26.2727C7.74561 26.2727 8.47182 13.4339 23.5699 3.40137C23.5699 3.40137 10.4712 8.97798 7.74561 26.2727Z" fill="#D9772F"/>
<path fill-rule="evenodd" clip-rule="evenodd" d="M6.59814 14.4648H18.0024L63.7091 16.5449L10.9106 15.0028L6.59814 14.4648Z" fill="#7A1C34"/>
<path fill-rule="evenodd" clip-rule="evenodd" d="M10.9104 15.0029L14.3084 15.5409H22.0188L10.9104 15.0029Z" fill="#FF6F48"/>
<path fill-rule="evenodd" clip-rule="evenodd" d="M11.9326 33.1044L38.9281 31.7057L57.9083 33.1044L76.1982 32.4051L79.3272 30.9526L76.7272 33.1044H11.9326Z" fill="#7A1C34"/>
<path fill-rule="evenodd" clip-rule="evenodd" d="M88.2749 33.1045L91.9239 32.0645L90.4625 33.1045H88.2749Z" fill="#7A1C34"/>
<path fill-rule="evenodd" clip-rule="evenodd" d="M24.852 30.0922L20.5664 25.7349L24.0899 28.0839L24.852 30.0922Z" fill="#7A1C34"/>
<path fill-rule="evenodd" clip-rule="evenodd" d="M69.8503 31.0693L81.2098 28.8997L73.9118 30.9528L69.8503 31.0693Z" fill="#7A1C34"/>
<path fill-rule="evenodd" clip-rule="evenodd" d="M30.6976 2.11914L27.2817 3.40122L29.0211 6.08194L29.3169 3.40122L30.6976 2.11914Z" fill="#892334"/>
<path fill-rule="evenodd" clip-rule="evenodd" d="M29.021 6.08214L28.2769 4.94351L29.2631 3.89453L29.021 6.08214Z" fill="#FF8B3E"/>
<path fill-rule="evenodd" clip-rule="evenodd" d="M76.8257 13.0483L82.2051 17.6118L79.3271 16.1325L76.8257 13.0483Z" fill="#892334"/>
<path fill-rule="evenodd" clip-rule="evenodd" d="M69.8503 31.0693L73.9118 30.9528L81.2098 28.8997L73.5442 30.6838L69.8503 31.0693Z" fill="#FF8B3E"/>
<path fill-rule="evenodd" clip-rule="evenodd" d="M20.5664 25.7349L22.7092 28.3977L24.852 30.0922L20.5664 25.7349Z" fill="#FF6F48"/>
<g style="mix-blend-mode:soft-light">
<path fill-rule="evenodd" clip-rule="evenodd" d="M78.6008 4.75512L76.198 0.971629L93.8872 0.317139L95.1693 3.89442L78.6008 4.75512Z" fill="#FCCA70"/>
</g>
<g style="mix-blend-mode:soft-light">
<path fill-rule="evenodd" clip-rule="evenodd" d="M17.3387 2.64834L19.0243 0.406934L15.4291 0.173828L13.6628 1.59936L15.9042 2.55868L17.3387 2.64834Z" fill="#FCCA70"/>
</g>
<path fill-rule="evenodd" clip-rule="evenodd" d="M82.6802 14.4649L80.4209 7.37305L82.2051 11.1834L82.6802 14.4649Z" fill="#892334"/>
<path fill-rule="evenodd" clip-rule="evenodd" d="M101.822 23.5739L102.71 22.498L106.045 23.5739L105.157 25.3043H102.952L101.822 23.5739Z" fill="#7A1C34"/>
<path fill-rule="evenodd" clip-rule="evenodd" d="M16.6306 20.418L17.052 20.0056L18.8362 20.8753L17.6886 21.6105L16.6306 20.8036V20.418Z" fill="#892334"/>
<path fill-rule="evenodd" clip-rule="evenodd" d="M101.822 23.5742L102.934 24.9549L104.781 25.1701H105.22L105.157 25.3046L102.952 25.4391L101.822 23.5742Z" fill="#F2774F"/>
<path fill-rule="evenodd" clip-rule="evenodd" d="M16.6306 20.8037L17.3837 21.261H18.1368L18.8362 20.8754L17.9217 21.6106H17.6886L16.6306 20.8037Z" fill="#F2774F"/>
<path opacity="0.4" fill-rule="evenodd" clip-rule="evenodd" d="M49.3013 23.9504C49.3013 23.9504 62.1131 25.7435 66.5332 13.9717C66.5332 13.9717 63.2518 23.8697 49.3013 23.9504Z" fill="#D9772F"/>
<path style="mix-blend-mode:multiply" opacity="0.6" fill-rule="evenodd" clip-rule="evenodd" d="M15.0166 25.8245L15.8504 27.5459C15.8504 27.5459 61.9785 29.07 95.5279 28.6038L97.2403 26.3265C97.2403 26.3265 49.6687 27.8955 15.0166 25.8245Z" fill="url(#paint9_linear_958_4051)"/>
<path fill-rule="evenodd" clip-rule="evenodd" d="M17.3926 8.35059C17.3926 8.35059 6.63381 13.3982 13.6629 25.7349C13.6629 25.7349 65.5379 29.4108 99.939 26.0846C99.939 26.0846 105.229 17.379 98.2894 9.13956C98.2894 9.13956 39.8335 10.0361 17.3926 8.35059Z" fill="url(#paint10_linear_958_4051)"/>
<path fill-rule="evenodd" clip-rule="evenodd" d="M98.2894 9.1393L96.9804 8.51171C96.9804 8.51171 43.7067 10.8697 18.3967 7.9917L17.3926 8.35032C17.3926 8.35032 49.4716 11.6676 98.2894 9.1393Z" fill="url(#paint11_radial_958_4051)"/>
<path style="mix-blend-mode:screen" opacity="0.8" fill-rule="evenodd" clip-rule="evenodd" d="M67.4298 10.0897L60.4097 27.5458L85.7106 26.981L93.0176 9.20215L67.4298 10.0897Z" fill="url(#paint12_linear_958_4051)"/>
<path style="mix-blend-mode:screen" opacity="0.8" fill-rule="evenodd" clip-rule="evenodd" d="M17.3925 8.35059C17.3925 8.35059 14.5773 17.6928 16.5766 25.9322L22.0994 26.2549L24.0898 8.72714L17.3925 8.35059Z" fill="url(#paint13_linear_958_4051)"/>
<g style="mix-blend-mode:soft-light">
<path fill-rule="evenodd" clip-rule="evenodd" d="M14.21 25.1697C14.21 25.1697 59.2353 29.1594 98.6302 25.7345C98.6302 25.7345 35.1805 27.2856 14.21 25.1697Z" fill="#FFFF1D"/>
</g>
<path fill-rule="evenodd" clip-rule="evenodd" d="M82.4561 19.0193L88.4451 16.6882L84.4912 18.7593L82.4561 19.0193Z" fill="#FFFF1D"/>
<path fill-rule="evenodd" clip-rule="evenodd" d="M79.4885 21.0278L81.0216 23.0092L80.412 21.9154L79.4885 21.0278Z" fill="#FFFF1D"/>
<path fill-rule="evenodd" clip-rule="evenodd" d="M60.0869 12.4924L63.7808 13.8283L61.1628 13.1559L60.0869 12.4924Z" fill="#FFFF1D"/>
<path fill-rule="evenodd" clip-rule="evenodd" d="M43.3571 13.0125L41.9854 13.5325H43.1598L43.3571 13.0125Z" fill="#FFFF1D"/>
<path fill-rule="evenodd" clip-rule="evenodd" d="M82.4561 19.0193L84.8319 17.8538L88.4451 16.6882L82.4561 19.0193Z" fill="#FF7539"/>
<path fill-rule="evenodd" clip-rule="evenodd" d="M79.4885 21.0278L80.412 21.9154L81.0216 23.0092L80.5196 21.763L79.4885 21.0278Z" fill="#FF7539"/>
<path fill-rule="evenodd" clip-rule="evenodd" d="M31.1638 25.385L33.6473 25.0533L32.4011 25.0264L31.1638 25.385Z" fill="#FFFF1D"/>
<path fill-rule="evenodd" clip-rule="evenodd" d="M31.1638 25.3852L32.4011 25.0265L33.6473 25.0534L32.3204 24.8562L31.1638 25.3852Z" fill="#FF7539"/>
<path fill-rule="evenodd" clip-rule="evenodd" d="M60.0869 12.4924H60.9566L63.7808 13.8283L60.0869 12.4924Z" fill="#FF8B39"/>
<path fill-rule="evenodd" clip-rule="evenodd" d="M41.9854 13.5324L42.2543 12.7434L43.3571 13.0124L41.9854 13.5324Z" fill="#FF8B39"/>
<path fill-rule="evenodd" clip-rule="evenodd" d="M93.5737 9.37251L99.1862 10.5649L98.2896 9.1394L93.5737 9.37251Z" fill="#FFFF18"/>
<path fill-rule="evenodd" clip-rule="evenodd" d="M15.9043 9.27404L22.8437 8.78094L17.3926 8.35059L15.9043 9.27404Z" fill="#FFFF18"/>
<path fill-rule="evenodd" clip-rule="evenodd" d="M25.0762 8.96021L29.021 9.60573L36.0411 9.55194L25.0762 8.96021Z" fill="#FFFF18"/>
<path d="M16.9566 22.1738V15.6098L16.7166 14.4098L16.9566 13.6898H19.3686L21.7926 16.7138L22.3686 17.7098H22.4886V13.6898H25.2606V14.4098L25.1406 15.6098V22.1738H22.7526L19.7406 18.0698H19.6206V18.7898L19.7406 22.1738H16.9566ZM26.941 22.1738V15.6218L26.701 14.3978L26.941 13.6778H33.121L33.721 14.0378L32.929 16.0778L31.849 15.9578H29.461L29.581 16.9178H32.569V18.8978H30.877L29.581 18.7778V20.2658L29.713 21.4658L29.581 22.1738H26.941ZM36.4374 22.1738V15.9698L34.0374 16.0898V13.6778H41.5374V16.0898L39.0774 15.9698V20.2538L39.2094 21.4538L39.0774 22.1738H36.4374ZM45.6206 22.1738V15.6098L45.3806 14.4098L45.6326 13.6898H48.4286L50.7806 17.8898H51.0206L52.9646 13.6898H55.8326L55.9526 14.4098L55.8326 15.5618V22.1738H53.1806L53.2166 21.1538V17.8058H53.0846L52.6286 19.0658L51.7646 20.9738H49.8446L48.4286 17.8058H48.3086V18.7778L48.4286 22.1738H45.6206ZM58.6284 16.1618L56.8524 14.6258L58.6284 13.1018L60.4044 14.6258L58.6284 16.1618ZM57.2964 22.1738V18.2018L57.0444 17.2418L57.2844 16.5098H59.9364V22.1738H57.2964ZM61.1189 22.1738V18.5618L60.8789 17.2418L61.2509 16.5098H63.5189V17.0258L63.6269 17.0978C63.7149 17.0178 63.8349 16.9258 63.9869 16.8218C64.1469 16.7098 64.3389 16.6098 64.5629 16.5218C64.7869 16.4338 65.0389 16.3898 65.3189 16.3898C65.9749 16.3898 66.4589 16.5938 66.7709 17.0018C67.0829 17.4098 67.2389 17.9818 67.2389 18.7178V20.2538L67.4789 21.4538L67.2389 22.1738H64.5869V19.1378C64.5869 18.8978 64.5309 18.7218 64.4189 18.6098C64.3149 18.4898 64.1349 18.4298 63.8789 18.4298L63.7589 18.5498V22.1738H61.1189ZM70.926 22.2938C70.222 22.2938 69.706 22.1498 69.378 21.8618C69.05 21.5738 68.886 21.1538 68.886 20.6018V18.3458H67.89V16.8458L68.766 16.2578L69.618 14.7698H71.514V16.5098H73.314V18.4298H71.514V20.2778L73.314 20.2658V21.9338C73.314 21.9338 73.242 21.9538 73.098 21.9938C72.954 22.0258 72.762 22.0658 72.522 22.1138C72.29 22.1618 72.034 22.2018 71.754 22.2338C71.474 22.2738 71.198 22.2938 70.926 22.2938ZM75.8363 22.2938C75.3003 22.2938 74.8643 22.1698 74.5283 21.9218C74.2003 21.6658 74.0363 21.2218 74.0363 20.5898C74.0363 20.0058 74.2283 19.5658 74.6123 19.2698C75.0043 18.9658 75.5323 18.8138 76.1963 18.8138C76.5563 18.8138 76.8443 18.8498 77.0603 18.9218C77.2763 18.9858 77.4403 19.0498 77.5523 19.1138L77.6363 19.0538C77.6363 18.8058 77.5923 18.6218 77.5043 18.5018C77.4163 18.3738 77.2043 18.3098 76.8683 18.3098C76.5723 18.3098 76.2683 18.3418 75.9563 18.4058C75.6523 18.4618 75.3643 18.5378 75.0923 18.6338C74.8203 18.7218 74.5883 18.8178 74.3963 18.9218V16.7618C74.5243 16.7218 74.7283 16.6738 75.0083 16.6178C75.2883 16.5618 75.6243 16.5138 76.0163 16.4738C76.4083 16.4258 76.8283 16.4018 77.2763 16.4018C78.0283 16.4018 78.6243 16.4938 79.0643 16.6778C79.5043 16.8538 79.8163 17.1138 80.0003 17.4578C80.1923 17.7938 80.2883 18.1978 80.2883 18.6698V20.2658L80.5283 21.4778L80.2883 22.1858H77.7563V21.5978L77.6363 21.5378C77.5083 21.7218 77.2883 21.8938 76.9763 22.0538C76.6723 22.2138 76.2923 22.2938 75.8363 22.2938ZM77.1923 20.7218C77.3123 20.7218 77.4123 20.7018 77.4923 20.6618C77.5723 20.6218 77.6203 20.5978 77.6363 20.5898V20.3258C77.6363 20.2058 77.6003 20.1018 77.5283 20.0138C77.4563 19.9258 77.3483 19.8818 77.2043 19.8818C77.0763 19.8818 76.9563 19.9178 76.8443 19.9898C76.7323 20.0538 76.6763 20.1698 76.6763 20.3378C76.6763 20.5938 76.8483 20.7218 77.1923 20.7218ZM85.565 22.2938C85.205 22.2938 84.917 22.2578 84.701 22.1858C84.493 22.1218 84.341 22.0578 84.245 21.9938C84.157 21.9218 84.113 21.8858 84.113 21.8858V22.1858H81.473V15.6098L81.221 14.4098L81.473 13.6898H84.113V15.6218L83.993 16.9778L84.113 17.0378C84.217 16.9338 84.325 16.8338 84.437 16.7378C84.557 16.6418 84.705 16.5618 84.881 16.4978C85.057 16.4258 85.285 16.3898 85.565 16.3898C86.277 16.3898 86.813 16.6178 87.173 17.0738C87.541 17.5298 87.725 18.2498 87.725 19.2338C87.725 19.9698 87.621 20.5658 87.413 21.0218C87.213 21.4698 86.949 21.7938 86.621 21.9938C86.293 22.1938 85.941 22.2938 85.565 22.2938ZM84.557 20.2658C84.741 20.2658 84.873 20.1938 84.953 20.0498C85.041 19.8978 85.085 19.6978 85.085 19.4498C85.085 19.1458 85.009 18.9098 84.857 18.7418C84.713 18.5658 84.505 18.4778 84.233 18.4778L84.113 18.5978V20.1098C84.113 20.1098 84.157 20.1378 84.245 20.1938C84.333 20.2418 84.437 20.2658 84.557 20.2658ZM88.6214 22.1738V15.5978L88.3694 14.3978L88.6214 13.6778H91.2614V22.1738H88.6214ZM95.2866 22.2938C94.6706 22.2938 94.1106 22.2058 93.6066 22.0298C93.1106 21.8458 92.7146 21.5418 92.4186 21.1178C92.1306 20.6858 91.9866 20.0938 91.9866 19.3418C91.9866 18.8138 92.0746 18.3618 92.2506 17.9858C92.4346 17.6098 92.6786 17.3058 92.9826 17.0738C93.2866 16.8338 93.6266 16.6618 94.0026 16.5578C94.3786 16.4458 94.7666 16.3898 95.1666 16.3898C95.6706 16.3898 96.0906 16.4218 96.4266 16.4858C96.7706 16.5498 97.0466 16.6218 97.2546 16.7018C97.4626 16.7818 97.6226 16.8538 97.7346 16.9178L98.3346 18.8258L98.0946 19.5698H94.6146C94.6466 19.7938 94.7626 19.9858 94.9626 20.1458C95.1626 20.2978 95.5106 20.3738 96.0066 20.3738C96.4786 20.3738 96.8706 20.3218 97.1826 20.2178C97.4946 20.1138 97.7186 20.0338 97.8546 19.9778V21.8258C97.6946 21.9138 97.4746 21.9938 97.1946 22.0658C96.9146 22.1378 96.6066 22.1938 96.2706 22.2338C95.9426 22.2738 95.6146 22.2938 95.2866 22.2938ZM94.5786 18.7898L95.8026 18.5618L95.6946 18.1778C95.5826 18.1138 95.4466 18.0818 95.2866 18.0818C95.0226 18.0818 94.8346 18.1538 94.7226 18.2978C94.6186 18.4418 94.5706 18.6058 94.5786 18.7898Z" fill="#783113"/>
<defs>
<linearGradient id="paint0_linear_958_4051" x1="56.9312" y1="33.1043" x2="56.9312" y2="2.11914" gradientUnits="userSpaceOnUse">
<stop stop-color="#8C2747"/>
<stop offset="1" stop-color="#D65731"/>
</linearGradient>
<linearGradient id="paint1_linear_958_4051" x1="11.9326" y1="18.9745" x2="64.5518" y2="18.9745" gradientUnits="userSpaceOnUse">
<stop stop-color="#C77CBD"/>
<stop offset="1" stop-color="#974577"/>
</linearGradient>
<linearGradient id="paint2_linear_958_4051" x1="18.3967" y1="19.0281" x2="80.5823" y2="19.0281" gradientUnits="userSpaceOnUse">
<stop stop-color="#C77CBD"/>
<stop offset="1" stop-color="#974577"/>
</linearGradient>
<linearGradient id="paint3_linear_958_4051" x1="48.5752" y1="18.9745" x2="66.5333" y2="18.9745" gradientUnits="userSpaceOnUse">
<stop stop-color="#C77CBD"/>
<stop offset="1" stop-color="#974577"/>
</linearGradient>
<linearGradient id="paint4_linear_958_4051" x1="5.93457" y1="16.5449" x2="24.09" y2="16.5449" gradientUnits="userSpaceOnUse">
<stop stop-color="#C77CBD"/>
<stop offset="1" stop-color="#974577"/>
</linearGradient>
<linearGradient id="paint5_linear_958_4051" x1="51.0049" y1="18.6873" x2="88.6874" y2="18.6873" gradientUnits="userSpaceOnUse">
<stop stop-color="#C77CBD"/>
<stop offset="1" stop-color="#974577"/>
</linearGradient>
<linearGradient id="paint6_linear_958_4051" x1="61.4856" y1="19.0281" x2="109.945" y2="19.0281" gradientUnits="userSpaceOnUse">
<stop stop-color="#C77CBD"/>
<stop offset="1" stop-color="#974577"/>
</linearGradient>
<linearGradient id="paint7_linear_958_4051" x1="79.3273" y1="25.4925" x2="93.8874" y2="25.4925" gradientUnits="userSpaceOnUse">
<stop stop-color="#C77CBD"/>
<stop offset="1" stop-color="#974577"/>
</linearGradient>
<linearGradient id="paint8_linear_958_4051" x1="82.2053" y1="23.9682" x2="113.146" y2="23.9682" gradientUnits="userSpaceOnUse">
<stop stop-color="#C77CBD"/>
<stop offset="1" stop-color="#974577"/>
</linearGradient>
<linearGradient id="paint9_linear_958_4051" x1="15.0256" y1="27.259" x2="97.2493" y2="27.259" gradientUnits="userSpaceOnUse">
<stop stop-color="#C77CBD"/>
<stop offset="1" stop-color="#974577"/>
</linearGradient>
<linearGradient id="paint10_linear_958_4051" x1="56.5723" y1="27.4743" x2="56.5723" y2="8.35059" gradientUnits="userSpaceOnUse">
<stop stop-color="#FF901D"/>
<stop offset="1" stop-color="#FFCE1B"/>
</linearGradient>
<radialGradient id="paint11_radial_958_4051" cx="0" cy="0" r="1" gradientUnits="userSpaceOnUse" gradientTransform="translate(57.8455 9.04068) scale(35.7997 35.7997)">
<stop stop-color="#FFF447"/>
<stop offset="1" stop-color="#FFBD36"/>
</radialGradient>
<linearGradient id="paint12_linear_958_4051" x1="76.7181" y1="27.5458" x2="76.7181" y2="9.20215" gradientUnits="userSpaceOnUse">
<stop/>
<stop offset="1" stop-color="#FFBD00"/>
</linearGradient>
<linearGradient id="paint13_linear_958_4051" x1="19.9746" y1="26.2549" x2="19.9746" y2="8.35059" gradientUnits="userSpaceOnUse">
<stop/>
<stop offset="1" stop-color="#FFBD00"/>
</linearGradient>
</defs>
</svg>
