<svg width="88" height="86" viewBox="0 0 88 86" fill="none" xmlns="http://www.w3.org/2000/svg">
<path d="M86.8667 14.6392C86.4778 10.6858 84.6404 7.01157 81.7032 4.31348C78.7659 1.61538 74.9331 0.0810952 70.9317 0.00166293H16.7374C12.6803 -0.0570276 8.7567 1.43979 5.78367 4.18043C2.81064 6.92107 1.01733 10.6943 0.777168 14.7144C-1.29363 33.287 1.23173 60.4818 3.02474 70.9085C4.64097 80.1823 10.121 85.4959 18.1769 85.4959H69.6942C77.2703 85.4959 83.2554 79.7562 84.8464 70.8834C85.2252 67.4496 90.1749 36.6206 86.8667 14.6392Z" fill="#6F4B28"/>
<path d="M82.4214 70.5324C81.2597 77.5253 76.6888 83.2651 69.5926 83.2651H18.0752C10.979 83.2651 6.61011 78.4026 5.22116 70.5324C3.25138 59.1783 1.02906 32.5851 2.99884 15.0401C3.14981 11.5452 4.67082 8.24723 7.23738 5.84975C9.80394 3.45228 13.2128 2.14513 16.7368 2.20719H70.931C74.4074 2.30418 77.7268 3.66461 80.2593 6.03024C82.7918 8.39587 84.361 11.602 84.669 15.0401C87.4974 33.7631 84.2144 59.9052 82.4214 70.5324Z" fill="#B38650"/>
<path style="mix-blend-mode:screen" opacity="0.5" d="M5.22102 37.7483C8.09993 37.4476 10.9788 37.1969 13.8578 37.0215C19.2873 36.6956 24.7421 36.445 30.1716 36.3197C40.842 35.9053 51.5288 36.2823 62.1426 37.4476C69.9713 38.4501 77.7494 39.954 85.5527 41.0318C86.0644 32.3593 85.7685 23.6585 84.6688 15.0401C84.3608 11.602 82.7916 8.39587 80.2592 6.03024C77.7267 3.66461 74.4072 2.30418 70.9309 2.20719H16.7367C13.2127 2.14513 9.8038 3.45228 7.23724 5.84975C4.67068 8.24723 3.14967 11.5452 2.99871 15.0401C2.26909 22.7457 2.04975 30.4905 2.34211 38.2246C3.35226 37.999 4.33715 37.8235 5.22102 37.7483Z" fill="url(#paint0_linear_3633_5114)"/>
<path style="mix-blend-mode:multiply" d="M60.1746 38.5505C48.8035 37.4521 37.3659 37.1923 25.956 37.7735C20.5517 37.974 15.097 38.1495 9.69268 38.6507L2.36914 39.3776C2.69028 49.81 3.64322 60.2137 5.2228 70.5325C6.61174 78.4027 10.9806 83.2652 18.0769 83.2652H69.5942C76.6905 83.2652 81.2614 77.5254 82.423 70.5325C83.9555 61.2037 84.9756 51.799 85.4787 42.3603C77.044 41.0569 68.6598 39.5029 60.1746 38.5505Z" fill="url(#paint1_linear_3633_5114)"/>
<g style="mix-blend-mode:screen" opacity="0.7">
<g opacity="0.5">
<path d="M73.7861 11.3559C75.9579 9.62648 77.7762 7.44588 79.9985 5.81671C79.7427 5.52774 79.464 5.25954 79.1651 5.01465C77.1953 7.52108 75.0235 9.70167 72.877 12.0076L73.7861 11.3559Z" fill="#F2C26D"/>
</g>
<g opacity="0.5">
<path d="M34.1382 11.6818H35.4766C35.4766 10.2532 35.4766 8.84956 35.7039 7.42089C35.9312 5.99223 35.9564 4.66382 36.1584 3.28529C36.2169 2.94746 36.2927 2.61283 36.3857 2.28271H33.6836C33.6836 4.01215 33.9361 5.76665 33.9109 7.47102C33.7932 8.87835 33.8697 10.295 34.1382 11.6818Z" fill="#F2C26D"/>
</g>
<g opacity="0.5">
<path d="M40.5273 11.3059C41.8394 11.2307 43.1547 11.2307 44.4668 11.3059C45.8558 11.3059 47.2447 11.5064 48.6084 11.6066C48.848 8.45085 49.2781 5.31218 49.8964 2.20752H39.7949C39.8707 5.2403 40.5273 8.24801 40.5273 11.3059Z" fill="#F2C26D"/>
</g>
<g opacity="0.5">
<path d="M24.643 11.4813H25.1228C26.8453 11.3138 28.5809 11.3306 30.2998 11.5314C30.2998 9.22552 29.8957 6.84441 29.9715 4.5385C29.9715 3.7615 29.9715 2.98451 29.9715 2.20752H21.8398C22.0671 2.95945 22.2692 3.73644 22.4712 4.48837C23.1278 6.84441 23.7844 9.20045 24.643 11.4813Z" fill="#F2C26D"/>
</g>
<g opacity="0.5">
<path d="M21.1316 12.985C20.6013 12.0827 19.9952 11.2305 19.4901 10.3282C18.985 9.42587 18.1769 7.82176 17.4698 6.51842C16.7832 5.06882 16.0073 3.66256 15.1465 2.30762C14.6627 2.34277 14.1819 2.40975 13.707 2.50813C15.5 6.39309 18.7578 9.50107 20.4245 13.386L21.1316 12.985Z" fill="#F2C26D"/>
</g>
<g opacity="0.5">
<path d="M31.6627 11.6566H32.7739C32.5614 10.2888 32.4937 8.90274 32.5718 7.52098C32.5718 5.76649 32.2688 3.98692 32.3445 2.23242H31.4102C31.4102 3.76134 31.4102 5.29026 31.4102 6.79412C31.4102 8.29798 31.6374 10.0274 31.6627 11.6566Z" fill="#F2C26D"/>
</g>
<g opacity="0.5">
<path d="M54.3902 11.8822H56.0065C56.9914 8.82433 56.9156 5.03962 58.5318 2.23242H55.5519C55.068 3.9632 54.7384 5.73288 54.567 7.52098L53.9609 11.807L54.3902 11.8822Z" fill="#F2C26D"/>
</g>
<g opacity="0.5">
<path d="M77.6233 17.8474C75.8555 18.7748 74.0878 19.7021 72.2695 20.5543C72.3958 20.9052 72.5221 21.2812 72.6231 21.6572C74.113 21.2561 75.6283 20.8802 77.093 20.3789C78.5577 19.8776 80.6285 19.1006 82.4215 18.6494C83.3054 18.4489 84.1892 18.2735 84.9468 18.0228C84.9468 16.9952 84.6943 15.9676 84.5428 14.965C84.5428 14.7895 84.5428 14.6141 84.5428 14.4136C83.7599 14.7394 83.0276 15.1655 82.2447 15.5415C80.8052 16.2683 79.1638 17.0203 77.6233 17.8474Z" fill="#F2C26D"/>
</g>
<g opacity="0.5">
<path d="M18.6317 14.5143L19.2126 14.1884C17.4196 10.1781 14.1618 6.96992 12.3183 2.93457C11.4432 3.21128 10.5974 3.57225 9.79297 4.01233C11.99 6.59396 14.0861 9.27583 16.3589 11.8073C17.1644 12.6689 17.9231 13.5725 18.6317 14.5143Z" fill="#F2C26D"/>
</g>
<g opacity="0.5">
<path d="M74.1387 28.3995V28.7504V28.976C77.3964 29.1515 80.6794 29.3019 83.9371 29.3269H85.528C85.528 28.6251 85.528 27.9484 85.528 27.2466C83.2805 27.2466 81.0329 27.2466 78.8106 27.5724C77.3711 27.8481 75.7549 28.0988 74.1387 28.3995Z" fill="#F2C26D"/>
</g>
<g opacity="0.5">
<path d="M68.5078 14.5393L68.7351 14.7399C71.7655 11.2058 75.1495 7.94743 78.0789 4.31311C77.2811 3.82013 76.435 3.40865 75.5536 3.08496C73.768 5.37991 72.1798 7.81973 70.8059 10.3787C70.1134 11.8044 69.3464 13.1931 68.5078 14.5393Z" fill="#F2C26D"/>
</g>
<g opacity="0.5">
<path d="M57.4219 11.8322H58.331C58.8968 8.51471 59.881 5.28107 61.2604 2.20752H60.124C59.1681 3.83909 58.5579 5.64725 58.331 7.52115C58.0785 8.99994 57.8259 10.4286 57.4219 11.8322Z" fill="#F2C26D"/>
</g>
<g opacity="0.5">
<path d="M64.416 12.5338L65.5524 12.8847C66.4868 11.0801 67.2949 9.2003 68.2798 7.39567C69.2647 5.59104 70.5779 3.98693 71.6385 2.38281H68.6586C67.9263 3.9368 67.3202 5.59104 66.6636 7.14503C66.007 8.69901 65.1484 10.654 64.416 12.5338Z" fill="#F2C26D"/>
</g>
<g opacity="0.5">
<path d="M75.1992 59.4293C75.1992 59.4293 75.1992 59.4293 75.1992 59.5797C76.3667 59.9364 77.4926 60.4153 78.5579 61.0084C80.1994 61.7352 81.8662 62.412 83.6087 63.0636C83.6087 62.3117 83.8107 61.5097 83.9117 60.7076C81.1086 59.7802 78.2549 58.928 75.376 58.2012C75.2497 58.6523 75.2245 59.0534 75.1992 59.4293Z" fill="#F2C26D"/>
</g>
<g opacity="0.5">
<path d="M75.0479 60.8828C75.0479 61.2337 75.0479 61.5846 74.8711 61.9606C76.347 62.1655 77.7184 62.8329 78.7854 63.8655C80.1146 64.7926 81.5796 65.5111 83.129 65.9959L83.3563 64.3918L78.4824 62.4368C77.3897 61.812 76.2397 61.2916 75.0479 60.8828Z" fill="#F2C26D"/>
</g>
<g opacity="0.5">
<path d="M16.0555 64.743L15.904 63.8657C15.3665 64.1338 14.8514 64.4439 14.3635 64.7931C13.2271 65.4698 12.0907 66.0964 10.929 66.698C9.0855 67.6755 7.06521 68.7282 5.04492 69.806C5.04492 70.0566 5.04492 70.2822 5.04492 70.5328C5.04492 70.7835 5.17119 71.2096 5.24695 71.5354C6.58539 70.5078 7.77231 69.3799 9.28753 68.4776C11.6361 67.1491 13.9089 66.0714 16.0555 64.743Z" fill="#F2C26D"/>
</g>
<g opacity="0.5">
<path d="M75.7551 49.1779C77.4375 49.2601 79.0901 49.651 80.629 50.3308C81.9927 50.6817 83.4069 51.0577 84.7706 51.4587L84.9221 49.8546C81.9165 49.1369 78.8449 48.7254 75.7551 48.6265C75.7431 48.8101 75.7431 48.9943 75.7551 49.1779Z" fill="#F2C26D"/>
</g>
<g opacity="0.5">
<path d="M75.5289 41.4332C75.5164 41.5582 75.5164 41.6841 75.5289 41.8091C77.4987 41.8091 79.519 41.8091 81.4888 42.0347C82.8272 42.16 84.0141 42.3856 85.4536 42.5109C85.4536 42.0347 85.4536 41.5585 85.4536 41.0823C82.1959 40.957 78.8624 41.2327 75.5289 41.4332Z" fill="#F2C26D"/>
</g>
<g opacity="0.5">
<path d="M12.7731 29.2767C12.7731 28.976 12.7731 28.6752 12.7731 28.3744C10.7528 28.1238 8.7325 27.8982 6.73747 27.7228C5.25268 27.5718 3.75925 27.5216 2.26758 27.5724C2.26758 28.199 2.26758 28.8005 2.26758 29.4271C5.75257 29.1013 9.28808 29.5023 12.7731 29.2767Z" fill="#F2C26D"/>
</g>
<g opacity="0.5">
<path d="M8.90914 31.8086C10.2223 31.8086 11.4345 31.608 12.8487 31.4827V30.6055C9.3132 30.806 5.75244 30.3799 2.24219 30.6055V32.2096C4.47079 32.2151 6.69752 32.0811 8.90914 31.8086Z" fill="#F2C26D"/>
</g>
<g opacity="0.5">
<path d="M12.621 24.189C12.6085 24.0808 12.6085 23.9715 12.621 23.8632C12.6599 22.687 12.8292 21.5186 13.126 20.3793C11.4593 19.7276 9.76731 19.1261 8.07532 18.5245C6.38333 17.923 4.53982 17.547 2.82257 16.77C2.51953 18.8002 2.51953 20.9558 2.51953 23.1614C5.57522 23.4622 8.6309 23.7379 11.6613 24.1139L12.621 24.189Z" fill="#F2C26D"/>
</g>
<g opacity="0.5">
<path d="M13.1008 47.2732C13.1008 46.9223 13.1008 46.5464 12.9745 46.1704C9.5905 46.8722 6.15601 47.5239 2.87305 48.4513C2.87305 48.9525 2.87305 49.4288 2.87305 49.9301C4.53142 49.3978 6.21743 48.9543 7.92377 48.6016C9.64101 48.1505 11.3583 47.6241 13.1008 47.2732Z" fill="#F2C26D"/>
</g>
<g opacity="0.5">
<path d="M14.3131 55.494V55.0679C10.8028 56.8224 7.44412 58.8776 3.98438 60.6823C4.08539 61.6681 4.1864 62.5955 4.28742 63.4644C7.64615 61.0833 11.0806 58.8526 14.5909 56.6971C14.4394 56.296 14.3636 55.895 14.3131 55.494Z" fill="#F2C26D"/>
</g>
</g>
<g style="mix-blend-mode:multiply" opacity="0.7">
<path d="M15.1467 74.0918C16.5861 72.2621 17.8488 70.3572 19.1367 68.4272C16.1316 70.9337 13.0254 73.1895 9.99493 75.5956C9.21207 76.2222 8.42921 76.8488 7.62109 77.4504C8.40883 78.7635 9.42654 79.9263 10.6263 80.8842C11.0051 80.1323 11.3586 79.3803 11.8132 78.6535C12.8486 77.0744 14.0355 75.5956 15.1467 74.0918Z" fill="#996E44"/>
</g>
<g style="mix-blend-mode:multiply" opacity="0.7">
<path d="M75.756 79.681C74.5943 78.8288 73.2306 78.1521 72.1952 77.1746C71.5519 76.62 70.9446 76.0257 70.377 75.395L72.3467 78.3275C73.1296 79.4304 73.8872 80.5332 74.6196 81.6611L74.8468 82.0371C75.6908 81.6164 76.4796 81.0945 77.1954 80.4831C76.6996 80.245 76.2189 79.9772 75.756 79.681Z" fill="#996E44"/>
</g>
<g style="mix-blend-mode:screen" opacity="0.4">
<path d="M10.2978 13.9624C11.2369 15.6582 11.5916 17.6122 11.308 19.5266C11.0049 24.9656 11.308 30.4296 11.5353 35.8435C11.5353 37.0215 11.5353 38.1745 11.5353 39.3525H72.4975C72.851 35.3923 73.3308 31.4572 73.8864 27.5221C73.9979 24.8213 74.4044 22.1405 75.0986 19.5266C75.4894 18.7252 75.7942 17.885 76.0077 17.0202C75.9509 15.7972 76.2118 14.5803 76.7653 13.4861C77.1726 12.797 77.7362 12.2117 78.4113 11.7766C79.0864 11.3415 79.8544 11.0687 80.6544 10.9797C82.7252 10.9797 84.0889 13.2104 84.7455 15.5164V14.99C84.439 12.3807 83.4342 9.90047 81.8355 7.80687C80.2368 5.71326 78.1024 4.08268 75.6542 3.08447C76.6224 3.53755 77.4206 4.28422 77.9335 5.21675C78.4464 6.14928 78.6475 7.21943 78.5078 8.27278C77.9775 10.7792 75.6794 11.1802 73.4571 11.1552C68.9367 11.1552 64.5173 12.5838 60.0222 12.9347C55.2652 13.3106 50.4856 13.3106 45.7286 12.9347C41.082 12.6089 36.4353 12.0575 31.7634 11.6314C27.0915 11.2053 22.5963 11.6314 18.0254 11.3807C16.6324 11.4141 15.2562 11.0729 14.0426 10.3934C12.8289 9.71393 11.823 8.72138 11.1312 7.52085C10.5756 6.61854 10.0958 4.81391 10.7019 3.78627C10.8239 3.61 10.9682 3.44996 11.1312 3.31005C9.08672 4.20314 7.29831 5.5872 5.92722 7.33744C4.55613 9.08768 3.64547 11.1491 3.27734 13.3358C3.64127 12.6502 4.10978 12.0245 4.66629 11.481C6.81285 9.42573 9.16143 12.1828 10.2978 13.9624Z" fill="#FDF2D8"/>
</g>
<path d="M16.8644 15.9175C15.2792 13.4821 13.3961 11.2511 11.2581 9.27542C10.1614 8.22844 9.14027 7.10612 8.20237 5.91681L7.79832 5.34033C7.10373 5.94697 6.46948 6.61843 5.9043 7.34547C7.19223 8.1726 8.42966 9.07491 9.64183 9.8519C12.3069 11.5506 14.7353 13.59 16.8644 15.9175Z" fill="#FDF2D8"/>
<path d="M71.7148 14.8648C73.409 14.0639 75.0239 13.1073 76.5383 12.0075C77.9777 10.9548 79.2404 9.50105 80.7304 8.6238C81.0962 8.36977 81.4756 8.1355 81.8668 7.922C81.5385 7.4959 81.2354 7.09488 80.8819 6.69385C79.6697 7.94706 78.3565 9.20028 77.0434 10.3532C75.7302 11.5062 73.2301 13.2106 71.7148 14.8648Z" fill="#FDF2D8"/>
<g style="mix-blend-mode:multiply" opacity="0.4">
<path d="M80.8065 73.2146C80.3645 73.4374 79.8823 73.5707 79.3879 73.6067C78.8936 73.6428 78.3969 73.5808 77.9269 73.4246C77.4568 73.2683 77.0228 73.0208 76.6501 72.6964C76.2774 72.3721 75.9734 71.9774 75.7558 71.5353C74.9982 70.3071 75.4275 68.678 75.4022 67.3245C75.377 65.971 75.4022 64.6927 75.4022 63.3643C75.0234 65.0186 74.7962 66.7229 74.4679 68.3772C74.4277 68.5194 74.3419 68.6447 74.2233 68.7339C74.1048 68.8231 73.9601 68.8714 73.8113 68.8714C73.6625 68.8714 73.5178 68.8231 73.3992 68.7339C73.2807 68.6447 73.1948 68.5194 73.1547 68.3772C72.1535 64.43 71.7031 60.365 71.8162 56.2962C71.8162 52.2358 71.8162 48.1754 72.1193 44.115C72.1193 42.9369 72.2708 41.7589 72.3718 40.606H11.7632C11.9652 45.1426 12.2935 49.6792 12.7481 54.2409C13.1016 57.6497 13.0764 61.0083 13.1521 64.417C13.2279 67.8258 13.3541 71.9363 9.94491 73.4903C8.10139 74.3675 6.66194 73.4903 5.55078 71.836C7.19227 78.9042 11.4601 83.1902 18.1776 83.1902H69.6949C76.2609 83.1902 80.655 78.3026 82.3217 72.0115C81.8879 72.4937 81.3757 72.9003 80.8065 73.2146Z" fill="#815128"/>
</g>
<path opacity="0.5" d="M13.7319 78.3274C14.6149 76.4083 15.3412 74.4218 15.9037 72.3872C15.2976 73.089 14.6663 73.7908 13.9844 74.4675C12.3429 76.1218 10.9035 77.9515 9.3125 79.6559C10.1916 80.598 11.2247 81.3861 12.3682 81.9868C12.7392 80.7379 13.1948 79.5154 13.7319 78.3274Z" fill="#FDF2D8"/>
<path opacity="0.5" d="M73.4058 74.9438C72.4103 74.1473 71.3154 73.4818 70.1481 72.9637L69.3652 72.688C69.5925 73.0138 69.8451 73.3146 70.0976 73.6154C70.9057 74.5929 71.8148 75.42 72.623 76.3724C73.9109 77.8512 74.6937 79.6057 75.9059 81.1096L76.1585 81.4104C77.1054 80.744 77.9551 79.9511 78.6838 79.0543C76.9666 77.7008 75.1736 76.2972 73.4058 74.9438Z" fill="#FDF2D8"/>
<path d="M75.5281 65.5197C74.5685 71.2594 70.8057 75.9715 64.9721 75.9715H22.7229C16.9145 75.9715 13.3033 71.9863 12.1921 65.5197C9.86449 50.4803 9.25454 35.2283 10.3739 20.0531C10.4921 17.1832 11.7364 14.4729 13.8409 12.5013C15.9454 10.5296 18.7433 9.45286 21.637 9.50106H66.0833C68.9379 9.5827 71.6627 10.7028 73.7394 12.6484C75.8161 14.594 77.0998 17.2294 77.3464 20.0531C79.6697 35.3925 76.9676 56.8224 75.5281 65.5197Z" fill="#F2C26D"/>
<g style="mix-blend-mode:multiply" opacity="0.15">
<path d="M77.3459 20.0529C77.101 17.283 75.8578 14.6937 73.8446 12.76C71.8315 10.8264 69.1832 9.67808 66.3859 9.52588C67.5728 10.4783 72.6235 13.2605 73.2043 14.7142C75.1236 19.4764 73.8357 34.54 70.8305 38.3498C64.9212 45.7438 51.5115 43.3627 42.2434 43.0619C33.5814 42.8112 14.1614 46.997 15.6009 29.6274C15.2982 25.6109 14.501 21.6463 13.227 17.8222C12.621 15.8421 15.1463 13.2605 16.207 11.3305C16.3602 11.0564 16.5377 10.7964 16.7373 10.5535C14.9199 11.4304 13.3716 12.7735 12.2528 14.4436C11.1339 16.1137 10.485 18.0503 10.3734 20.0529C9.2567 35.2539 9.87513 50.5315 12.2169 65.5947C13.3281 72.0612 16.9393 76.0465 22.7476 76.0465H64.9717C70.8053 76.0465 74.568 71.3344 75.5277 65.5947C76.9671 56.8222 79.6693 35.3922 77.3459 20.0529Z" fill="#996E44"/>
</g>
<g style="mix-blend-mode:multiply" opacity="0.15">
<path d="M77.3465 20.0533C76.943 17.0546 75.4851 14.2938 73.2301 12.2583C74.166 13.869 74.8794 15.5972 75.3514 17.3965C76.183 21.5002 75.9835 25.7441 74.7706 29.7532C72.018 40.3554 80.1244 50.1304 70.0734 55.6195C61.866 60.0809 27.1423 61.284 19.0359 55.6195C9.76785 49.203 14.7428 39.9543 12.6215 29.2519C11.7344 25.5572 11.185 21.7907 10.98 17.998V17.5469C10.736 18.3656 10.567 19.2044 10.4749 20.0533C9.35826 35.2543 9.97669 50.5319 12.3185 65.5951C13.4296 72.0617 17.0409 76.0469 22.8492 76.0469H64.9722C70.8058 76.0469 74.5686 71.3348 75.5282 65.5951C76.9677 56.8226 79.6698 35.3926 77.3465 20.0533Z" fill="#996E44"/>
</g>
<path d="M10.373 20.0533C10.4695 17.1133 11.6048 14.3007 13.5803 12.1079C14.7997 10.9657 16.2361 10.0761 17.8057 9.49084C19.3753 8.90558 21.0466 8.63645 22.7221 8.69913C30.6685 8.4652 38.6402 8.3733 46.6372 8.42343C53.1779 8.42343 59.7438 8.42343 66.2845 8.74926C69.1918 8.99275 71.9124 10.2709 73.945 12.3482C75.9777 14.4255 77.1854 17.1619 77.3456 20.0533C75.9314 14.6895 71.9413 10.3534 66.0825 10.3784C60.2236 10.4035 53.4557 10.6541 47.1928 10.6792C39.5157 10.6792 31.8386 10.604 24.1615 10.4536C20.7458 9.94784 17.2649 10.7644 14.4389 12.7345C12.2798 14.6405 10.8446 17.2238 10.373 20.0533Z" fill="#FDF2D8"/>
<path opacity="0.5" d="M77.3466 20.0532C79.2452 34.0108 79.1091 48.167 76.9425 62.086C76.1849 67.8759 74.7707 74.3174 68.4573 76.523C65.6561 77.1872 62.7639 77.3904 59.8963 77.1246H47.7494C39.8955 77.1246 32.0164 77.1246 24.1625 77.1246C21.8008 77.282 19.4393 76.8149 17.3188 75.7711C15.8132 74.8128 14.5257 73.5532 13.5386 72.0729C12.5515 70.5925 11.8865 68.924 11.5862 67.1741C10.8071 63.4819 10.309 59.7367 10.0962 55.9703C9.76794 52.1355 9.49015 48.2756 9.38914 44.4408C9.11937 37.3566 9.35566 30.2623 10.0962 23.2113C10.0962 22.1336 10.3235 21.0558 10.4498 19.978C9.73246 34.0175 10.4602 48.0929 12.6216 61.9858C12.8006 65.565 13.9525 69.0295 15.9551 72.0115C16.8136 73.0014 17.8864 73.7861 19.0933 74.3069C20.3002 74.8277 21.6101 75.0712 22.9251 75.0192C29.9203 75.0192 36.8903 75.0192 43.8856 75.0192H56.083C59.5967 75.2826 63.1254 75.2826 66.639 75.0192C72.1948 74.1921 74.2151 68.5275 74.9727 63.7904C77.6915 49.5133 78.5404 34.9473 77.4981 20.4542L77.3466 20.0532Z" fill="#FDF2D8"/>
<path d="M27.7726 15.5165C25.8028 9.1 16.8883 15.9425 15.6762 19.4014C15.2468 20.5794 14.5145 22.9355 15.3731 24.0884C17.1914 26.5949 22.3684 22.9605 23.9341 21.8327C25.4998 20.7048 28.4797 18.1231 27.7726 15.5165Z" fill="#FDF2D8"/>
<path d="M34.4144 13.7871C33.9556 13.7128 33.4862 13.734 33.036 13.8491C32.5858 13.9642 32.1646 14.1709 31.799 14.456C31.4334 14.7411 31.1315 15.0984 30.9122 15.5053C30.693 15.9122 30.5613 16.3598 30.5254 16.8199C30.6769 20.3539 33.9094 17.7974 34.8438 16.1431C35.7781 14.4889 35.3488 13.9876 34.4144 13.7871Z" fill="#FDF2D8"/>
<defs>
<linearGradient id="paint0_linear_3633_5114" x1="44.0106" y1="35.7933" x2="44.0106" y2="2.63329" gradientUnits="userSpaceOnUse">
<stop/>
<stop offset="1" stop-color="#F2C26D"/>
</linearGradient>
<linearGradient id="paint1_linear_3633_5114" x1="43.9366" y1="41.7336" x2="43.9366" y2="102.89" gradientUnits="userSpaceOnUse">
<stop stop-color="white"/>
<stop offset="1" stop-color="#6F4B28"/>
</linearGradient>
</defs>
</svg>
