<svg width="255" height="85" viewBox="0 0 255 85" fill="none" xmlns="http://www.w3.org/2000/svg">
<path d="M253.671 14.5466C252.198 5.99254 244.367 0 234.875 0H19.752C9.6647 0 2.09923 5.87503 0.940129 14.6406C-1.55037 33.0882 1.45702 60.1134 3.60293 70.5004C5.49821 79.7125 11.9672 85 21.334 85H233.293C242.33 85 249.285 79.2895 251.039 70.4769C251.713 67.0224 257.571 36.3782 253.671 14.5466Z" fill="#5A3A1D"/>
<path d="M248.439 70.1009C247.061 77.1509 241.657 82.7675 233.293 82.7675H21.3343C12.97 82.7675 7.80101 77.9264 6.18767 70.1009C3.86947 58.7503 1.22233 32.3832 3.5562 14.8756C4.62132 6.86201 11.388 2.20898 19.7523 2.20898H234.875C243.239 2.20898 249.787 7.56702 251.087 14.8756C254.407 33.5582 250.538 59.5493 248.439 70.1009Z" fill="#A0723C"/>
<path style="mix-blend-mode:screen" opacity="0.5" d="M6.17149 37.6002C9.5548 37.3182 12.9538 37.0597 16.3684 36.8952C22.7748 36.5662 29.1812 36.3077 35.5876 36.1902C48.1184 35.9552 212.037 35.9787 224.521 37.3182C233.762 38.3052 242.925 39.6683 252.104 40.8903C252.717 32.2482 252.373 23.5137 251.086 15.0401C249.786 7.73157 243.254 2.37354 234.874 2.37354H19.7517C11.3874 2.37354 4.6208 7.07356 3.55568 15.0401C2.67677 22.6494 2.41904 30.391 2.78817 38.0937C3.9786 37.7647 5.1377 37.6002 6.17149 37.6002Z" fill="url(#paint0_linear_3633_5045)"/>
<path style="mix-blend-mode:multiply" d="M222.203 38.3053C208.842 37.0598 44.0466 37.1303 30.623 37.5298C24.2323 37.7178 17.8103 37.9058 11.4352 38.3993L2.83594 39.1278C3.20829 49.6029 4.33211 59.9873 6.18793 70.101C7.75428 77.9265 12.9702 82.7676 21.3345 82.7676H233.293C241.657 82.7676 247.061 77.057 248.44 70.101C250.217 60.9594 251.423 51.5894 252.042 42.1123C242.096 40.7963 232.197 39.2688 222.203 38.3053Z" fill="url(#paint1_linear_3633_5045)"/>
<g style="mix-blend-mode:screen" opacity="0.7">
<g opacity="0.5">
<path d="M238.258 11.2802C240.812 9.5647 242.958 7.40269 245.558 5.78118C245.244 5.52267 244.931 5.28767 244.602 5.07617C242.284 7.42619 239.715 9.7762 237.193 12.1262L238.258 11.2802Z" fill="#EBB456"/>
</g>
<g opacity="0.5">
<path d="M40.2407 11.6093H41.807C41.8466 10.1924 41.9408 8.78 42.089 7.37932C42.2135 5.99422 42.3913 4.62109 42.6215 3.26679C42.6215 3.03179 42.7938 2.65579 42.8878 2.27979H39.7551C39.6455 3.9718 40.0527 5.73431 40.037 7.42632C39.8795 8.82492 39.9494 10.2599 40.2407 11.6093Z" fill="#EBB456"/>
</g>
<g opacity="0.5">
<path d="M47.8067 11.2332C49.3417 11.2332 50.908 11.2332 52.5057 11.2332C54.0721 11.2332 206.995 11.4447 208.624 11.5387C208.927 8.33223 209.452 5.18185 210.19 2.13867H47.0078C47.0078 5.21719 47.791 8.20171 47.8067 11.2332Z" fill="#EBB456"/>
</g>
<g opacity="0.5">
<path d="M29.0723 11.4207H29.6206C31.709 11.2749 33.8014 11.322 35.886 11.5617C35.886 9.21166 35.4004 6.86165 35.4787 4.51163C35.4787 3.75963 35.4787 2.98413 35.5727 2.16162H25.8613C26.1119 2.91363 26.3626 3.66563 26.5975 4.51163C27.3174 6.89592 28.1443 9.20423 29.0723 11.4207Z" fill="#EBB456"/>
</g>
<g opacity="0.5">
<path d="M24.922 12.9017C24.3111 12.0087 23.5749 11.1392 23.011 10.2461L20.6302 6.48612C19.7311 4.99748 18.7571 3.61473 17.7167 2.3501C17.1946 2.3501 16.6725 2.4206 16.1504 2.5616C18.2806 6.41562 21.9772 9.61164 24.0918 13.3717L24.922 12.9017Z" fill="#EBB456"/>
</g>
<g opacity="0.5">
<path d="M37.3587 11.5622H38.6431C38.3845 10.2039 38.31 8.78152 38.4239 7.3792C38.4239 5.61669 38.0479 3.87768 38.1419 2.13867H37.0455C36.9568 3.63877 36.9306 5.14571 36.9671 6.6507C37.0141 8.34271 37.3274 9.96422 37.3587 11.5622Z" fill="#EBB456"/>
</g>
<g opacity="0.5">
<path d="M215.374 11.7501H217.301C218.444 8.71859 218.35 4.93506 220.246 2.18555H216.659C216.136 3.88468 215.782 5.69002 215.609 7.54358C215.359 8.95359 215.108 10.3636 214.873 11.7736L215.374 11.7501Z" fill="#EBB456"/>
</g>
<g opacity="0.5">
<path d="M242.801 17.7425C240.702 18.659 238.603 19.599 236.535 20.4215L236.958 21.526C238.728 21.1265 240.514 20.7505 242.221 20.257C244.304 19.6695 246.388 18.988 248.486 18.5415C249.52 18.33 250.57 18.1655 251.619 17.9305C251.478 16.8965 251.337 15.886 251.165 14.8755C251.116 14.6991 251.074 14.5186 251.04 14.335C250.115 14.6405 249.254 15.087 248.33 15.4395C246.419 16.168 244.586 16.92 242.801 17.7425Z" fill="#EBB456"/>
</g>
<g opacity="0.5">
<path d="M21.9452 14.4291L22.6501 14.1001H22.7597C20.6608 10.1051 16.8076 6.90909 14.6304 2.91406C13.6234 3.17472 12.6292 3.53586 11.6543 3.99507C14.1135 6.55658 16.604 9.2356 19.2981 11.7501C20.2094 12.5769 21.0929 13.471 21.9452 14.4291Z" fill="#EBB456"/>
</g>
<g opacity="0.5">
<path d="M238.682 28.2003C238.689 28.3175 238.689 28.4355 238.682 28.5528C238.688 28.623 238.688 28.6941 238.682 28.7643H238.776C242.613 28.9523 246.482 29.0933 250.32 29.1168H252.215C252.215 28.4353 252.215 27.7538 252.215 27.0723C249.583 27.0723 246.936 27.0723 244.305 27.4013C242.472 27.6833 240.561 27.9183 238.682 28.2003Z" fill="#EBB456"/>
</g>
<g opacity="0.5">
<path d="M232.041 14.4527C232.12 14.5293 232.204 14.5923 232.292 14.6407C235.863 11.1392 239.873 7.89621 243.256 4.30068C242.31 3.78816 241.342 3.37204 240.358 3.05518C238.356 5.21544 236.484 7.63759 234.766 10.2932C233.917 11.7637 233.006 13.1529 232.041 14.4527Z" fill="#EBB456"/>
</g>
<g opacity="0.5">
<path d="M218.961 11.75H220.042C220.767 8.26954 221.932 5.03053 223.472 2.20898H222.141C221.088 3.60641 220.354 5.4639 220.042 7.52002C219.742 8.96302 219.381 10.3759 218.961 11.75Z" fill="#EBB456"/>
</g>
<g opacity="0.5">
<path d="M227.215 12.4315C227.674 12.5255 228.113 12.643 228.531 12.784C229.643 10.9745 230.598 9.11796 231.742 7.30845C232.885 5.49894 234.451 3.94793 235.736 2.23242H232.196C231.319 3.75993 230.629 5.40494 229.846 6.93245C229.063 8.45996 228.076 10.575 227.215 12.4315Z" fill="#EBB456"/>
</g>
<g opacity="0.5">
<path d="M239.92 59.0796C239.912 59.126 239.912 59.1742 239.92 59.2206C241.248 59.5703 242.561 60.0412 243.851 60.6306C245.793 61.3591 247.767 62.0406 249.756 62.6751C249.882 61.9231 250.007 61.1476 250.116 60.3251C246.796 59.4086 243.444 58.5626 240.045 57.9751C239.982 58.3041 239.951 58.7506 239.92 59.0796Z" fill="#EBB456"/>
</g>
<g opacity="0.5">
<path d="M239.668 60.5127L239.48 61.5702C241.08 61.7383 242.64 62.3856 244.07 63.4737C245.732 64.4309 247.453 65.1394 249.207 65.5887C249.301 65.0717 249.38 64.5312 249.474 63.9907L243.741 62.0402C242.401 61.4286 241.042 60.9188 239.668 60.5127Z" fill="#EBB456"/>
</g>
<g opacity="0.5">
<path d="M18.9536 64.3437H19.1102L18.9223 63.4507C18.306 63.7064 17.6994 64.0123 17.1053 64.3672C15.7739 65.0487 14.4269 65.6597 13.0485 66.2707C10.7146 67.3047 8.34941 68.3152 6.04688 69.3962L6.18785 70.1247C6.18785 70.4537 6.34448 70.8062 6.4228 71.1352C7.98915 70.1012 9.5555 68.9732 11.1219 68.0802C13.722 66.7407 16.4161 65.8007 18.9536 64.3437Z" fill="#EBB456"/>
</g>
<g opacity="0.5">
<path d="M240.607 48.8803C242.556 48.9398 244.494 49.318 246.387 50.0084L251.259 51.1364C251.259 50.6194 251.368 50.1024 251.431 49.5619C247.838 48.8233 244.218 48.4152 240.592 48.3398C240.592 48.5043 240.607 48.6923 240.607 48.8803Z" fill="#EBB456"/>
</g>
<g opacity="0.5">
<path d="M240.295 41.1722C240.295 41.2897 240.295 41.4307 240.295 41.5717C242.644 41.5717 244.994 41.5717 247.344 41.7597C248.91 41.9008 250.476 42.1122 252.043 42.2532C252.043 41.7832 252.043 41.3132 252.121 40.8197C248.174 40.7022 244.226 40.9842 240.295 41.1722Z" fill="#EBB456"/>
</g>
<g opacity="0.5">
<path d="M15.085 29.093V28.2C12.7198 27.965 10.386 27.7065 7.95814 27.5655C6.21949 27.448 4.48084 27.2835 2.74219 27.3775C2.74219 27.9885 2.74219 28.5995 2.74219 29.2105C6.79904 28.9285 10.9812 29.328 15.085 29.093Z" fill="#EBB456"/>
</g>
<g opacity="0.5">
<path d="M10.5427 31.6313C12.109 31.6313 13.6754 31.4198 15.2417 31.2788C15.2496 31.1066 15.2496 30.9339 15.2417 30.7618C15.2495 30.6446 15.2495 30.5265 15.2417 30.4093C11.0909 30.6208 6.89309 30.1743 2.71094 30.4093C2.71094 30.9498 2.71094 31.4903 2.71094 32.0308C5.23276 32.2893 7.97388 31.7253 10.5427 31.6313Z" fill="#EBB456"/>
</g>
<g opacity="0.5">
<path d="M14.9438 24.0407C14.9366 23.9313 14.9366 23.8211 14.9438 23.7117C14.9786 22.5184 15.1647 21.3459 15.4921 20.2571C13.5341 19.5991 11.5448 19.0116 9.53992 18.4006C7.53499 17.7896 5.3421 17.3431 3.27452 16.6616C3.14921 18.8001 2.96125 20.8211 2.83594 23.0302C6.43854 23.3357 10.0411 23.5707 13.6281 23.9702L14.9438 24.0407Z" fill="#EBB456"/>
</g>
<g opacity="0.5">
<path d="M15.4594 47.0005C15.4594 46.6245 15.3498 46.272 15.3028 45.896C11.3086 46.601 7.2674 47.2355 3.36719 48.246C3.36719 48.7395 3.36719 49.233 3.47683 49.7265C5.40344 49.139 7.50235 48.7865 9.36631 48.387C11.2303 47.9875 13.4075 47.3765 15.4594 47.0005Z" fill="#EBB456"/>
</g>
<g opacity="0.5">
<path d="M16.8856 55.1549C16.8856 55.0139 16.8856 54.8729 16.8856 54.7319C12.6721 56.4004 8.72493 58.5155 4.62109 60.325C4.73074 61.265 4.87171 62.1815 4.99702 63.0745C8.94422 60.7245 13.0011 58.492 17.1362 56.3534C17.0423 55.9539 16.9639 55.5544 16.8856 55.1549Z" fill="#EBB456"/>
</g>
</g>
<g style="mix-blend-mode:multiply" opacity="0.7">
<path d="M17.9202 73.6493C19.5962 71.8163 21.0529 69.9128 22.6192 68.0093C19.095 70.3593 15.414 72.7093 11.8271 75.0593C10.9186 75.6703 10.0101 76.3048 9.07031 76.8923C10.0916 78.3415 11.2668 79.5249 12.5476 80.3938C12.9639 79.6067 13.4194 78.8683 13.9103 78.1848C15.1634 76.5868 16.5575 75.2003 17.9202 73.6493Z" fill="#845A33"/>
</g>
<g style="mix-blend-mode:multiply" opacity="0.7">
<path d="M240.545 79.1955C239.182 78.3495 237.616 77.668 236.331 76.8455C235.58 76.305 234.89 75.694 234.201 75.083C234.969 76.0465 235.768 77.0335 236.519 77.9735C237.271 78.9135 238.352 80.1825 239.214 81.3105L239.48 81.663C240.426 81.2719 241.348 80.7609 242.237 80.1355C241.657 79.7595 241.062 79.501 240.545 79.1955Z" fill="#845A33"/>
</g>
<g style="mix-blend-mode:screen" opacity="0.4">
<path d="M12.1551 13.8651C12.6699 14.5409 13.0525 15.4139 13.2622 16.3908C13.4718 17.3676 13.5007 18.4116 13.3456 19.4111C13.1679 24.8186 13.2569 30.2384 13.6118 35.6262C13.6118 36.8012 13.7058 37.9762 13.7685 39.1042H236.723C237.13 35.1797 237.694 31.2552 238.289 27.3541C238.743 24.7221 238.587 21.9491 239.73 19.4111C240.166 18.6569 240.525 17.8094 240.795 16.8966C241.015 15.6746 240.795 14.5466 241.672 13.395C242.976 11.8215 244.589 10.9376 246.262 10.8805C247.268 10.888 248.252 11.3165 249.104 12.1178C249.957 12.9191 250.643 14.0614 251.086 15.4161C251.053 15.2385 251.027 15.058 251.008 14.8756C250.005 9.25902 245.917 4.8175 240.294 3.12549C242.597 3.85399 244.21 6.34501 243.724 8.31902C243.114 10.669 240.404 11.2095 237.835 11.186C232.525 11.186 227.293 12.596 222.015 12.9485C216.407 13.348 210.753 13.16 205.161 12.9485C199.569 12.737 43.0279 11.8675 37.6083 11.4445C32.1888 11.0215 26.8162 11.3035 21.4123 11.186C17.9193 11.186 15.1469 10.0815 13.2203 7.47301C12.5467 6.58001 11.7635 4.7 12.625 3.75999L13.1263 3.28999C8.5212 4.935 5.07523 8.36602 3.86914 13.2305C4.36548 12.4942 4.92995 11.8689 5.54514 11.374C8.06696 9.40003 10.8237 12.1025 12.1551 13.8651Z" fill="#FBEECD"/>
</g>
<path d="M19.9087 15.8156C17.8834 13.2441 15.6651 11.0358 13.2987 9.23556C12.0551 8.22201 10.8521 7.09991 9.69608 5.87504L9.22617 5.31104C8.44546 5.86382 7.70082 6.52468 7.00195 7.28505C8.5683 8.10755 9.97802 9.00056 11.3877 9.87006C14.3557 11.4109 17.2109 13.4031 19.9087 15.8156Z" fill="#FBEECD"/>
<path d="M235.799 14.7584C237.736 13.9958 239.64 13.0539 241.5 11.9384C243.192 10.8809 244.633 9.5884 246.419 8.57789C246.857 8.31939 247.312 8.10789 247.766 7.87289C247.405 7.44988 247.014 7.05038 246.622 6.65088C245.166 7.89639 243.615 9.00089 242.096 10.2934C240.2 11.7504 237.694 13.1369 235.799 14.7584Z" fill="#FBEECD"/>
<g style="mix-blend-mode:multiply" opacity="0.4">
<path d="M246.465 72.8506C245.478 73.2879 244.435 73.3646 243.424 73.0744C242.413 72.7841 241.463 72.1353 240.654 71.1821C239.761 69.9366 240.262 68.3386 240.246 66.9756C240.262 65.6658 240.23 64.3558 240.153 63.051C239.698 64.6961 239.432 66.3646 239.04 68.0331C238.884 68.6676 237.74 68.7616 237.474 68.0331C236.319 64.276 235.782 60.1577 235.908 56.0245C235.817 51.9824 235.937 47.9358 236.268 43.9219C236.268 42.7704 236.456 41.5719 236.566 40.4204H13.8148C14.0548 44.9915 14.4521 49.541 15.0052 54.0505C15.3202 57.4057 15.472 60.7908 15.4595 64.179C15.4595 67.2576 15.6944 71.6051 11.6689 73.2031C10.7856 73.595 9.85072 73.6475 8.95028 73.356C8.04984 73.0645 7.21266 72.4382 6.51562 71.5346C8.42657 78.5846 13.4702 82.8382 21.3333 82.8382H233.292C241.03 82.8382 246.23 77.9501 248.063 71.7226C247.56 72.1864 247.024 72.5647 246.465 72.8506Z" fill="#6C3F1C"/>
</g>
<path opacity="0.5" d="M16.1964 77.8321C17.2216 76.029 18.0997 74.0488 18.8122 71.9336C18.1074 72.6386 17.3555 73.3436 16.5567 74.0016C14.5831 75.6466 12.8758 77.5501 10.9805 79.1716C12.1055 80.1782 13.3106 80.9678 14.5674 81.5216C15.0364 80.2218 15.5816 78.9871 16.1964 77.8321Z" fill="#FBEECD"/>
<path opacity="0.5" d="M237.805 74.4956C236.567 73.6693 235.283 73.0088 233.967 72.5216L233.027 72.1221L233.905 73.0386C234.844 74.0021 235.925 74.8481 236.896 75.7881C238.463 77.2451 239.355 78.9841 240.781 80.4881C240.878 80.5739 240.972 80.6681 241.063 80.7701C242.161 80.1616 243.212 79.3735 244.195 78.4201C242.003 77.1511 239.888 75.8351 237.805 74.4956Z" fill="#FBEECD"/>
<path d="M240.294 65.1187C239.151 70.8293 234.718 75.5058 227.873 75.5058H26.8321C19.9715 75.5058 15.7423 71.5578 14.4109 65.1187C12.547 55.8597 10.3541 34.216 12.265 19.8575C13.1265 13.2774 18.6871 9.3999 25.5477 9.3999H229.173C236.034 9.3999 241.391 13.8179 242.456 19.8105C245.166 35.2501 242.002 56.4002 240.294 65.1187Z" fill="#EBB456"/>
<g style="mix-blend-mode:multiply" opacity="0.15">
<path d="M242.44 19.8578C241.406 13.9592 236.174 9.6117 229.518 9.4707C230.943 10.4107 236.864 13.1837 237.553 14.6172C239.824 19.3173 238.32 34.3338 234.749 38.1174C227.795 45.4729 60.7432 43.0994 49.8258 42.8174C39.5975 42.5354 16.7131 46.7184 18.4988 29.4458C18.7494 26.8843 16.5722 20.1633 15.695 17.6958C14.9901 15.7452 17.9662 13.1602 19.2193 11.2567C19.4031 10.9811 19.6022 10.7296 19.8145 10.5047C15.8203 12.0557 12.9382 15.2047 12.343 19.9048C10.3537 34.2164 12.5466 55.86 14.4106 65.119C15.742 71.5581 19.9711 75.5061 26.8318 75.5061H227.873C234.718 75.5061 239.151 70.8061 240.294 65.119C242.001 56.4005 245.165 35.2504 242.44 19.8578Z" fill="#845A33"/>
</g>
<g style="mix-blend-mode:multiply" opacity="0.15">
<path d="M242.44 19.8573C242.061 18.1558 241.446 16.5938 240.636 15.2736C239.826 13.9533 238.84 12.9047 237.741 12.1963C238.764 13.6493 239.603 15.3693 240.216 17.2723C240.707 19.2708 240.902 21.4064 240.785 23.5294C240.669 25.6524 240.245 27.7116 239.542 29.5629C236.222 40.1145 245.808 49.867 233.919 55.272C224.239 59.7136 32.1419 60.9121 22.4618 55.272C11.4974 48.9035 17.3869 39.715 14.7711 29.0929C13.7501 25.536 13.1054 21.7619 12.8601 17.9068C12.8523 17.7425 12.8523 17.5776 12.8601 17.4133C12.5919 18.1503 12.3967 18.9419 12.2806 19.7633C10.3539 34.2159 12.5468 55.8595 14.4108 65.1186C15.7422 71.5576 19.9713 75.5057 26.832 75.5057H227.873C234.718 75.5057 239.151 70.8056 240.294 65.1186C242.002 56.4 245.166 35.2499 242.44 19.8573Z" fill="#845A33"/>
</g>
<path d="M12.2656 19.8573C12.4266 18.1924 12.854 16.6108 13.5115 15.2479C14.1689 13.885 15.0367 12.7815 16.0405 12.0318C19.4118 9.57775 23.1358 8.41511 26.8797 8.64776C36.2778 8.43626 196.923 8.31876 206.336 8.36576C214.043 8.36576 221.796 8.36576 229.503 8.69476C236.818 9.14126 241.611 13.9353 242.441 19.8573C240.781 14.5228 236.097 10.2223 229.174 10.2458C221.906 10.2458 214.309 10.5043 206.916 10.5278C197.847 10.5278 37.5465 10.5278 28.493 10.3163C24.3579 10.3163 20.395 10.3163 17.0273 12.6663C15.9557 13.332 14.983 14.3105 14.1656 15.545C13.3481 16.7795 12.7023 18.2453 12.2656 19.8573Z" fill="#FBEECD"/>
<path opacity="0.5" d="M242.439 19.8575C245.071 33.6521 244.131 47.8227 241.969 61.6173C241.076 67.3748 239.4 73.7904 231.96 75.9759C228.617 76.6405 225.241 76.845 221.873 76.5869H207.557C198.284 76.5869 37.7798 76.5869 28.5226 76.5869C25.7766 76.742 23.0307 76.2746 20.3776 75.2004C18.8959 74.6296 17.5185 73.5667 16.3473 72.0902C15.1761 70.6137 14.241 68.7613 13.611 66.6698C12.7589 63.1024 12.1962 59.394 11.935 55.6248C11.5591 51.8177 11.2458 47.9872 11.1048 44.1802C10.7329 37.1166 10.9539 30.011 11.7627 23.0301C11.9036 21.9491 12.0446 20.8681 12.2013 19.8105C11.363 33.8703 12.255 48.0415 14.8327 61.6173C15.5063 65.0483 16.0232 68.6673 18.7799 71.4639C21.2633 73.6403 24.1151 74.6855 26.9876 74.4719C35.2266 74.4719 43.45 74.4719 51.689 74.4719H217.315C221.387 74.4719 225.742 74.8714 229.846 74.3544C236.377 73.5554 238.711 67.9153 239.651 63.1918C242.47 49.0917 244.146 34.4276 242.533 20.1395C242.512 20.0387 242.48 19.9436 242.439 19.8575Z" fill="#FBEECD"/>
<path d="M32.6585 15.4398C30.356 9.0478 19.8458 15.8393 18.4047 19.2704C17.9035 20.4454 17.0577 22.7954 18.0445 23.9704C20.1904 26.4849 26.2835 22.8424 28.1474 21.7379C30.3403 20.3984 33.5983 18.0014 32.6585 15.4398Z" fill="#FBEECD"/>
<path d="M40.5852 13.7008C39.0189 13.3483 35.8862 14.5703 36.0115 16.7088C36.1838 20.2338 40.0057 17.6723 41.0864 16.0508C42.1672 14.4293 41.5407 13.9123 40.5852 13.7008Z" fill="#FBEECD"/>
<defs>
<linearGradient id="paint0_linear_3633_5045" x1="127.517" y1="35.5792" x2="127.517" y2="2.60854" gradientUnits="userSpaceOnUse">
<stop/>
<stop offset="1" stop-color="#EBB456"/>
</linearGradient>
<linearGradient id="paint1_linear_3633_5045" x1="127.439" y1="41.4778" x2="127.439" y2="102.249" gradientUnits="userSpaceOnUse">
<stop stop-color="white"/>
<stop offset="1" stop-color="#5A3A1D"/>
</linearGradient>
</defs>
</svg>
