<svg width="240" height="83" viewBox="0 0 240 83" fill="none" xmlns="http://www.w3.org/2000/svg">
<path d="M239.042 41.239C239.042 49.1634 237.063 56.6026 233.67 62.9097C232.963 64.2035 232.115 65.4973 231.267 66.6293C224.764 76.1709 214.586 82.1546 203.136 82.1546H35.9058C24.0314 82.1546 13.5707 75.524 7.06806 65.4973C5.65445 63.2332 4.3822 60.9691 3.39267 58.3815C1.13089 53.2064 0 47.3844 0 41.239C0 36.3873 0.706806 31.8591 1.97906 27.4926C2.26178 26.684 2.5445 26.0371 2.82723 25.3902V25.2285C3.39267 23.9347 3.81675 22.641 4.52356 21.3472C4.52356 21.1855 4.66492 21.1855 4.66492 21.0238C10.8848 8.57116 22.4764 0.161621 35.9058 0.161621H203.277C218.403 0.161621 231.267 10.8353 236.497 25.8754C237.063 27.6544 237.628 29.2716 238.052 31.0505C238.759 34.285 239.042 37.6811 239.042 41.239Z" fill="url(#paint0_linear_3628_373)"/>
<path opacity="0.6" d="M235.083 41.2389C235.083 48.0312 233.386 54.8236 230.276 60.4838C229.711 61.6159 229.004 62.7479 228.156 63.88C222.077 72.7747 213.03 77.7881 203.135 77.7881H35.9047C25.868 77.7881 16.2555 72.2895 10.1769 62.9097C8.90468 60.969 7.77379 58.8666 6.92562 56.6025C4.94656 51.7508 3.95703 46.7375 3.95703 41.2389C3.95703 38.8131 4.09839 36.3873 4.52248 34.1231C5.08792 37.0341 5.79473 39.7834 6.92562 42.371C7.77379 44.6351 8.90468 46.7375 10.1769 48.6781C16.1141 58.058 25.7267 63.5565 35.9047 63.5565H203.276C213.03 63.5565 222.219 58.5432 228.297 49.6485C229.004 48.5164 229.711 47.3843 230.418 46.2523C232.397 42.5327 233.81 38.3279 234.659 33.9614C234.941 36.3873 235.083 38.8131 235.083 41.2389Z" fill="url(#paint1_linear_3628_373)"/>
<path d="M233.669 62.9098C233.528 63.2332 233.245 63.5567 233.104 63.8801C232.538 64.8504 231.973 65.8208 231.408 66.6294C218.685 60.8074 202.57 56.9261 184.476 59.6753C162.706 63.0715 148.57 69.2169 134.858 75.2006C129.203 77.6265 123.832 80.0523 117.894 82.1547H101.779C113.654 79.5671 123.266 75.3624 133.303 70.9959C147.156 64.8504 161.575 58.5433 183.769 55.1471C203.135 52.2361 220.24 56.6026 233.669 62.9098Z" fill="#239A41"/>
<g opacity="0.7">
<path d="M233.106 63.8803C232.54 64.8507 231.975 65.821 231.409 66.6296C218.687 60.8076 202.572 56.9263 184.477 59.6756C162.708 63.0717 148.572 69.2172 134.86 75.2009C129.205 77.6267 123.833 80.0525 117.896 82.1549H111.959C120.299 79.7291 127.65 76.3329 135.284 73.0985C149.137 66.953 163.556 60.6459 185.75 57.2497C203.844 54.5005 220.1 58.2201 233.106 63.8803Z" fill="#2EA94D"/>
</g>
<path d="M238.052 31.2122C211.052 20.0534 168.927 15.2017 123.55 35.2552C80.0104 54.5001 47.78 68.8934 24.314 68.8934C17.9528 68.8934 12.157 67.9231 7.06797 65.4972C5.65436 63.2331 4.38211 60.969 3.39258 58.3815C25.869 73.745 63.4711 57.0877 122.136 31.0505C166.806 11.1587 208.649 15.3634 236.639 25.8754C237.063 27.6543 237.628 29.2715 238.052 31.2122Z" fill="#2EA94D"/>
<g opacity="0.2">
<path d="M98.1056 0.161621C64.3203 15.8486 38.1684 26.8457 18.3779 27.3309C12.7234 27.4926 7.63441 26.8457 2.82812 25.0668C3.11085 24.4199 3.39357 23.6113 3.67629 22.9644C3.95901 22.3175 4.24174 21.8324 4.52446 21.1855C4.52446 21.0238 4.66582 21.0238 4.66582 20.862C23.3255 27.0075 50.1841 17.3041 87.5035 0.161621H98.1056Z" fill="#2EA94D"/>
</g>
<path d="M98.1056 0.161722C64.3203 15.8487 38.1684 26.8458 18.3779 27.331C12.7234 27.4927 7.63441 26.8458 2.82812 25.0669C3.11085 24.42 3.39357 23.6114 3.67629 22.9645C16.2574 27.8162 29.8281 24.7435 42.4093 20.8621C50.4669 18.4363 58.3831 15.3636 66.158 12.1291C70.6815 10.1885 75.0637 8.40954 79.4459 6.30716C83.6868 4.36649 87.7862 2.26411 92.0271 0H98.1056V0.161722Z" fill="#63E684"/>
<g opacity="0.9">
<path d="M238.052 31.2122C211.052 20.0534 168.927 15.2017 123.55 35.2552C80.0103 54.5001 47.78 68.8934 24.314 68.8934C17.9527 68.8934 12.1569 67.9231 7.06791 65.4972C6.50246 64.6886 6.07838 63.88 5.6543 63.0714L7.06791 63.7183C12.2983 65.9824 17.9527 67.1144 24.314 67.1144C47.9213 67.1144 80.0103 52.8829 123.55 33.4763C168.644 13.4228 210.487 18.2744 237.628 29.1098C237.769 29.7567 237.911 30.4036 238.052 31.2122Z" fill="#2EA94D"/>
</g>
<g style="mix-blend-mode:plus-darker" opacity="0.2">
<path d="M236.62 56.1714C234.678 60.9317 234.123 62.5184 230.794 67.2787C230.087 68.0899 228.273 70.6345 227.466 71.4043C220.808 77.7513 214.653 81.8769 203.199 81.8769H35.9169C24.0389 81.8769 17.6005 76.7392 11.0958 70.4522C9.68179 69.0326 8.06005 66.997 7.07022 65.3746C4.80773 62.1297 4.16092 60.297 2.77394 56.4887C1.66437 53.6326 0.554741 49.507 0.277344 46.3335C20.4983 68.5406 183.544 69.9114 237.985 49.9352C237.985 52.3632 237.452 53.9499 236.62 56.1714Z" fill="url(#paint2_linear_3628_373)"/>
</g>
<path opacity="0.3" d="M18.3766 9.21776C11.0258 16.8187 55.1305 33.6378 111.816 33.6378C168.502 33.6378 222.785 18.7594 221.23 11.4819C218.261 -1.61761 23.3242 4.20438 18.3766 9.21776Z" fill="url(#paint3_linear_3628_373)"/>
<path opacity="0.3" d="M37.7438 9.70329C31.8066 14.0698 67.4296 23.9348 113.231 23.9348C159.032 23.9348 202.854 15.2018 201.581 10.9971C199.178 3.39614 41.8432 6.7923 37.7438 9.70329Z" fill="url(#paint4_linear_3628_373)"/>
<defs>
<linearGradient id="paint0_linear_3628_373" x1="119.616" y1="0.161621" x2="119.616" y2="82.1546" gradientUnits="userSpaceOnUse">
<stop stop-color="#95E413"/>
<stop offset="1" stop-color="#079D2D"/>
</linearGradient>
<linearGradient id="paint1_linear_3628_373" x1="119.612" y1="33.9614" x2="119.612" y2="77.7881" gradientUnits="userSpaceOnUse">
<stop stop-color="#95E413"/>
<stop offset="1" stop-color="#079D2D"/>
</linearGradient>
<linearGradient id="paint2_linear_3628_373" x1="119.226" y1="46.3335" x2="119.226" y2="81.8769" gradientUnits="userSpaceOnUse">
<stop stop-color="#95E413"/>
<stop offset="1" stop-color="#079D2D"/>
</linearGradient>
<linearGradient id="paint3_linear_3628_373" x1="119.5" y1="3.49414" x2="119.5" y2="33.6378" gradientUnits="userSpaceOnUse">
<stop stop-color="#95E413"/>
<stop offset="1" stop-color="#079D2D"/>
</linearGradient>
<linearGradient id="paint4_linear_3628_373" x1="119.418" y1="6.37012" x2="119.418" y2="23.9348" gradientUnits="userSpaceOnUse">
<stop stop-color="#95E413"/>
<stop offset="1" stop-color="#079D2D"/>
</linearGradient>
</defs>
</svg>
