<svg width="341" height="338" viewBox="0 0 341 338" fill="none" xmlns="http://www.w3.org/2000/svg">
<path fill-rule="evenodd" clip-rule="evenodd" d="M307.14 335.91C299.357 332.881 291.138 331.119 282.796 330.694C250.581 330.061 186.529 335.12 154.218 337.681C118.145 333.634 63.1033 326.204 26.2718 337.017C20.8024 336.542 2.90827 320.735 2.87666 315.835C2.46566 275.683 10.4327 232.75 12.9935 194.781C12.5126 181.072 11.012 167.419 8.50414 153.934C10.7804 117.577 11.6762 80.1865 11.1914 41.7636C12.8354 37.9382 22.6361 31.2991 26.2086 30.8565C38.59 29.0691 51.1175 28.5078 63.6092 29.1809C72.2561 29.1252 80.8762 28.2145 89.3438 26.462C127.977 26.462 195.286 27.5369 234.773 30.1293C249.134 29.7053 263.459 28.4491 277.675 26.3671C297.75 26.1458 302.24 26.1142 308.215 26.62C314.461 30.0499 320.118 34.458 324.971 39.6771C326.235 72.4935 327.5 133.258 332.116 164.43C330.725 198.132 327.437 235.374 328.038 268.507C325.066 285.01 331.642 293.135 329.302 312.199C324.655 321.209 313.084 333.096 307.172 335.91H307.14Z" fill="url(#paint0_radial_3640_17950)"/>
<path fill-rule="evenodd" clip-rule="evenodd" d="M314.317 325.983C304.485 325.066 298.035 324.845 289.025 324.402C255.102 323.706 187.351 325.066 153.428 327.88C118.651 325.445 87.8266 324.718 53.0501 324.718C41.5559 324.405 30.0582 325.199 18.7161 327.089C15.5546 326.805 3.73058 319.344 2.90859 315.739C2.43436 271.036 1.80206 220.515 4.71064 177.455C4.20476 163.026 2.63023 148.655 0 134.459C2.37113 96.1728 3.38281 56.9069 2.81374 16.3764C4.55257 12.3929 14.8591 5.34278 18.6213 4.90017C31.6522 3.02484 44.8365 2.4424 57.982 3.16134C67.0875 3.09304 76.1636 2.11871 85.0761 0.252755C125.733 0.252755 196.582 1.3909 238.093 4.14141C253.237 3.67742 268.342 2.34742 283.334 0.15791C304.453 -0.000165134 309.195 -0.000165134 315.487 0.442446C322.051 4.07422 328.004 8.71501 333.128 14.195C334.424 48.7186 335.784 112.676 340.621 145.492C339.166 180.964 335.689 220.167 336.353 255.038C333.191 272.427 331.768 292.123 329.302 312.199C324.881 317.38 319.849 322.009 314.317 325.983Z" fill="url(#paint1_radial_3640_17950)"/>
<path fill-rule="evenodd" clip-rule="evenodd" d="M142.489 0.853607C137.362 5.07799 132.455 9.56269 127.788 14.29C115.505 18.7087 103.822 24.6456 93.0115 31.9628C78.1992 37.4922 62.794 41.2798 47.1064 43.2494C41.9532 45.4941 19.0006 54.947 2.84536 60.6693C18.2563 56.5516 33.3114 51.2019 47.8652 44.6721C60.8735 42.5999 73.7356 39.6959 86.3723 35.9779C88.6822 35.2541 91.1704 35.3433 93.4225 36.2309C101.088 39.6717 108.281 44.0811 114.826 49.3511C118.935 53.6371 123.329 57.6403 127.978 61.3332C128.998 62.1217 129.803 63.1554 130.317 64.3383C130.831 65.5211 131.038 66.8147 130.918 68.0988C130.602 72.4617 130.096 77.9627 129.748 83.4005C129.306 90.1029 128.958 96.7105 128.42 100.884C127.756 106.385 127.124 107.207 121.876 109.167C103.823 115.416 86.322 123.157 69.5531 132.309C50.5841 132.562 13.6261 131.898 0 134.459C13.6261 134.459 57.16 134.301 66.0439 135.154C66.3799 135.363 66.6687 135.64 66.8919 135.966C67.1151 136.293 67.2677 136.662 67.3401 137.051C67.8143 140.213 43.1546 191.777 30.6666 205.34C29.4336 206.668 27.6948 206.383 25.5766 205.15L3.85704 192.251C5.6591 194.148 25.3553 206.921 28.8962 209.007C36.7515 219.505 45.8015 229.054 55.8638 237.461C60.7641 241.634 62.3765 242.867 57.3497 246.945C51.4693 251.782 38.1594 262.468 26.0824 273.344C17.989 280.678 10.6227 288.424 5.84879 293.577C4.53606 294.91 3.46614 296.461 2.68728 298.162C10.3116 289.631 18.4295 281.556 26.9993 273.976C36.9724 264.92 47.685 256.714 59.0253 249.443C65.6329 245.396 69.3002 244.795 81.1559 248.336C121.64 260.128 161.405 274.263 200.25 290.669C213.17 289.238 226.177 288.752 239.168 289.215C247.23 289.467 249.474 289.215 257.979 298.004C266.483 306.793 273.786 315.36 281.437 324.276H282.797L255.228 292.661C253.521 290.7 251.561 288.582 254.817 286.59C255.703 286.053 256.999 285.452 258.674 284.567C279.414 273.439 315.297 262.974 336.353 255.165C314.791 257.821 266.799 278.339 257.505 282.67C253.235 285.995 247.961 287.767 242.551 287.697L200.787 287.128C156.716 270.014 111.116 254.659 63.9889 241.065C53.5085 233.536 43.9574 224.791 35.5353 215.014C34.0494 213.307 30.8247 208.501 32.3738 206.288C39.1711 196.804 44.0714 186.813 51.3429 174.42C60.6377 158.423 63.3882 149.128 75.1174 132.119H74.9277C92.9187 123.007 111.649 115.435 130.918 109.483C166.182 115.43 201.859 118.602 237.619 118.967C258.031 128.643 279.173 136.698 300.849 143.058C304.706 144.165 305.718 144.797 307.172 148.654C309.227 154.724 311.029 167.433 312.325 172.46C321.81 184.221 330.978 203.696 336.89 220.958C334.835 207.711 321.462 181.85 314.759 171.069C313.906 167.655 308.753 149.982 308.942 147.769C309.164 145.05 310.46 145.492 312.546 145.429C318.869 145.208 335.562 145.429 341 145.429C331.01 144.449 311.503 144.196 306.887 143.09C285.591 136.988 264.765 129.348 244.574 120.232C240.022 118.209 238.757 117.071 244.922 114.636C262.644 107.331 279.688 98.4761 295.854 88.1744C305.338 76.1291 330.852 57.7607 335.025 57.9188C335.025 56.7806 335.025 55.6741 335.025 54.5676C320.052 63.425 306.415 74.3682 294.526 87.0679C277.353 97.8011 259.385 107.208 240.78 115.205C237.558 116.823 233.982 117.606 230.379 117.482C198.764 116.723 159.909 113.783 137.367 107.712C135.35 107.222 133.576 106.021 132.372 104.33C131.552 102.588 131.121 100.69 131.108 98.7654C130.675 93.7268 130.675 88.6604 131.108 83.6218C131.613 77.2988 132.056 71.2603 133.163 64.9373C132.354 62.4486 131.865 59.867 131.708 57.2549C130.76 46.0315 129.337 33.101 129.337 21.5931C128.894 19.2039 129.417 16.7364 130.791 14.7326C133.985 9.48452 141.256 2.90859 142.489 0.853607ZM307.33 0C312.42 6.32301 317.668 12.2034 323.296 18.0206C326.457 20.0439 329.998 22.0673 333.476 23.9326V22.3835C330.222 20.8649 327.055 19.1656 323.991 17.2934C318.395 11.7608 313.432 5.97525 308.721 0H307.33ZM123.109 19.5697C113.694 22.7106 104.684 26.9555 96.2679 32.2157C95.6988 33.259 95.5091 33.8913 95.6672 34.3972C95.9833 35.4405 113.688 46.8535 115.964 48.371C119.292 53.1484 123.604 57.1584 128.61 60.1318C131.013 61.7758 130.823 60.9538 130.665 58.4246C130.507 55.8954 129.4 45.5573 128.831 36.2941C128.484 31.1092 128.326 25.9876 128.262 22.7945C128.262 20.2969 127.82 18.6529 123.267 19.8859L123.109 19.5697Z" fill="url(#paint2_radial_3640_17950)"/>
<path fill-rule="evenodd" clip-rule="evenodd" d="M127.789 14.2899C132.456 9.56257 137.363 5.07788 142.49 0.853494C121.118 0.474113 100.821 0.316038 85.0768 0.252808C76.1643 2.11876 67.0882 3.09309 57.9827 3.16139C44.8362 2.45292 31.6518 3.04595 18.622 4.93184C14.8598 5.37445 4.55328 12.4246 2.81445 16.4081C3.02522 31.3304 3.02522 46.0841 2.81445 60.6692C5.50173 59.7207 8.3787 58.6774 11.3189 57.5077C26.1464 51.9434 42.934 45.0513 47.1388 43.1861C62.8263 41.2165 78.2315 37.4288 93.0438 31.8995C95.8892 29.971 98.7978 28.1689 101.706 26.4617C110.001 21.5807 118.733 17.4846 127.789 14.2267V14.2899Z" fill="url(#paint3_radial_3640_17950)"/>
<path fill-rule="evenodd" clip-rule="evenodd" d="M114.794 49.351C108.25 44.081 101.057 39.6716 93.3909 36.2308C91.1388 35.3432 88.6506 35.254 86.3407 35.9778C73.704 39.6958 60.8419 42.5998 47.8336 44.672C36.0156 50.0588 23.8223 54.5811 11.3498 58.2032C8.50445 59.0463 5.65909 59.8683 2.81374 60.6692C2.47651 85.7083 1.5386 110.305 0 134.459C3.19241 133.92 6.41111 133.551 9.64259 133.352C26.5883 132.119 54.0617 132.499 69.4267 132.309C86.226 123.152 103.759 115.411 121.844 109.167C127.093 107.333 127.725 106.385 128.389 100.884C128.926 96.7104 129.274 90.1028 129.717 83.4004C130.064 77.9626 130.57 72.4616 130.886 68.0987C131.006 66.8146 130.8 65.521 130.285 64.3382C129.771 63.1553 128.967 62.1216 127.946 61.3331C123.297 57.6402 118.903 53.6371 114.794 49.351Z" fill="url(#paint4_radial_3640_17950)"/>
<path fill-rule="evenodd" clip-rule="evenodd" d="M95.6668 34.2392C95.983 35.2825 113.687 46.6956 115.964 48.2131C119.292 52.9905 123.604 57.0005 128.61 59.9739C131.012 61.6179 130.823 60.7959 130.665 58.2667C130.507 55.7375 129.4 45.3993 128.831 36.1361C128.61 32.9746 128.483 29.8131 128.388 26.9361C128.388 25.2922 128.388 23.7746 128.388 22.6365C128.388 20.1389 127.946 18.4949 123.393 19.7279C117.491 21.5528 111.741 23.836 106.195 26.5568C102.78 28.264 99.4922 30.0977 96.2675 32.0578C95.6984 33.1011 95.5087 33.7334 95.6668 34.2392Z" fill="url(#paint5_radial_3640_17950)"/>
<path fill-rule="evenodd" clip-rule="evenodd" d="M129.368 26.778C129.716 36.8315 130.854 47.5807 131.644 57.0968C131.801 59.709 132.29 62.2905 133.099 64.7793C131.992 71.1023 131.549 77.0775 131.044 83.4637C130.611 88.5024 130.611 93.5688 131.044 98.6074C131.057 100.532 131.488 102.43 132.308 104.172C133.515 105.948 135.342 107.211 137.43 107.712C160.035 113.814 198.858 116.723 230.505 117.482C234.108 117.606 237.684 116.823 240.906 115.205C259.511 107.208 277.479 97.8011 294.652 87.0679C303.846 76.9277 314.252 67.9556 325.634 60.3531C329.238 57.9504 332.273 56.0535 334.455 54.6308C334.044 43.5972 333.728 33.1326 333.412 23.9642C329.934 22.0989 326.551 20.0756 323.232 18.0522C317.667 12.235 312.419 6.32301 307.329 0C302.587 0 295.853 0 283.333 0C268.344 2.24243 253.239 3.62521 238.092 4.14157C212.8 2.43436 176.253 1.42268 142.488 0.980067C141.255 2.90859 133.984 9.48452 130.727 14.5745C129.353 16.5783 128.83 19.0458 129.273 21.435C129.273 23.2055 129.273 24.9759 129.273 26.778H129.368Z" fill="url(#paint6_radial_3640_17950)"/>
<path fill-rule="evenodd" clip-rule="evenodd" d="M295.474 88.2375C279.308 98.5392 262.265 107.394 244.542 114.699C238.377 117.197 239.642 118.272 244.194 120.295C264.436 129.419 285.315 137.058 306.666 143.153C309.827 143.943 320.576 144.291 330.061 144.797C334.044 144.987 337.838 145.208 340.778 145.492C337.617 123.994 335.941 89.1544 334.803 57.9819C331.579 58.8561 328.559 60.3604 325.919 62.408C316.435 68.7311 302.113 79.9228 295.632 88.2375H295.474Z" fill="url(#paint7_radial_3640_17950)"/>
<path fill-rule="evenodd" clip-rule="evenodd" d="M312.293 145.619C310.206 145.619 308.91 145.24 308.689 147.959C308.499 150.172 313.652 167.844 314.506 171.259C320.464 180.914 325.746 190.971 330.313 201.356C333.222 207.736 335.386 214.43 336.763 221.306C337.68 196.013 339.608 169.994 340.62 145.651H329.966C323.453 145.651 316.023 145.651 312.293 145.651V145.619Z" fill="url(#paint8_radial_3640_17950)"/>
<path fill-rule="evenodd" clip-rule="evenodd" d="M307.045 148.843C305.749 144.986 304.737 144.354 300.722 143.248C279.046 136.888 257.904 128.833 237.492 119.157C201.731 118.791 166.055 115.62 130.791 109.672C111.522 115.624 92.7917 123.197 74.8007 132.309H74.9904C63.2612 149.191 60.5107 158.613 51.2158 174.61C44.0392 187.003 39.1389 196.74 32.2468 206.478C30.6977 208.691 33.9224 213.496 35.4083 215.203C43.8304 224.981 53.3815 233.725 63.8619 241.254C110.968 254.828 156.568 270.203 200.66 287.381L242.55 287.697C247.984 287.713 253.26 285.873 257.504 282.48C265.629 278.655 304.263 262.12 327.974 256.556C330.738 255.885 333.534 255.358 336.352 254.975C336.131 244.036 336.352 232.655 336.763 221.084C334.834 215.456 332.558 209.576 330.029 203.79C325.405 192.689 319.415 182.206 312.198 172.586C310.902 167.56 309.037 154.85 307.045 148.78V148.843Z" fill="url(#paint9_radial_3640_17950)"/>
<path fill-rule="evenodd" clip-rule="evenodd" d="M30.6666 205.498C43.3126 191.935 67.8143 140.403 67.3401 137.209C67.2677 136.82 67.1151 136.451 66.8919 136.124C66.6687 135.798 66.3799 135.521 66.0439 135.312C58.7092 134.617 27.8529 134.554 9.61098 134.585H0C2.63023 148.781 4.20476 163.153 4.71064 177.582C4.39449 182.408 4.10996 187.34 3.85704 192.378L12.8041 197.689L25.4501 205.277C27.5683 206.51 29.3072 206.794 30.5401 205.466L30.6666 205.498Z" fill="url(#paint10_radial_3640_17950)"/>
<path fill-rule="evenodd" clip-rule="evenodd" d="M55.8643 237.461C45.802 229.054 36.752 219.506 28.8967 209.007C26.8101 207.774 19.096 202.684 12.7414 198.574C9.67137 196.624 6.706 194.513 3.85753 192.251C2.21355 226.048 2.37162 263.29 2.68777 298.225C3.46663 296.525 4.53655 294.973 5.84928 293.641C7.33519 292.06 9.01078 290.226 10.9077 288.266C15.2073 283.777 20.3922 278.497 26.0829 273.407C38.1599 262.532 51.375 251.846 57.3502 247.009C62.377 242.867 60.7646 241.634 55.8643 237.524V237.461Z" fill="url(#paint11_radial_3640_17950)"/>
<path fill-rule="evenodd" clip-rule="evenodd" d="M81.1244 248.399C69.3004 244.859 65.6331 245.459 58.9939 249.506C47.6645 256.778 36.9625 264.985 26.9995 274.039C21.2455 279.224 15.8077 284.535 10.939 289.341C7.77752 292.502 5.02701 295.664 2.6875 298.225C2.6875 304.168 2.6875 310.049 2.87719 315.834C3.35142 317.889 7.27168 321.146 11.2236 323.643C13.4785 325.261 16.0057 326.46 18.6847 327.184C30.0268 325.294 41.5245 324.5 53.0187 324.813C87.7952 324.592 118.62 325.445 153.396 327.974C185.012 325.35 245.807 323.991 281.437 324.37C273.755 315.455 266.104 306.603 257.979 298.098C249.854 289.594 247.23 289.562 239.168 289.309C226.177 288.846 213.17 289.332 200.25 290.764C161.396 274.346 121.62 260.2 81.1244 248.399Z" fill="url(#paint12_radial_3640_17950)"/>
<path fill-rule="evenodd" clip-rule="evenodd" d="M254.817 286.464C251.655 288.456 253.52 290.574 255.228 292.534L282.796 324.149H289.119C298.161 324.592 304.61 324.813 314.411 325.73C316.992 323.91 319.453 321.924 321.777 319.786C324.476 317.332 327.02 314.713 329.396 311.946C331.862 291.87 333.285 272.174 336.447 254.786L328.069 257.947C306.665 265.566 276.884 274.672 258.674 284.535C256.998 285.421 255.702 286.021 254.817 286.559V286.464Z" fill="url(#paint13_radial_3640_17950)"/>
<path style="mix-blend-mode:multiply" fill-rule="evenodd" clip-rule="evenodd" d="M64.6216 323.454C153.776 321.177 228.008 319.786 308.627 323.801C310.555 324.197 312.562 323.859 314.254 322.853C315.614 321.588 315.487 319.186 315.519 317.352C315.519 311.25 315.961 304.295 315.708 299.426L297.878 297.845L315.424 293.672C313.812 260.476 312.673 226.996 312.073 193.453L302.588 190.291L312.073 187.129C311.346 139.359 314.823 94.7503 316.53 47.0748C312.035 36.1038 306.42 25.6259 299.774 15.8075C299.273 14.8371 298.509 14.0266 297.571 13.4678C296.632 12.909 295.555 12.6243 294.463 12.646C258.833 15.8075 89.5027 19.38 25.2925 16.1869C23.6155 16.1869 22.0073 16.853 20.8215 18.0388C19.6357 19.2246 18.9695 20.8329 18.9695 22.5099C18.6217 36.547 20.1709 45.6521 20.6451 59.0253L27.5372 63.3882L24.3757 67.4665L24.9447 70.628L21.0561 73.3469C22.5525 123.088 22.3945 172.618 20.5819 221.938L25.7983 224.657L23.2059 229.525L30.5722 233.287L20.0444 235.943C19.2224 255.703 16.1874 275.652 16.0293 294.874C26.6836 306.065 47.9605 317.953 64.6216 323.327V323.454Z" fill="url(#paint14_radial_3640_17950)"/>
<path fill-rule="evenodd" clip-rule="evenodd" d="M64.8732 314.759C78.1515 317.921 271.035 316.372 322.03 312.831L320.892 293.261L302.65 291.744L320.607 287.697C318.921 256.082 317.773 224.224 317.161 192.125L307.424 188.963L317.066 185.96C316.308 140.402 316.687 94.6869 318.426 49.2561L295.189 16.8507C292.027 15.4596 65.5371 18.052 13.2774 20.0122C14.1626 34.7659 14.8898 49.4458 15.4588 64.0519L22.5406 68.2251L19.3791 72.1138L19.9798 75.2753L15.8066 77.7096C17.4084 125.174 17.303 172.418 15.4905 219.44L20.8018 222.032L18.1461 226.617L25.7021 230.189L14.9214 232.75C14.0362 252.267 12.8664 271.752 11.4121 291.206L64.8732 314.728V314.759Z" fill="url(#paint15_linear_3640_17950)"/>
<path style="mix-blend-mode:multiply" fill-rule="evenodd" clip-rule="evenodd" d="M64.8419 314.728L11.3809 291.238C13.0565 288.677 29.7176 275.431 31.9939 275.241C34.2702 275.051 59.3093 310.017 64.8419 314.728Z" fill="url(#paint16_radial_3640_17950)"/>
<path style="mix-blend-mode:multiply" fill-rule="evenodd" clip-rule="evenodd" d="M318.426 49.351C313.083 46.7902 290.257 43.028 289.214 40.7517C288.171 38.4754 294.019 23.2686 295.189 16.8507L318.426 49.351Z" fill="url(#paint17_radial_3640_17950)"/>
<path fill-rule="evenodd" clip-rule="evenodd" d="M28.8008 280.773C40.1909 292.757 52.2335 304.103 64.8735 314.76C60.9533 314.76 11.3809 295.127 11.3809 291.238C16.8147 287.164 22.6519 283.657 28.8008 280.773Z" fill="url(#paint18_linear_3640_17950)"/>
<path fill-rule="evenodd" clip-rule="evenodd" d="M318.427 49.351C309.259 45.241 300.059 41.1943 291.27 36.3888C292.925 29.9509 294.234 23.4289 295.19 16.8507C297.466 16.8507 318.427 46.9166 318.427 49.351Z" fill="url(#paint19_linear_3640_17950)"/>
<path style="mix-blend-mode:screen" fill-rule="evenodd" clip-rule="evenodd" d="M53.7454 309.828C50.5839 298.699 26.7145 285.073 18.6211 286.274C21.8987 284.206 25.3101 282.358 28.8328 280.742C40.1882 292.706 52.1882 304.041 64.7791 314.696C61.0587 313.873 57.4191 312.72 53.9035 311.25C53.9086 310.771 53.8555 310.294 53.7454 309.828Z" fill="url(#paint20_radial_3640_17950)"/>
<path style="mix-blend-mode:screen" fill-rule="evenodd" clip-rule="evenodd" d="M294.905 34.2073C297.593 40.5303 309.322 44.7984 316.435 46.5688L317.225 46.7585C317.763 47.5524 318.168 48.4278 318.427 49.3509L317.668 49.0032C308.784 45.0197 299.837 41.0678 291.27 36.3571C292.925 29.9193 294.234 23.3972 295.19 16.819C295.429 16.8546 295.65 16.9654 295.822 17.1352C295.822 17.1352 295.822 17.3565 295.822 17.4829C294.368 21.9091 293.198 29.9393 295.032 34.1757L294.905 34.2073Z" fill="url(#paint21_radial_3640_17950)"/>
<path style="mix-blend-mode:screen" opacity="0.5" fill-rule="evenodd" clip-rule="evenodd" d="M71.2278 308.753C64.9048 305.876 62.5652 300.881 59.1824 292.692C49.4134 269.234 36.7041 273.439 26.4925 267.053C19.6952 262.784 17.5454 249.759 30.1282 232.529C41.7625 216.532 20.6437 198.859 21.4024 165.347C21.8767 143.912 33.3846 110.021 35.2498 100.03C36.9887 90.7986 39.1701 85.8982 30.4127 72.7464C27.0615 67.6564 30.8553 65.3168 22.5722 52.4495C18.2409 45.6839 19.6004 40.91 23.8684 37.464C37.1151 26.62 61.4271 23.7747 85.3597 26.62C152.257 34.7767 156.336 39.4241 213.085 28.4537C228.07 25.5451 233.413 26.3987 243.119 25.2922C250.58 24.4386 258.389 23.2056 264.838 25.2922C278.212 29.1176 271.889 42.3959 283.46 50.5842C300.026 62.3134 318.236 45.9684 309.89 80.0495C305.748 97.1848 300.88 117.102 308.657 138.316C310.902 144.449 310.87 159.877 308.341 165.537C298.224 188.11 288.866 184.506 302.302 197.499C313.273 208.027 297.844 216.658 305.748 228.451C313.652 240.243 309.827 250.866 301.259 274.134C300.121 277.296 305.812 281.184 295.189 287.381C287.759 291.712 314.158 304.137 254.658 304.137C237.808 304.137 232.528 310.46 215.582 309.828C203.242 309.552 190.896 309.911 178.593 310.903C157.284 312.294 135.722 307.267 132.624 307.362C108.154 308.184 91.1769 317.984 71.2278 308.753Z" fill="url(#paint22_radial_3640_17950)"/>
<path style="mix-blend-mode:screen" opacity="0.5" fill-rule="evenodd" clip-rule="evenodd" d="M44.8936 264.144C36.7369 256.777 32.8166 251.15 38.5706 230.663C46.917 200.186 30.5404 192.472 28.7383 173.503C26.462 149.191 28.3589 161.079 37.1163 143.912C42.5225 133.321 28.0744 130.001 44.862 110.084C57.508 95.256 54.3465 83.1791 42.9651 69.6162C33.7335 58.6458 32.6586 43.5654 42.5541 36.294C57.9822 24.9125 75.6234 37.7799 87.732 38.507C93.1951 38.4231 98.58 37.1953 103.54 34.9029C112.265 31.6149 134.522 41.0995 151.468 44.008C170.816 47.4857 187.572 47.1695 212.675 33.9861C234.616 22.5098 265.124 38.1593 271.289 49.7936C272.965 52.9551 284.536 50.2362 286.591 68.1303C287.508 75.9076 306.856 80.7764 295.411 101.927C293.293 105.752 291.839 128.009 295.601 134.68C299.901 142.299 299.869 159.403 295.411 166.011C282.765 184.758 300.849 200.123 291.523 213.749C282.196 227.375 290.132 238.535 290.132 249.063C290.132 271.194 282.291 257.757 286.686 279.351C290.543 298.32 274.988 300.786 258.611 296.992C247.704 294.463 232.055 303.915 215.33 304.769C195.128 305.781 190.607 295.822 173.44 298.92C147.2 303.663 137.304 288.424 119.063 300.343C105.089 309.322 91.6839 307.045 85.3609 300.88C77.5519 292.977 86.6571 302.872 74.5801 286.274C62.9142 270.245 48.9403 267.874 44.7671 264.144H44.8936Z" fill="url(#paint23_radial_3640_17950)"/>
<defs>
<radialGradient id="paint0_radial_3640_17950" cx="0" cy="0" r="1" gradientUnits="userSpaceOnUse" gradientTransform="translate(171.679 92.6639) scale(308.285 302.24)">
<stop stop-color="#9DA9AB"/>
<stop offset="1" stop-color="#555763"/>
</radialGradient>
<radialGradient id="paint1_radial_3640_17950" cx="0" cy="0" r="1" gradientUnits="userSpaceOnUse" gradientTransform="translate(265.938 -70.5017) scale(168.621 165.315)">
<stop stop-color="#717485"/>
<stop offset="1" stop-color="#9DA9AB"/>
</radialGradient>
<radialGradient id="paint2_radial_3640_17950" cx="0" cy="0" r="1" gradientUnits="userSpaceOnUse" gradientTransform="translate(-314.224 -449.25) scale(1097.38 1075.86)">
<stop stop-color="#E2F1F7"/>
<stop offset="1" stop-color="#9A9DB5"/>
</radialGradient>
<radialGradient id="paint3_radial_3640_17950" cx="0" cy="0" r="1" gradientUnits="userSpaceOnUse" gradientTransform="translate(91.9 85.8664) scale(151.434 148.464)">
<stop stop-color="#AAB4B8"/>
<stop offset="1" stop-color="#828599"/>
</radialGradient>
<radialGradient id="paint4_radial_3640_17950" cx="0" cy="0" r="1" gradientUnits="userSpaceOnUse" gradientTransform="translate(33.0478 23.237) scale(187.551 183.873)">
<stop stop-color="#717485"/>
<stop offset="1" stop-color="#9DA9AB"/>
</radialGradient>
<radialGradient id="paint5_radial_3640_17950" cx="0" cy="0" r="1" gradientUnits="userSpaceOnUse" gradientTransform="translate(137.206 75.1807) scale(64.0433 62.7875)">
<stop stop-color="#AAB4B8"/>
<stop offset="1" stop-color="#828599"/>
</radialGradient>
<radialGradient id="paint6_radial_3640_17950" cx="0" cy="0" r="1" gradientUnits="userSpaceOnUse" gradientTransform="translate(219.082 216.373) scale(244.919 240.116)">
<stop stop-color="#A3AAB0"/>
<stop offset="1" stop-color="#828599"/>
</radialGradient>
<radialGradient id="paint7_radial_3640_17950" cx="0" cy="0" r="1" gradientUnits="userSpaceOnUse" gradientTransform="translate(274.193 239.547) scale(226.763 222.317)">
<stop stop-color="#9DA9AB"/>
<stop offset="1" stop-color="#717485"/>
</radialGradient>
<radialGradient id="paint8_radial_3640_17950" cx="0" cy="0" r="1" gradientUnits="userSpaceOnUse" gradientTransform="translate(358.874 135.913) scale(143.211 140.402)">
<stop stop-color="#717485"/>
<stop offset="1" stop-color="#9DA9AB"/>
</radialGradient>
<radialGradient id="paint9_radial_3640_17950" cx="0" cy="0" r="1" gradientUnits="userSpaceOnUse" gradientTransform="translate(142.108 100.536) scale(357.623 350.611)">
<stop stop-color="#717485"/>
<stop offset="1" stop-color="#9DA9AB"/>
</radialGradient>
<radialGradient id="paint10_radial_3640_17950" cx="0" cy="0" r="1" gradientUnits="userSpaceOnUse" gradientTransform="translate(24.6313 120.706) scale(159.85 156.716)">
<stop stop-color="#717485"/>
<stop offset="1" stop-color="#9DA9AB"/>
</radialGradient>
<radialGradient id="paint11_radial_3640_17950" cx="0" cy="0" r="1" gradientUnits="userSpaceOnUse" gradientTransform="translate(-38.3151 346.659) scale(159.818 156.684)">
<stop stop-color="#AAB4B8"/>
<stop offset="1" stop-color="#828599"/>
</radialGradient>
<radialGradient id="paint12_radial_3640_17950" cx="0" cy="0" r="1" gradientUnits="userSpaceOnUse" gradientTransform="translate(130.564 188.868) scale(334.083 327.532)">
<stop stop-color="#717485"/>
<stop offset="1" stop-color="#9DA9AB"/>
</radialGradient>
<radialGradient id="paint13_radial_3640_17950" cx="0" cy="0" r="1" gradientUnits="userSpaceOnUse" gradientTransform="translate(285.157 235.406) scale(212.317 208.154)">
<stop stop-color="#717485"/>
<stop offset="1" stop-color="#9DA9AB"/>
</radialGradient>
<radialGradient id="paint14_radial_3640_17950" cx="0" cy="0" r="1" gradientUnits="userSpaceOnUse" gradientTransform="translate(170.848 257.315) scale(283.619 283.619)">
<stop stop-color="#706F6F"/>
<stop offset="1" stop-color="white"/>
</radialGradient>
<linearGradient id="paint15_linear_3640_17950" x1="166.737" y1="316.498" x2="166.737" y2="16.4397" gradientUnits="userSpaceOnUse">
<stop stop-color="#EDD6B9"/>
<stop offset="1" stop-color="#D4B492"/>
</linearGradient>
<radialGradient id="paint16_radial_3640_17950" cx="0" cy="0" r="1" gradientUnits="userSpaceOnUse" gradientTransform="translate(31.4248 318.016) scale(48.782 48.7821)">
<stop stop-color="#A48A7B"/>
<stop offset="1" stop-color="white"/>
</radialGradient>
<radialGradient id="paint17_radial_3640_17950" cx="0" cy="0" r="1" gradientUnits="userSpaceOnUse" gradientTransform="translate(314.316 30.9194) scale(27.8845 27.8845)">
<stop stop-color="#A48A7B"/>
<stop offset="1" stop-color="white"/>
</radialGradient>
<linearGradient id="paint18_linear_3640_17950" x1="37.3684" y1="304.769" x2="44.7031" y2="287.508" gradientUnits="userSpaceOnUse">
<stop stop-color="#BF9F7E"/>
<stop offset="1" stop-color="#EDD6B9"/>
</linearGradient>
<linearGradient id="paint19_linear_3640_17950" x1="309.322" y1="30.5716" x2="297.371" y2="42.5221" gradientUnits="userSpaceOnUse">
<stop stop-color="#BF9F7E"/>
<stop offset="1" stop-color="#EDD6B9"/>
</linearGradient>
<radialGradient id="paint20_radial_3640_17950" cx="0" cy="0" r="1" gradientUnits="userSpaceOnUse" gradientTransform="translate(23.3317 340.052) scale(82.4837 82.4837)">
<stop/>
<stop offset="1" stop-color="#A3805F"/>
</radialGradient>
<radialGradient id="paint21_radial_3640_17950" cx="0" cy="0" r="1" gradientUnits="userSpaceOnUse" gradientTransform="translate(323.738 6.73383) scale(54.0618 54.0617)">
<stop/>
<stop offset="1" stop-color="#A3805F"/>
</radialGradient>
<radialGradient id="paint22_radial_3640_17950" cx="0" cy="0" r="1" gradientUnits="userSpaceOnUse" gradientTransform="translate(165.915 168.382) scale(293.23 293.23)">
<stop stop-color="#CA9E67"/>
<stop offset="1"/>
</radialGradient>
<radialGradient id="paint23_radial_3640_17950" cx="0" cy="0" r="1" gradientUnits="userSpaceOnUse" gradientTransform="translate(163.355 168.129) scale(240.749 240.749)">
<stop stop-color="#CA9E67"/>
<stop offset="1"/>
</radialGradient>
</defs>
</svg>
