<svg width="251" height="81" viewBox="0 0 251 81" fill="none" xmlns="http://www.w3.org/2000/svg">
<path fill-rule="evenodd" clip-rule="evenodd" d="M8.12528 2.71976C24.6478 2.2438 39.5385 0.645943 56.231 0C67.552 0.237979 82.5447 0.917919 96.7895 0.407964C122.831 1.01991 149.825 1.05391 156.896 0.917919C184.706 1.83584 213.603 2.85575 243.113 3.73967C244.943 4.36232 246.528 5.55342 247.634 7.13937C248.518 11.151 249.402 14.5167 250.048 17.9844C250.048 20.3982 250.83 27.7416 250.83 32.5691C250.048 47.5958 248.858 61.8066 248.178 72.7196C245.515 74.8802 242.454 76.4972 239.169 77.4792C209.32 78.5671 178.62 79.213 145.711 80.3689C116.27 78.975 79.213 77.4112 49.4316 77.7851C33.997 76.8672 19.5823 76.4253 6.7994 76.5273C5.12549 75.5931 3.67529 74.3053 2.54978 72.7536C1.1899 57.9989 0.611946 44.1961 0 29.5434C0.441961 20.7722 2.00582 14.6527 2.51578 7.41135C4.05537 5.49035 5.96234 3.89543 8.12528 2.71976Z" fill="url(#paint0_radial_3640_17976)"/>
<path fill-rule="evenodd" clip-rule="evenodd" d="M5.50751 27.9458C6.42543 22.8122 8.22727 18.2566 9.48516 12.0352L2.68576 7.41156C2.00582 14.6529 0.441961 20.7724 0 29.5436L5.50751 27.9458Z" fill="url(#paint1_radial_3640_17976)"/>
<path fill-rule="evenodd" clip-rule="evenodd" d="M2.51562 7.4115L9.48501 12.0351C9.72299 11.8311 11.4228 10.1653 11.6608 9.99527L8.12513 2.71991C5.96218 3.89558 4.05521 5.4905 2.51562 7.4115Z" fill="url(#paint2_radial_3640_17976)"/>
<path fill-rule="evenodd" clip-rule="evenodd" d="M8.125 2.71976L11.5247 9.99512C26.8573 9.45117 46.2016 7.27536 60.3104 5.91548L56.2308 0C39.5382 0.645943 24.6475 2.2438 8.125 2.71976Z" fill="url(#paint3_radial_3640_17976)"/>
<path fill-rule="evenodd" clip-rule="evenodd" d="M56.2305 0L60.4461 5.91548C73.1909 5.58094 85.9426 6.21739 98.5907 7.81931L96.9929 0.407964H96.7889C82.5441 0.917919 67.5515 0.407964 56.2305 0Z" fill="url(#paint4_radial_3640_17976)"/>
<path fill-rule="evenodd" clip-rule="evenodd" d="M96.9941 0.407959L98.592 7.81931C110.41 6.545 122.339 6.70482 134.119 8.29526C141.802 7.81931 148.16 7.75131 155.265 6.62941L156.897 0.917914C149.859 0.917914 122.9 0.917914 96.9941 0.407959Z" fill="url(#paint5_radial_3640_17976)"/>
<path fill-rule="evenodd" clip-rule="evenodd" d="M156.897 0.917969L155.299 6.79945C181.681 8.56729 213.094 9.6212 239.679 11.1511L243.079 3.90971C213.604 2.8558 184.706 1.83589 156.897 0.917969Z" fill="url(#paint6_radial_3640_17976)"/>
<path fill-rule="evenodd" clip-rule="evenodd" d="M243.113 3.73956L239.713 10.9809C240.235 11.3586 240.703 11.8045 241.107 12.3068L247.668 7.27525C246.562 5.6893 244.977 4.4982 243.147 3.87555L243.113 3.73956Z" fill="url(#paint7_radial_3640_17976)"/>
<path fill-rule="evenodd" clip-rule="evenodd" d="M247.634 7.27539L241.072 12.3069C241.344 14.6527 241.48 16.9645 241.922 19.2763C243.078 23.8999 244.812 30.4273 245.322 32.8751H250.999C250.999 28.0476 250.387 20.7042 250.217 18.2904C249.571 14.8907 248.688 11.491 247.804 7.44538L247.634 7.27539Z" fill="url(#paint8_radial_3640_17976)"/>
<path fill-rule="evenodd" clip-rule="evenodd" d="M250.83 32.705H245.153C244.201 44.332 244.133 57.5568 243.453 69.6258L248.315 72.6515C248.859 61.7385 250.049 47.4937 250.83 32.637V32.705Z" fill="url(#paint9_radial_3640_17976)"/>
<path fill-rule="evenodd" clip-rule="evenodd" d="M243.452 69.6938C242.417 70.2251 241.35 70.6906 240.257 71.0877L239.305 77.4792C242.542 76.481 245.556 74.8646 248.178 72.7196L243.316 69.6938H243.452Z" fill="url(#paint10_radial_3640_17976)"/>
<path fill-rule="evenodd" clip-rule="evenodd" d="M240.257 71.0878C209.66 72.2097 176.445 73.6035 145.779 74.6914V80.3689C178.688 79.2131 209.388 78.5671 239.237 77.4792L240.189 71.0878H240.257Z" fill="url(#paint11_radial_3640_17976)"/>
<path fill-rule="evenodd" clip-rule="evenodd" d="M145.779 74.7935C132.622 73.5356 107.226 71.3938 97.2312 71.1218C85.9442 70.8838 70.0336 71.3598 54.259 71.5638L49.9414 77.8872C79.6548 77.5472 116.508 79.0771 145.847 80.471V74.7935H145.779Z" fill="url(#paint12_radial_3640_17976)"/>
<path fill-rule="evenodd" clip-rule="evenodd" d="M49.941 77.7853L54.3946 71.3938C42.0877 70.6459 22.8454 68.6741 10.4025 68.5381L6.79883 76.5274C19.5137 76.5274 33.9964 76.8673 49.4991 77.7853H49.941Z" fill="url(#paint13_radial_3640_17976)"/>
<path fill-rule="evenodd" clip-rule="evenodd" d="M6.80041 76.5273L10.2001 68.606C9.48838 68.4546 8.83067 68.114 8.29628 67.6201L2.55078 72.7537C3.67629 74.3054 5.12649 75.5932 6.80041 76.5273Z" fill="url(#paint14_radial_3640_17976)"/>
<path fill-rule="evenodd" clip-rule="evenodd" d="M2.54978 72.7535L8.36326 67.62C7.20736 54.3952 6.05147 41.1363 5.50751 27.9455L0 29.5434C0.611946 44.1961 1.1899 57.9988 2.54978 72.7535Z" fill="url(#paint15_radial_3640_17976)"/>
<path fill-rule="evenodd" clip-rule="evenodd" d="M44.5355 21.6223C47.7536 19.5778 50.8212 17.3055 53.7147 14.8229C55.1086 12.6131 56.4685 10.4033 57.8623 8.22744C58.5083 7.17354 58.7803 6.52759 58.1003 6.05164C44.2295 7.41152 26.1771 9.45134 11.6604 9.8933C11.4224 10.0633 9.72258 11.7291 9.4846 11.9331C8.32871 17.7126 6.66285 22.1322 5.71094 26.7898C5.83741 26.9594 5.99998 27.0987 6.1869 27.1978C7.51278 27.8437 33.3845 22.9481 39.6739 21.8942C40.9318 21.6903 43.5156 21.7243 44.5355 21.4863V21.6223Z" fill="url(#paint16_radial_3640_17976)"/>
<path fill-rule="evenodd" clip-rule="evenodd" d="M54.6333 15.2988C52.3215 16.7947 50.0777 18.3926 47.8339 20.0584C46.678 20.9423 45.998 21.5883 45.998 21.7923C45.998 21.9962 46.678 22.4042 48.1739 22.7782C74.5486 29.4175 100.205 38.6414 124.769 50.3157C125.959 50.3157 126.061 50.1118 127.149 48.6159C134.015 39.5984 142.43 31.8741 152.001 25.8039C153.667 24.648 153.463 24.308 153.429 23.2881C153.267 18.9076 153.552 14.5221 154.279 10.1993C153.945 14.4175 153.843 18.6508 153.973 22.8802C153.973 23.8321 153.973 24.274 155.06 23.6961C156.998 22.7782 162.676 19.3105 168.965 16.3187C175.255 13.327 182.122 10.9472 184.434 9.34936C185.93 8.36344 185.012 8.22746 183.958 8.15946C174.099 7.6835 164.41 7.17355 155.298 6.5616C148.193 7.6835 141.7 7.7515 134.152 8.22746C122.359 6.65687 110.418 6.51989 98.5914 7.81949C85.9762 6.23205 73.2594 5.59564 60.5488 5.91566C58.0131 8.65022 56.0073 11.8319 54.6333 15.2988Z" fill="url(#paint17_radial_3640_17976)"/>
<path fill-rule="evenodd" clip-rule="evenodd" d="M122.865 50.4514C107.94 43.4141 68.1975 27.8774 49.1932 23.7978C44.658 22.6049 39.8915 22.6049 35.3564 23.7978C24.0694 25.4976 7.37685 27.8434 5.94898 28.3534C5.86298 28.372 5.78201 28.409 5.71161 28.4618C5.6412 28.5147 5.58302 28.582 5.54102 28.6594C6.08497 41.6122 7.24087 54.6671 8.36277 67.5859C8.89717 68.0798 9.55487 68.4204 10.2666 68.5718C13.1223 68.5718 16.3181 68.7418 19.7178 68.9118C31.1408 69.5578 44.7736 70.8496 54.2587 71.4276C70.1013 71.2236 85.9439 70.7476 97.2309 70.9856C101.447 70.9856 108.348 71.4616 115.895 72.0395C124.293 72.5155 132.656 73.5354 141.053 73.7734C142.195 73.8459 143.342 73.7427 144.453 73.4674C144.861 73.1954 143.399 70.2717 141.937 67.5179C137.143 63.3023 132.588 58.9507 127.862 54.3951C126.528 52.716 124.816 51.3763 122.865 50.4854V50.4514Z" fill="url(#paint18_radial_3640_17976)"/>
<path fill-rule="evenodd" clip-rule="evenodd" d="M169.169 16.6924C154.516 23.4918 137.484 35.7987 128.032 48.7176C126.774 50.4514 126.774 50.8934 127.284 52.5253C132.075 57.8564 137.257 62.8224 142.787 67.3819C143.731 69.3709 144.87 71.2614 146.187 73.0255C146.759 73.5565 147.514 73.8484 148.295 73.8414C155.54 74.3003 162.807 74.3003 170.053 73.8414C181.923 71.6125 193.615 68.522 205.036 64.5942C210.474 62.5845 215.655 59.9369 220.47 56.7069C227.27 51.8453 233.729 46.7458 240.018 41.3063C241.646 39.2907 243.027 37.0879 244.132 34.7448C244.74 33.8698 245.039 32.8171 244.982 31.7531C244.982 31.5151 244.982 31.2431 244.982 30.9712C244.234 27.9794 243.044 23.0159 242.092 19.2762C241.378 16.9984 241.378 14.6526 241.072 12.3068C240.669 11.8045 240.2 11.3586 239.679 10.9809C224.38 10.199 207.823 9.38306 191.403 8.60113H189.057C188.253 8.5826 187.454 8.73317 186.711 9.0431C185.78 9.56287 184.912 10.1905 184.127 10.9129C179.04 12.6064 174.047 14.5697 169.169 16.7944V16.6924Z" fill="url(#paint19_radial_3640_17976)"/>
<path fill-rule="evenodd" clip-rule="evenodd" d="M218.94 59.053C214.316 61.0929 209.897 63.4047 205.341 65.8524C193.728 69.218 181.92 71.8747 169.984 73.8077L214.18 72.0739L240.324 71.088C241.418 70.6909 242.485 70.2253 243.52 69.6941C244.132 58.6791 244.268 46.7121 244.982 35.6971C244.918 35.4518 244.789 35.2285 244.608 35.0511C243 37.2026 241.706 39.5722 240.766 42.0885C234.993 46.1098 229.454 50.4572 224.176 55.1094C221.728 57.2512 223.088 57.2852 225.433 58.883C227.779 60.4809 229.343 61.6708 231.349 63.3027C227.371 60.9909 223.156 57.1152 219.008 58.917L218.94 59.053Z" fill="url(#paint20_radial_3640_17976)"/>
<path opacity="0.5" fill-rule="evenodd" clip-rule="evenodd" d="M9.1455 4.82757C25.2261 4.21563 41.8166 4.4876 57.7952 2.03982L97.5037 2.71976C117.46 1.83584 137.008 2.68576 156.387 3.19572C174.541 3.70567 227.134 2.34579 241.957 6.08546C242.773 6.08546 245.357 7.34335 245.595 8.90721C248.351 13.1315 250.043 17.961 250.524 22.982C250.524 20.8742 250.218 19.1063 250.15 18.1204C249.504 14.7207 248.62 11.321 247.736 7.27536C246.63 5.68941 245.046 4.49831 243.215 3.87566C213.603 2.85575 184.706 1.83584 156.896 0.917919C149.825 0.917919 122.899 0.917919 96.7898 0.407964C82.545 0.917919 67.5524 0.407964 56.2314 0C39.5388 0.645943 24.6481 2.2438 8.12559 2.71976C5.96264 3.89543 4.05567 5.49035 2.51608 7.41135C2.07412 13.5988 0.850227 19.1063 0.238281 26.1437C2.62659 20.4968 3.85222 14.4264 3.84196 8.29527C5.83539 7.55996 7.64505 6.39992 9.1455 4.89557V4.82757Z" fill="#EDF5F7"/>
<path opacity="0.5" fill-rule="evenodd" clip-rule="evenodd" d="M214.182 72.0735L231.827 71.7335C234.376 71.7335 236.926 71.5635 239.442 71.7335C239.646 71.7335 239.85 72.0395 239.85 72.2434C239.845 73.5399 239.754 74.8346 239.578 76.1191C239.794 74.6371 240.112 73.1717 240.53 71.7335C240.966 71.277 241.496 70.9195 242.082 70.6849C242.669 70.4503 243.299 70.3442 243.929 70.3736C245.289 70.9176 246.547 71.6995 247.873 72.3794L245.119 70.2036C243.929 69.2857 244.065 69.2177 244.133 67.6878C244.133 65.2401 244.439 62.8263 244.575 60.4125C244.575 51.8112 244.881 44.0939 245.561 35.5607C245.529 34.7518 245.692 33.9471 246.037 33.2149C246.207 33.2149 249.879 32.8409 250.355 32.7729C249.981 32.7729 246.071 32.4329 246.003 32.365C245.313 30.6922 244.767 28.9634 244.371 27.1974L243.352 22.4718C243.148 21.5199 242.944 20.466 243.352 20.194C243.73 19.8941 244.172 19.6848 244.643 19.5821L247.805 18.6642C246.447 18.9926 245.054 19.1525 243.657 19.1401C242.332 19.1401 242.57 18.4602 242.434 17.1343C242.298 15.8084 241.89 15.3665 241.822 14.5165C241.754 13.6666 241.482 12.7827 242.434 11.8988L246.887 7.92111L242.536 11.0828C240.904 12.2727 240.292 11.0828 241.006 9.179C241.72 7.27517 242.298 5.7793 242.978 4.35142L240.36 8.94102C239.34 10.7769 238.898 10.3349 236.96 10.3009C223.361 9.92693 210.136 9.00901 196.708 7.88711C191.132 7.88711 158.019 7.13918 156.557 5.98328C156.081 5.60931 156.557 3.84147 157.101 1.35969C155.231 5.7113 156.047 5.91529 151.084 6.79921C145.988 7.44093 140.852 7.7023 135.717 7.58114C134.697 7.58114 134.527 7.58114 134.459 6.45924V3.22952C134.459 4.41942 134.187 5.50732 134.085 6.62922C133.983 7.75112 133.371 7.10518 132.589 7.00319C128.68 6.45924 124.804 6.08527 120.826 5.84729C114.027 5.84729 108.111 6.59523 101.176 7.03719C98.3883 7.03719 98.3203 4.45341 97.2664 0.985721C97.6216 2.63812 97.7701 4.32826 97.7084 6.01728C97.4364 6.56123 96.6885 6.45924 95.3626 6.32325L85.5714 5.37133C80.1659 5.16735 74.8284 5.09936 69.4569 5.03136C66.4094 5.30132 63.341 5.22147 60.3117 4.79338C60.1417 4.79338 57.3539 1.1897 56.912 0.747742C57.3199 1.49568 58.7138 3.94346 58.5438 4.5894C58.3738 5.23535 57.0479 5.30334 55.926 5.37133C52.9003 5.57532 50.1466 5.7793 47.1208 5.88129C35.9358 7.30916 25.4987 8.22708 14.2457 8.94102C12.6819 8.94102 12.3079 9.48497 11.526 8.19309C10.744 6.9012 9.52013 4.79338 8.53422 3.26352C9.35015 5.50732 10.1321 7.34316 10.744 9.65496C10.744 10.0969 9.31615 10.9128 8.7382 10.6069C6.80037 9.68895 4.99853 8.87302 3.0267 7.78512C4.35259 8.83903 5.3045 9.82494 6.63039 10.9128C8.60221 12.5447 8.39823 11.8988 7.78628 14.3125C6.80037 18.2562 5.88245 22.1319 4.96453 26.0415C4.55657 27.6394 4.52257 27.6394 2.95871 28.2173C2.00679 28.5913 1.49684 29.0332 0.544922 29.4072L3.40067 28.8293C4.38658 28.6253 5.06652 28.3533 5.06652 29.5092V34.4048L6.39241 51.8452C6.80037 56.6388 7.24233 61.4664 7.6503 66.26C7.67077 66.6592 7.58885 67.0571 7.41232 67.4159C6.27484 68.9867 4.98832 70.444 3.57066 71.7675L8.09226 68.3678C8.3786 68.36 8.66329 68.4136 8.92718 68.525C9.19107 68.6364 9.42803 68.8031 9.62212 69.0137L8.60221 72.1414L10.2681 69.1837C10.5014 68.9616 10.7988 68.8189 11.118 68.7757H19.7192C16.3195 68.6058 13.1238 68.4698 10.2681 68.4358C9.55634 68.2843 8.89863 67.9437 8.36423 67.4499C7.24233 54.531 6.08643 41.4761 5.54248 28.5233C5.58448 28.446 5.64267 28.3786 5.71307 28.3258C5.78348 28.273 5.86444 28.236 5.95045 28.2173C7.37832 27.8773 24.0708 25.5316 35.3579 23.7977C39.893 22.6048 44.6595 22.6048 49.1946 23.7977C68.199 28.0133 107.941 43.55 122.866 50.5873C124.806 51.4491 126.518 52.7531 127.864 54.395C132.487 58.9846 137.145 63.3362 141.938 67.5858C143.4 70.3396 144.862 73.2633 144.454 73.5353C143.343 73.8107 142.197 73.9138 141.055 73.8413C132.657 73.6033 124.294 72.5834 115.897 72.1074C124.702 73.2633 133.609 73.8073 143.094 74.9292C144.25 74.9292 144.896 75.1332 145.27 75.4732C145.734 76.7485 145.975 78.0939 145.984 79.4508C146.256 76.901 146.256 75.3712 146.766 75.2012C147.547 75.1368 148.331 75.1368 149.112 75.2012C156.149 75.2012 163.187 74.6572 170.224 73.9773C182.184 72.0358 194.014 69.3677 205.649 65.988C210.034 63.5742 214.454 61.2624 219.248 59.1886C224.041 57.1148 227.305 61.1944 231.181 63.4382C229.175 61.8064 227.305 60.4465 225.265 59.0186C223.225 57.5907 221.559 57.3867 224.007 55.2449C229.285 50.5927 234.824 46.2454 240.598 42.2241C241.538 39.7078 242.831 37.3382 244.439 35.1867C244.62 35.364 244.75 35.5873 244.813 35.8326C244.099 46.7117 243.963 58.6786 243.352 69.8297C242.317 70.3609 241.249 70.8265 240.156 71.2235L214.182 72.0735ZM169.986 73.8073C162.741 74.2662 155.473 74.2662 148.228 73.8073C147.447 73.8143 146.693 73.5224 146.12 72.9914C144.803 71.2273 143.664 69.3368 142.72 67.3479C137.155 62.7922 131.939 57.8261 127.116 52.4912C126.606 50.8593 126.606 50.4174 127.864 48.6835C137.315 35.7647 154.347 23.5597 169 16.6583C173.878 14.4336 178.872 12.4704 183.959 10.7769C184.744 10.0544 185.611 9.4268 186.543 8.90702C188.057 8.42078 189.666 8.30421 191.234 8.56705C207.655 9.34898 224.347 10.0629 239.51 10.9468C240.032 11.3245 240.5 11.7705 240.904 12.2727C241.176 14.6185 241.312 16.9303 241.754 19.2421C242.706 22.9818 243.895 27.9453 244.643 30.9371C244.983 32.263 244.983 32.7389 243.963 34.7107C242.858 37.0539 241.477 39.2566 239.85 41.2722C233.56 46.7117 227.033 51.8112 220.302 56.6728C215.542 59.9028 210.418 62.5615 205.037 64.5941C193.593 68.5136 181.878 71.5928 169.986 73.8073ZM124.77 50.3154C100.216 38.6431 74.5719 29.4193 48.2087 22.7778C46.7129 22.4038 46.0329 21.9619 46.0329 21.7919C46.0329 21.6219 46.7129 20.942 47.8688 20.058C50.0786 18.3922 52.3224 16.6583 54.6682 15.2985C56.0523 11.8289 58.0698 8.64704 60.6176 5.91529C73.3057 5.59868 85.9996 6.23508 98.5923 7.81912C110.41 6.54481 122.339 6.70463 134.119 8.29508C141.802 7.81912 148.16 7.75112 155.265 6.62922C164.274 7.20717 173.828 7.75112 183.619 8.22708C184.741 8.22708 186.067 8.22708 184.401 9.41698C182.089 11.0148 175.256 13.3606 168.932 16.3864C162.609 19.4121 156.999 22.8458 155.061 23.7977C153.939 24.3757 154.007 23.7977 153.973 22.9818C153.84 18.7184 153.943 14.451 154.279 10.1989C153.557 14.4994 153.273 18.8619 153.429 23.2198C153.429 24.2397 153.667 24.5796 152.002 25.7355C142.425 31.826 134.009 39.5737 127.15 48.6155C126.062 50.1114 125.96 50.4174 124.77 50.3154ZM5.78046 26.8914C6.80037 22.1659 8.33024 17.8142 9.48613 12.0347C9.72411 11.8308 11.424 10.1649 11.6619 9.99493C26.1787 9.48497 44.1971 7.51314 58.1019 6.15326C58.7818 6.62922 58.5098 7.27517 57.8639 8.32907C56.47 10.5049 55.1101 12.7147 53.7162 14.9245C50.8227 17.4072 47.7552 19.6794 44.537 21.7239C43.5171 21.9619 40.9334 21.9279 39.6755 22.1319C33.386 23.0838 7.51431 27.9793 6.18843 27.1974C5.99793 27.0886 5.83506 26.9374 5.71247 26.7554L5.78046 26.8914Z" fill="url(#paint21_radial_3640_17976)"/>
<g style="mix-blend-mode:screen" opacity="0.5">
<path fill-rule="evenodd" clip-rule="evenodd" d="M42.7001 46.882C42.3503 46.8598 41.9998 46.912 41.6717 47.035C41.3435 47.1581 41.0452 47.3492 40.7962 47.5959C39.8414 48.7907 39.1675 50.185 38.8244 51.6755C38.4844 53.2394 41.1702 54.7013 42.4281 54.7693C42.9587 54.8055 43.4905 54.7167 43.9805 54.51C44.4706 54.3034 44.9054 53.9846 45.2498 53.5794C46.2358 52.2875 44.8079 47.0179 42.8021 46.78L42.7001 46.882Z" fill="#BDC8C9"/>
</g>
<g style="mix-blend-mode:screen" opacity="0.5">
<path fill-rule="evenodd" clip-rule="evenodd" d="M28.2518 32.5352C26.1068 32.999 24.1168 34.0057 22.4724 35.459C20.6365 37.2608 18.2567 42.9383 19.6166 45.4201C20.0145 46.1511 20.5788 46.7782 21.2639 47.2506C21.9489 47.7231 22.7356 48.0277 23.5603 48.1399C26.072 48.2998 28.5608 47.5784 30.5976 46.1001C32.2346 44.5295 33.6526 42.7456 34.8133 40.7965C35.8385 39.6485 36.7707 38.4208 37.601 37.1248C37.8231 36.6572 37.9353 36.145 37.9293 35.6273C37.9233 35.1096 37.7992 34.6002 37.5663 34.1378C37.3335 33.6754 36.9981 33.2723 36.5858 32.9592C36.1735 32.6462 35.6952 32.4314 35.1872 32.3313C32.9339 31.8709 30.6035 31.9524 28.3878 32.5692L28.2518 32.5352Z" fill="#BDC8C9"/>
</g>
<g style="mix-blend-mode:screen" opacity="0.5">
<path fill-rule="evenodd" clip-rule="evenodd" d="M226.455 31.2435C223.735 31.7534 220.845 36.377 220.199 39.0968C219.553 41.8165 220.777 43.4484 222.137 42.9384C225.129 41.7485 233.594 38.3148 234.172 34.6772C234.27 34.2517 234.28 33.8104 234.199 33.3811C234.119 32.9518 233.951 32.5438 233.705 32.1828C233.459 31.8219 233.141 31.5158 232.77 31.284C232.4 31.0521 231.986 30.8994 231.554 30.8355C229.844 30.6476 228.113 30.7861 226.455 31.2435Z" fill="#BDC8C9"/>
</g>
<path fill-rule="evenodd" clip-rule="evenodd" d="M226.011 30.5974C223.291 31.1413 220.402 35.7649 219.756 38.4847C219.11 41.2044 220.334 42.8363 221.694 42.2923C224.685 41.1024 233.151 37.6688 233.728 34.0311C233.807 33.6201 233.803 33.1976 233.717 32.7882C233.631 32.3787 233.465 31.9904 233.228 31.6457C232.99 31.301 232.687 31.0068 232.335 30.7802C231.984 30.5535 231.591 30.3989 231.179 30.3254C229.468 30.1562 227.741 30.2944 226.079 30.7334L226.011 30.5974Z" fill="url(#paint22_radial_3640_17976)"/>
<path fill-rule="evenodd" clip-rule="evenodd" d="M42.2586 46.406C41.8895 46.3706 41.5171 46.4195 41.1696 46.5491C40.8222 46.6786 40.5087 46.8855 40.2528 47.1539C39.293 48.3541 38.6292 49.7633 38.315 51.2676C37.975 52.7974 40.6268 54.2933 41.8847 54.3273C42.4125 54.3676 42.9425 54.2841 43.4324 54.0835C43.9223 53.8828 44.3586 53.5705 44.7064 53.1714C45.6923 51.8455 44.2645 46.61 42.2586 46.372V46.406Z" fill="url(#paint23_radial_3640_17976)"/>
<path fill-rule="evenodd" clip-rule="evenodd" d="M27.8095 32.0591C25.6543 32.4938 23.6571 33.5042 22.03 34.9829C20.1942 36.7847 17.8484 42.4622 19.2083 44.944C19.6 45.6667 20.1596 46.2849 20.8399 46.7463C21.5203 47.2078 22.3015 47.4991 23.1179 47.5958C25.6068 47.7397 28.0689 47.0191 30.0873 45.5559C31.7423 43.9842 33.1826 42.201 34.3709 40.2524C35.3882 39.0979 36.3199 37.8708 37.1587 36.5807C37.3873 36.1116 37.5048 35.5961 37.5021 35.0742C37.4994 34.5523 37.3767 34.038 37.1433 33.5712C36.9099 33.1044 36.5721 32.6976 36.1562 32.3823C35.7403 32.0671 35.2574 31.8518 34.7449 31.7532C32.4876 31.3202 30.161 31.4133 27.9455 32.0251L27.8095 32.0591Z" fill="url(#paint24_radial_3640_17976)"/>
<defs>
<radialGradient id="paint0_radial_3640_17976" cx="0" cy="0" r="1" gradientUnits="userSpaceOnUse" gradientTransform="translate(43.5502 1.01991) scale(286.697 286.697)">
<stop stop-color="#9DA9AB"/>
<stop offset="1" stop-color="#717485"/>
</radialGradient>
<radialGradient id="paint1_radial_3640_17976" cx="0" cy="0" r="1" gradientUnits="userSpaceOnUse" gradientTransform="translate(0.373967 32.5353) scale(58.3049 58.3049)">
<stop stop-color="#BDCACF"/>
<stop offset="1" stop-color="#828599"/>
</radialGradient>
<radialGradient id="paint2_radial_3640_17976" cx="0" cy="0" r="1" gradientUnits="userSpaceOnUse" gradientTransform="translate(16.4204 11.6271) scale(21.5541)">
<stop stop-color="#E4ECF0"/>
<stop offset="1" stop-color="#A6B4BD"/>
</radialGradient>
<radialGradient id="paint3_radial_3640_17976" cx="0" cy="0" r="1" gradientUnits="userSpaceOnUse" gradientTransform="translate(60.6164 -49.6696) scale(87.3723 87.3723)">
<stop stop-color="#E4ECF0"/>
<stop offset="1" stop-color="#A6B4BD"/>
</radialGradient>
<radialGradient id="paint4_radial_3640_17976" cx="0" cy="0" r="1" gradientUnits="userSpaceOnUse" gradientTransform="translate(84.754 -65.3762) scale(86.0124 86.0124)">
<stop stop-color="#E4ECF0"/>
<stop offset="1" stop-color="#A6B4BD"/>
</radialGradient>
<radialGradient id="paint5_radial_3640_17976" cx="0" cy="0" r="1" gradientUnits="userSpaceOnUse" gradientTransform="translate(135.139 -36.2748) scale(89.8881 89.8881)">
<stop stop-color="#BDCACF"/>
<stop offset="1" stop-color="#828599"/>
</radialGradient>
<radialGradient id="paint6_radial_3640_17976" cx="0" cy="0" r="1" gradientUnits="userSpaceOnUse" gradientTransform="translate(171.719 -65.9541) scale(109.946 109.946)">
<stop stop-color="#BDCACF"/>
<stop offset="1" stop-color="#828599"/>
</radialGradient>
<radialGradient id="paint7_radial_3640_17976" cx="0" cy="0" r="1" gradientUnits="userSpaceOnUse" gradientTransform="translate(230.194 -22.2341) scale(35.2888 35.2889)">
<stop stop-color="#D3DBDE"/>
<stop offset="1" stop-color="#BCC0DE"/>
</radialGradient>
<radialGradient id="paint8_radial_3640_17976" cx="0" cy="0" r="1" gradientUnits="userSpaceOnUse" gradientTransform="translate(242.738 11.525) scale(82.1707 82.1708)">
<stop stop-color="#9DA9AB"/>
<stop offset="1" stop-color="#5B5E6B"/>
</radialGradient>
<radialGradient id="paint9_radial_3640_17976" cx="0" cy="0" r="1" gradientUnits="userSpaceOnUse" gradientTransform="translate(219.077 22.6079) scale(76.8672 76.8672)">
<stop stop-color="#9DA9AB"/>
<stop offset="1" stop-color="#5B5E6B"/>
</radialGradient>
<radialGradient id="paint10_radial_3640_17976" cx="0" cy="0" r="1" gradientUnits="userSpaceOnUse" gradientTransform="translate(240.053 52.7633) scale(44.9441 44.9441)">
<stop stop-color="#9DA9AB"/>
<stop offset="1" stop-color="#555763"/>
</radialGradient>
<radialGradient id="paint11_radial_3640_17976" cx="0" cy="0" r="1" gradientUnits="userSpaceOnUse" gradientTransform="translate(175.051 6.90144) scale(114.264 114.264)">
<stop stop-color="#9DA9AB"/>
<stop offset="1" stop-color="#555763"/>
</radialGradient>
<radialGradient id="paint12_radial_3640_17976" cx="0" cy="0" r="1" gradientUnits="userSpaceOnUse" gradientTransform="translate(94.1035 9.00927) scale(95.7356 95.7356)">
<stop stop-color="#9DA9AB"/>
<stop offset="1" stop-color="#555763"/>
</radialGradient>
<radialGradient id="paint13_radial_3640_17976" cx="0" cy="0" r="1" gradientUnits="userSpaceOnUse" gradientTransform="translate(53.9527 21.7582) scale(93.2538 93.2538)">
<stop stop-color="#9DA9AB"/>
<stop offset="1" stop-color="#555763"/>
</radialGradient>
<radialGradient id="paint14_radial_3640_17976" cx="0" cy="0" r="1" gradientUnits="userSpaceOnUse" gradientTransform="translate(16.2856 56.2651) scale(45.828 45.828)">
<stop stop-color="#9DA9AB"/>
<stop offset="1" stop-color="#555763"/>
</radialGradient>
<radialGradient id="paint15_radial_3640_17976" cx="0" cy="0" r="1" gradientUnits="userSpaceOnUse" gradientTransform="translate(-0.509953 23.7639) scale(81.3888 81.3888)">
<stop stop-color="#9DA7AB"/>
<stop offset="1" stop-color="#828599"/>
</radialGradient>
<radialGradient id="paint16_radial_3640_17976" cx="0" cy="0" r="1" gradientUnits="userSpaceOnUse" gradientTransform="translate(45.8274 21.3163) scale(98.1834 98.1833)">
<stop stop-color="#AAB4B8"/>
<stop offset="1" stop-color="#828599"/>
</radialGradient>
<radialGradient id="paint17_radial_3640_17976" cx="0" cy="0" r="1" gradientUnits="userSpaceOnUse" gradientTransform="translate(103.487 52.6955) scale(185.692 185.692)">
<stop stop-color="#AAB4B8"/>
<stop offset="1" stop-color="#828599"/>
</radialGradient>
<radialGradient id="paint18_radial_3640_17976" cx="0" cy="0" r="1" gradientUnits="userSpaceOnUse" gradientTransform="translate(78.5326 -24.036) scale(223.53)">
<stop stop-color="#9DA9AB"/>
<stop offset="1" stop-color="#717485"/>
</radialGradient>
<radialGradient id="paint19_radial_3640_17976" cx="0" cy="0" r="1" gradientUnits="userSpaceOnUse" gradientTransform="translate(116.711 33.4869) scale(235.225 235.225)">
<stop stop-color="#9DA9AB"/>
<stop offset="1" stop-color="#717485"/>
</radialGradient>
<radialGradient id="paint20_radial_3640_17976" cx="0" cy="0" r="1" gradientUnits="userSpaceOnUse" gradientTransform="translate(178.994 -2.07358) scale(114.468)">
<stop stop-color="#9DA9AB"/>
<stop offset="1" stop-color="#717485"/>
</radialGradient>
<radialGradient id="paint21_radial_3640_17976" cx="0" cy="0" r="1" gradientUnits="userSpaceOnUse" gradientTransform="translate(37.2277 -49.3299) scale(282.243 282.243)">
<stop stop-color="#E2F1F7"/>
<stop offset="1" stop-color="#9A9DB5"/>
</radialGradient>
<radialGradient id="paint22_radial_3640_17976" cx="0" cy="0" r="1" gradientUnits="userSpaceOnUse" gradientTransform="translate(231.009 50.0437) scale(22.676 22.676)">
<stop stop-color="#9DA9AB"/>
<stop offset="1" stop-color="#717485"/>
</radialGradient>
<radialGradient id="paint23_radial_3640_17976" cx="0" cy="0" r="1" gradientUnits="userSpaceOnUse" gradientTransform="translate(44.8084 57.455) scale(14.3127)">
<stop stop-color="#9DA9AB"/>
<stop offset="1" stop-color="#717485"/>
</radialGradient>
<radialGradient id="paint24_radial_3640_17976" cx="0" cy="0" r="1" gradientUnits="userSpaceOnUse" gradientTransform="translate(35.9348 48.6497) scale(24.6478)">
<stop stop-color="#9DA9AB"/>
<stop offset="1" stop-color="#717485"/>
</radialGradient>
</defs>
</svg>
